G75*
%MOIN*%
%OFA0B0*%
%FSLAX24Y24*%
%IPPOS*%
%LPD*%
%AMOC8*
5,1,8,0,0,1.08239X$1,22.5*
%
%ADD10C,0.0000*%
%ADD11C,0.0051*%
%ADD12C,0.0060*%
%ADD13R,0.0315X0.0512*%
%ADD14R,0.0512X0.0315*%
%ADD15R,0.0551X0.0709*%
%ADD16R,0.0551X0.0984*%
%ADD17R,0.0610X0.0098*%
%ADD18R,0.1220X0.2039*%
%ADD19R,0.1110X0.0620*%
%ADD20R,0.0472X0.0472*%
%ADD21R,0.0512X0.0591*%
%ADD22R,0.1535X0.0630*%
%ADD23R,0.0354X0.0236*%
%ADD24R,0.0591X0.0512*%
%ADD25R,0.0669X0.0787*%
%ADD26R,0.0787X0.0591*%
%ADD27R,0.0327X0.0248*%
D10*
X004160Y004093D02*
X004160Y025093D01*
X044160Y025093D01*
X045160Y024093D01*
X045160Y020093D01*
X046160Y019093D01*
X046160Y005593D01*
X045160Y004593D01*
X045160Y004093D01*
X004160Y004093D01*
X011030Y005093D02*
X011032Y005143D01*
X011038Y005193D01*
X011048Y005242D01*
X011062Y005290D01*
X011079Y005337D01*
X011100Y005382D01*
X011125Y005426D01*
X011153Y005467D01*
X011185Y005506D01*
X011219Y005543D01*
X011256Y005577D01*
X011296Y005607D01*
X011338Y005634D01*
X011382Y005658D01*
X011428Y005679D01*
X011475Y005695D01*
X011523Y005708D01*
X011573Y005717D01*
X011622Y005722D01*
X011673Y005723D01*
X011723Y005720D01*
X011772Y005713D01*
X011821Y005702D01*
X011869Y005687D01*
X011915Y005669D01*
X011960Y005647D01*
X012003Y005621D01*
X012044Y005592D01*
X012083Y005560D01*
X012119Y005525D01*
X012151Y005487D01*
X012181Y005447D01*
X012208Y005404D01*
X012231Y005360D01*
X012250Y005314D01*
X012266Y005266D01*
X012278Y005217D01*
X012286Y005168D01*
X012290Y005118D01*
X012290Y005068D01*
X012286Y005018D01*
X012278Y004969D01*
X012266Y004920D01*
X012250Y004872D01*
X012231Y004826D01*
X012208Y004782D01*
X012181Y004739D01*
X012151Y004699D01*
X012119Y004661D01*
X012083Y004626D01*
X012044Y004594D01*
X012003Y004565D01*
X011960Y004539D01*
X011915Y004517D01*
X011869Y004499D01*
X011821Y004484D01*
X011772Y004473D01*
X011723Y004466D01*
X011673Y004463D01*
X011622Y004464D01*
X011573Y004469D01*
X011523Y004478D01*
X011475Y004491D01*
X011428Y004507D01*
X011382Y004528D01*
X011338Y004552D01*
X011296Y004579D01*
X011256Y004609D01*
X011219Y004643D01*
X011185Y004680D01*
X011153Y004719D01*
X011125Y004760D01*
X011100Y004804D01*
X011079Y004849D01*
X011062Y004896D01*
X011048Y004944D01*
X011038Y004993D01*
X011032Y005043D01*
X011030Y005093D01*
X043530Y005093D02*
X043532Y005143D01*
X043538Y005193D01*
X043548Y005242D01*
X043562Y005290D01*
X043579Y005337D01*
X043600Y005382D01*
X043625Y005426D01*
X043653Y005467D01*
X043685Y005506D01*
X043719Y005543D01*
X043756Y005577D01*
X043796Y005607D01*
X043838Y005634D01*
X043882Y005658D01*
X043928Y005679D01*
X043975Y005695D01*
X044023Y005708D01*
X044073Y005717D01*
X044122Y005722D01*
X044173Y005723D01*
X044223Y005720D01*
X044272Y005713D01*
X044321Y005702D01*
X044369Y005687D01*
X044415Y005669D01*
X044460Y005647D01*
X044503Y005621D01*
X044544Y005592D01*
X044583Y005560D01*
X044619Y005525D01*
X044651Y005487D01*
X044681Y005447D01*
X044708Y005404D01*
X044731Y005360D01*
X044750Y005314D01*
X044766Y005266D01*
X044778Y005217D01*
X044786Y005168D01*
X044790Y005118D01*
X044790Y005068D01*
X044786Y005018D01*
X044778Y004969D01*
X044766Y004920D01*
X044750Y004872D01*
X044731Y004826D01*
X044708Y004782D01*
X044681Y004739D01*
X044651Y004699D01*
X044619Y004661D01*
X044583Y004626D01*
X044544Y004594D01*
X044503Y004565D01*
X044460Y004539D01*
X044415Y004517D01*
X044369Y004499D01*
X044321Y004484D01*
X044272Y004473D01*
X044223Y004466D01*
X044173Y004463D01*
X044122Y004464D01*
X044073Y004469D01*
X044023Y004478D01*
X043975Y004491D01*
X043928Y004507D01*
X043882Y004528D01*
X043838Y004552D01*
X043796Y004579D01*
X043756Y004609D01*
X043719Y004643D01*
X043685Y004680D01*
X043653Y004719D01*
X043625Y004760D01*
X043600Y004804D01*
X043579Y004849D01*
X043562Y004896D01*
X043548Y004944D01*
X043538Y004993D01*
X043532Y005043D01*
X043530Y005093D01*
X041030Y024093D02*
X041032Y024143D01*
X041038Y024193D01*
X041048Y024242D01*
X041062Y024290D01*
X041079Y024337D01*
X041100Y024382D01*
X041125Y024426D01*
X041153Y024467D01*
X041185Y024506D01*
X041219Y024543D01*
X041256Y024577D01*
X041296Y024607D01*
X041338Y024634D01*
X041382Y024658D01*
X041428Y024679D01*
X041475Y024695D01*
X041523Y024708D01*
X041573Y024717D01*
X041622Y024722D01*
X041673Y024723D01*
X041723Y024720D01*
X041772Y024713D01*
X041821Y024702D01*
X041869Y024687D01*
X041915Y024669D01*
X041960Y024647D01*
X042003Y024621D01*
X042044Y024592D01*
X042083Y024560D01*
X042119Y024525D01*
X042151Y024487D01*
X042181Y024447D01*
X042208Y024404D01*
X042231Y024360D01*
X042250Y024314D01*
X042266Y024266D01*
X042278Y024217D01*
X042286Y024168D01*
X042290Y024118D01*
X042290Y024068D01*
X042286Y024018D01*
X042278Y023969D01*
X042266Y023920D01*
X042250Y023872D01*
X042231Y023826D01*
X042208Y023782D01*
X042181Y023739D01*
X042151Y023699D01*
X042119Y023661D01*
X042083Y023626D01*
X042044Y023594D01*
X042003Y023565D01*
X041960Y023539D01*
X041915Y023517D01*
X041869Y023499D01*
X041821Y023484D01*
X041772Y023473D01*
X041723Y023466D01*
X041673Y023463D01*
X041622Y023464D01*
X041573Y023469D01*
X041523Y023478D01*
X041475Y023491D01*
X041428Y023507D01*
X041382Y023528D01*
X041338Y023552D01*
X041296Y023579D01*
X041256Y023609D01*
X041219Y023643D01*
X041185Y023680D01*
X041153Y023719D01*
X041125Y023760D01*
X041100Y023804D01*
X041079Y023849D01*
X041062Y023896D01*
X041048Y023944D01*
X041038Y023993D01*
X041032Y024043D01*
X041030Y024093D01*
X011530Y024093D02*
X011532Y024143D01*
X011538Y024193D01*
X011548Y024242D01*
X011562Y024290D01*
X011579Y024337D01*
X011600Y024382D01*
X011625Y024426D01*
X011653Y024467D01*
X011685Y024506D01*
X011719Y024543D01*
X011756Y024577D01*
X011796Y024607D01*
X011838Y024634D01*
X011882Y024658D01*
X011928Y024679D01*
X011975Y024695D01*
X012023Y024708D01*
X012073Y024717D01*
X012122Y024722D01*
X012173Y024723D01*
X012223Y024720D01*
X012272Y024713D01*
X012321Y024702D01*
X012369Y024687D01*
X012415Y024669D01*
X012460Y024647D01*
X012503Y024621D01*
X012544Y024592D01*
X012583Y024560D01*
X012619Y024525D01*
X012651Y024487D01*
X012681Y024447D01*
X012708Y024404D01*
X012731Y024360D01*
X012750Y024314D01*
X012766Y024266D01*
X012778Y024217D01*
X012786Y024168D01*
X012790Y024118D01*
X012790Y024068D01*
X012786Y024018D01*
X012778Y023969D01*
X012766Y023920D01*
X012750Y023872D01*
X012731Y023826D01*
X012708Y023782D01*
X012681Y023739D01*
X012651Y023699D01*
X012619Y023661D01*
X012583Y023626D01*
X012544Y023594D01*
X012503Y023565D01*
X012460Y023539D01*
X012415Y023517D01*
X012369Y023499D01*
X012321Y023484D01*
X012272Y023473D01*
X012223Y023466D01*
X012173Y023463D01*
X012122Y023464D01*
X012073Y023469D01*
X012023Y023478D01*
X011975Y023491D01*
X011928Y023507D01*
X011882Y023528D01*
X011838Y023552D01*
X011796Y023579D01*
X011756Y023609D01*
X011719Y023643D01*
X011685Y023680D01*
X011653Y023719D01*
X011625Y023760D01*
X011600Y023804D01*
X011579Y023849D01*
X011562Y023896D01*
X011548Y023944D01*
X011538Y023993D01*
X011532Y024043D01*
X011530Y024093D01*
D11*
X004160Y004093D02*
X004160Y000126D01*
X004185Y000893D02*
X005183Y000791D01*
X005183Y000768D02*
X004185Y000893D01*
X005183Y000996D01*
X005183Y001019D02*
X005183Y000768D01*
X005183Y000842D02*
X004185Y000893D01*
X005183Y000944D01*
X005183Y001019D02*
X004185Y000893D01*
X046134Y000893D01*
X045136Y000791D01*
X045136Y000768D02*
X046134Y000893D01*
X045136Y000996D01*
X045136Y001019D02*
X045136Y000768D01*
X045136Y000842D02*
X046134Y000893D01*
X045136Y000944D01*
X045136Y001019D02*
X046134Y000893D01*
X046160Y000126D02*
X046160Y004893D01*
X004160Y004093D02*
X000492Y004093D01*
X001260Y004119D02*
X001362Y005117D01*
X001385Y005117D02*
X001260Y004119D01*
X001157Y005117D01*
X001134Y005117D02*
X001385Y005117D01*
X001311Y005117D02*
X001260Y004119D01*
X001208Y005117D01*
X001134Y005117D02*
X001260Y004119D01*
X001260Y025068D01*
X001362Y024070D01*
X001385Y024070D02*
X001260Y025068D01*
X001157Y024070D01*
X001134Y024070D02*
X001385Y024070D01*
X001311Y024070D02*
X001260Y025068D01*
X001208Y024070D01*
X001134Y024070D02*
X001260Y025068D01*
X000492Y025093D02*
X002560Y025093D01*
D12*
X000683Y016050D02*
X000683Y015623D01*
X000363Y015943D01*
X001003Y015943D01*
X000897Y015405D02*
X001003Y015299D01*
X001003Y015085D01*
X000897Y014978D01*
X000897Y014763D02*
X001003Y014763D01*
X001003Y014656D01*
X000897Y014656D01*
X000897Y014763D01*
X000897Y014439D02*
X001003Y014332D01*
X001003Y014118D01*
X000897Y014012D01*
X000897Y013794D02*
X001003Y013687D01*
X001003Y013474D01*
X000897Y013367D01*
X000683Y013367D02*
X000576Y013581D01*
X000576Y013687D01*
X000683Y013794D01*
X000897Y013794D01*
X000470Y014012D02*
X000363Y014118D01*
X000363Y014332D01*
X000470Y014439D01*
X000576Y014439D01*
X000683Y014332D01*
X000790Y014439D01*
X000897Y014439D01*
X000683Y014332D02*
X000683Y014225D01*
X000363Y013794D02*
X000363Y013367D01*
X000683Y013367D01*
X000470Y014978D02*
X000363Y015085D01*
X000363Y015299D01*
X000470Y015405D01*
X000576Y015405D01*
X000683Y015299D01*
X000790Y015405D01*
X000897Y015405D01*
X000683Y015299D02*
X000683Y015192D01*
X023654Y001577D02*
X023867Y001790D01*
X023867Y001149D01*
X023654Y001149D02*
X024081Y001149D01*
X024298Y001256D02*
X024725Y001683D01*
X024725Y001256D01*
X024619Y001149D01*
X024405Y001149D01*
X024298Y001256D01*
X024298Y001683D01*
X024405Y001790D01*
X024619Y001790D01*
X024725Y001683D01*
X024943Y001470D02*
X025263Y001470D01*
X025370Y001363D01*
X025370Y001256D01*
X025263Y001149D01*
X025050Y001149D01*
X024943Y001256D01*
X024943Y001470D01*
X025156Y001683D01*
X025370Y001790D01*
X025910Y001470D02*
X026230Y001470D01*
X026337Y001363D01*
X026337Y001256D01*
X026230Y001149D01*
X026017Y001149D01*
X025910Y001256D01*
X025910Y001470D01*
X026123Y001683D01*
X026337Y001790D01*
X026554Y001683D02*
X026554Y001577D01*
X026661Y001470D01*
X026875Y001470D01*
X026981Y001363D01*
X026981Y001256D01*
X026875Y001149D01*
X026661Y001149D01*
X026554Y001256D01*
X026554Y001363D01*
X026661Y001470D01*
X026875Y001470D02*
X026981Y001577D01*
X026981Y001683D01*
X026875Y001790D01*
X026661Y001790D01*
X026554Y001683D01*
X025694Y001256D02*
X025694Y001149D01*
X025587Y001149D01*
X025587Y001256D01*
X025694Y001256D01*
D13*
X030286Y011600D03*
X030759Y011600D03*
X031231Y011600D03*
X031704Y011600D03*
X032176Y011600D03*
X032648Y011600D03*
X033121Y011600D03*
X033593Y011600D03*
X034066Y011600D03*
X034538Y011600D03*
X035011Y011600D03*
X035483Y011600D03*
X035483Y016875D03*
X035011Y016875D03*
X034538Y016875D03*
X034066Y016875D03*
X033593Y016875D03*
X033121Y016875D03*
X032648Y016875D03*
X032176Y016875D03*
X031704Y016875D03*
X031231Y016875D03*
X030759Y016875D03*
X030286Y016875D03*
D14*
X029184Y015852D03*
X029184Y015458D03*
X029184Y014946D03*
X029184Y014474D03*
X029184Y014001D03*
X029184Y013529D03*
X029184Y012978D03*
X029184Y012584D03*
D15*
X029460Y011993D03*
X029460Y016481D03*
D16*
X036940Y016481D03*
X036940Y011993D03*
D17*
X013211Y017430D03*
X013211Y017686D03*
X013211Y017942D03*
X013211Y018198D03*
X013211Y018454D03*
X013211Y018709D03*
X013211Y018965D03*
X013211Y019221D03*
X013211Y019477D03*
X013211Y019733D03*
X013211Y019989D03*
X013211Y020245D03*
X013211Y020501D03*
X013211Y020757D03*
X011006Y020757D03*
X011006Y020501D03*
X011006Y020245D03*
X011006Y019989D03*
X011006Y019733D03*
X011006Y019477D03*
X011006Y019221D03*
X011006Y018965D03*
X011006Y018709D03*
X011006Y018454D03*
X011006Y018198D03*
X011006Y017942D03*
X011006Y017686D03*
X011006Y017430D03*
X010306Y011257D03*
X010306Y011001D03*
X010306Y010745D03*
X010306Y010489D03*
X010306Y010233D03*
X010306Y009977D03*
X010306Y009721D03*
X010306Y009465D03*
X010306Y009209D03*
X010306Y008954D03*
X010306Y008698D03*
X010306Y008442D03*
X010306Y008186D03*
X010306Y007930D03*
X012511Y007930D03*
X012511Y008186D03*
X012511Y008442D03*
X012511Y008698D03*
X012511Y008954D03*
X012511Y009209D03*
X012511Y009465D03*
X012511Y009721D03*
X012511Y009977D03*
X012511Y010233D03*
X012511Y010489D03*
X012511Y010745D03*
X012511Y011001D03*
X012511Y011257D03*
D18*
X011409Y009593D03*
X012109Y019093D03*
D19*
X020560Y017493D03*
X022950Y017493D03*
X022950Y013593D03*
X020560Y013593D03*
D20*
X005773Y009693D03*
X004946Y009693D03*
X004946Y019393D03*
X005773Y019393D03*
D21*
X025225Y011993D03*
X025894Y011993D03*
X030085Y009893D03*
X030834Y009893D03*
X032425Y009893D03*
X033094Y009893D03*
X027094Y015993D03*
X026425Y015993D03*
D22*
X018033Y013393D03*
X014686Y013393D03*
D23*
X024107Y015419D03*
X024107Y015793D03*
X024107Y016167D03*
X025012Y016167D03*
X025012Y015793D03*
X025012Y015419D03*
D24*
X024260Y014528D03*
X024260Y013859D03*
X027160Y014159D03*
X027160Y014828D03*
D25*
X025760Y016912D03*
X025760Y019274D03*
D26*
X025260Y014793D03*
X025260Y013415D03*
D27*
X026160Y013546D03*
X026160Y014041D03*
X026160Y014946D03*
X026160Y012641D03*
M02*
