G75*
%MOIN*%
%OFA0B0*%
%FSLAX24Y24*%
%IPPOS*%
%LPD*%
%AMOC8*
5,1,8,0,0,1.08239X$1,22.5*
%
%ADD10C,0.0000*%
%ADD11C,0.0051*%
%ADD12C,0.0060*%
%ADD13R,0.0966X0.0966*%
%ADD14R,0.0592X0.0671*%
%ADD15C,0.0907*%
%ADD16C,0.0820*%
%ADD17OC8,0.0820*%
%ADD18C,0.1340*%
%ADD19C,0.0556*%
%ADD20C,0.0516*%
%ADD21R,0.0552X0.0671*%
%ADD22R,0.0671X0.0592*%
%ADD23R,0.0480X0.0480*%
D10*
X004160Y004093D02*
X004160Y025093D01*
X044160Y025093D01*
X045160Y024093D01*
X045160Y020093D01*
X046160Y019093D01*
X046160Y005593D01*
X045160Y004593D01*
X045160Y004093D01*
X004160Y004093D01*
X011030Y005093D02*
X011032Y005143D01*
X011038Y005193D01*
X011048Y005242D01*
X011062Y005290D01*
X011079Y005337D01*
X011100Y005382D01*
X011125Y005426D01*
X011153Y005467D01*
X011185Y005506D01*
X011219Y005543D01*
X011256Y005577D01*
X011296Y005607D01*
X011338Y005634D01*
X011382Y005658D01*
X011428Y005679D01*
X011475Y005695D01*
X011523Y005708D01*
X011573Y005717D01*
X011622Y005722D01*
X011673Y005723D01*
X011723Y005720D01*
X011772Y005713D01*
X011821Y005702D01*
X011869Y005687D01*
X011915Y005669D01*
X011960Y005647D01*
X012003Y005621D01*
X012044Y005592D01*
X012083Y005560D01*
X012119Y005525D01*
X012151Y005487D01*
X012181Y005447D01*
X012208Y005404D01*
X012231Y005360D01*
X012250Y005314D01*
X012266Y005266D01*
X012278Y005217D01*
X012286Y005168D01*
X012290Y005118D01*
X012290Y005068D01*
X012286Y005018D01*
X012278Y004969D01*
X012266Y004920D01*
X012250Y004872D01*
X012231Y004826D01*
X012208Y004782D01*
X012181Y004739D01*
X012151Y004699D01*
X012119Y004661D01*
X012083Y004626D01*
X012044Y004594D01*
X012003Y004565D01*
X011960Y004539D01*
X011915Y004517D01*
X011869Y004499D01*
X011821Y004484D01*
X011772Y004473D01*
X011723Y004466D01*
X011673Y004463D01*
X011622Y004464D01*
X011573Y004469D01*
X011523Y004478D01*
X011475Y004491D01*
X011428Y004507D01*
X011382Y004528D01*
X011338Y004552D01*
X011296Y004579D01*
X011256Y004609D01*
X011219Y004643D01*
X011185Y004680D01*
X011153Y004719D01*
X011125Y004760D01*
X011100Y004804D01*
X011079Y004849D01*
X011062Y004896D01*
X011048Y004944D01*
X011038Y004993D01*
X011032Y005043D01*
X011030Y005093D01*
X043530Y005093D02*
X043532Y005143D01*
X043538Y005193D01*
X043548Y005242D01*
X043562Y005290D01*
X043579Y005337D01*
X043600Y005382D01*
X043625Y005426D01*
X043653Y005467D01*
X043685Y005506D01*
X043719Y005543D01*
X043756Y005577D01*
X043796Y005607D01*
X043838Y005634D01*
X043882Y005658D01*
X043928Y005679D01*
X043975Y005695D01*
X044023Y005708D01*
X044073Y005717D01*
X044122Y005722D01*
X044173Y005723D01*
X044223Y005720D01*
X044272Y005713D01*
X044321Y005702D01*
X044369Y005687D01*
X044415Y005669D01*
X044460Y005647D01*
X044503Y005621D01*
X044544Y005592D01*
X044583Y005560D01*
X044619Y005525D01*
X044651Y005487D01*
X044681Y005447D01*
X044708Y005404D01*
X044731Y005360D01*
X044750Y005314D01*
X044766Y005266D01*
X044778Y005217D01*
X044786Y005168D01*
X044790Y005118D01*
X044790Y005068D01*
X044786Y005018D01*
X044778Y004969D01*
X044766Y004920D01*
X044750Y004872D01*
X044731Y004826D01*
X044708Y004782D01*
X044681Y004739D01*
X044651Y004699D01*
X044619Y004661D01*
X044583Y004626D01*
X044544Y004594D01*
X044503Y004565D01*
X044460Y004539D01*
X044415Y004517D01*
X044369Y004499D01*
X044321Y004484D01*
X044272Y004473D01*
X044223Y004466D01*
X044173Y004463D01*
X044122Y004464D01*
X044073Y004469D01*
X044023Y004478D01*
X043975Y004491D01*
X043928Y004507D01*
X043882Y004528D01*
X043838Y004552D01*
X043796Y004579D01*
X043756Y004609D01*
X043719Y004643D01*
X043685Y004680D01*
X043653Y004719D01*
X043625Y004760D01*
X043600Y004804D01*
X043579Y004849D01*
X043562Y004896D01*
X043548Y004944D01*
X043538Y004993D01*
X043532Y005043D01*
X043530Y005093D01*
X041030Y024093D02*
X041032Y024143D01*
X041038Y024193D01*
X041048Y024242D01*
X041062Y024290D01*
X041079Y024337D01*
X041100Y024382D01*
X041125Y024426D01*
X041153Y024467D01*
X041185Y024506D01*
X041219Y024543D01*
X041256Y024577D01*
X041296Y024607D01*
X041338Y024634D01*
X041382Y024658D01*
X041428Y024679D01*
X041475Y024695D01*
X041523Y024708D01*
X041573Y024717D01*
X041622Y024722D01*
X041673Y024723D01*
X041723Y024720D01*
X041772Y024713D01*
X041821Y024702D01*
X041869Y024687D01*
X041915Y024669D01*
X041960Y024647D01*
X042003Y024621D01*
X042044Y024592D01*
X042083Y024560D01*
X042119Y024525D01*
X042151Y024487D01*
X042181Y024447D01*
X042208Y024404D01*
X042231Y024360D01*
X042250Y024314D01*
X042266Y024266D01*
X042278Y024217D01*
X042286Y024168D01*
X042290Y024118D01*
X042290Y024068D01*
X042286Y024018D01*
X042278Y023969D01*
X042266Y023920D01*
X042250Y023872D01*
X042231Y023826D01*
X042208Y023782D01*
X042181Y023739D01*
X042151Y023699D01*
X042119Y023661D01*
X042083Y023626D01*
X042044Y023594D01*
X042003Y023565D01*
X041960Y023539D01*
X041915Y023517D01*
X041869Y023499D01*
X041821Y023484D01*
X041772Y023473D01*
X041723Y023466D01*
X041673Y023463D01*
X041622Y023464D01*
X041573Y023469D01*
X041523Y023478D01*
X041475Y023491D01*
X041428Y023507D01*
X041382Y023528D01*
X041338Y023552D01*
X041296Y023579D01*
X041256Y023609D01*
X041219Y023643D01*
X041185Y023680D01*
X041153Y023719D01*
X041125Y023760D01*
X041100Y023804D01*
X041079Y023849D01*
X041062Y023896D01*
X041048Y023944D01*
X041038Y023993D01*
X041032Y024043D01*
X041030Y024093D01*
X011530Y024093D02*
X011532Y024143D01*
X011538Y024193D01*
X011548Y024242D01*
X011562Y024290D01*
X011579Y024337D01*
X011600Y024382D01*
X011625Y024426D01*
X011653Y024467D01*
X011685Y024506D01*
X011719Y024543D01*
X011756Y024577D01*
X011796Y024607D01*
X011838Y024634D01*
X011882Y024658D01*
X011928Y024679D01*
X011975Y024695D01*
X012023Y024708D01*
X012073Y024717D01*
X012122Y024722D01*
X012173Y024723D01*
X012223Y024720D01*
X012272Y024713D01*
X012321Y024702D01*
X012369Y024687D01*
X012415Y024669D01*
X012460Y024647D01*
X012503Y024621D01*
X012544Y024592D01*
X012583Y024560D01*
X012619Y024525D01*
X012651Y024487D01*
X012681Y024447D01*
X012708Y024404D01*
X012731Y024360D01*
X012750Y024314D01*
X012766Y024266D01*
X012778Y024217D01*
X012786Y024168D01*
X012790Y024118D01*
X012790Y024068D01*
X012786Y024018D01*
X012778Y023969D01*
X012766Y023920D01*
X012750Y023872D01*
X012731Y023826D01*
X012708Y023782D01*
X012681Y023739D01*
X012651Y023699D01*
X012619Y023661D01*
X012583Y023626D01*
X012544Y023594D01*
X012503Y023565D01*
X012460Y023539D01*
X012415Y023517D01*
X012369Y023499D01*
X012321Y023484D01*
X012272Y023473D01*
X012223Y023466D01*
X012173Y023463D01*
X012122Y023464D01*
X012073Y023469D01*
X012023Y023478D01*
X011975Y023491D01*
X011928Y023507D01*
X011882Y023528D01*
X011838Y023552D01*
X011796Y023579D01*
X011756Y023609D01*
X011719Y023643D01*
X011685Y023680D01*
X011653Y023719D01*
X011625Y023760D01*
X011600Y023804D01*
X011579Y023849D01*
X011562Y023896D01*
X011548Y023944D01*
X011538Y023993D01*
X011532Y024043D01*
X011530Y024093D01*
D11*
X004160Y004093D02*
X004160Y000126D01*
X004185Y000893D02*
X005183Y000791D01*
X005183Y000768D02*
X004185Y000893D01*
X005183Y000996D01*
X005183Y001019D02*
X005183Y000768D01*
X005183Y000842D02*
X004185Y000893D01*
X005183Y000944D01*
X005183Y001019D02*
X004185Y000893D01*
X046134Y000893D01*
X045136Y000791D01*
X045136Y000768D02*
X046134Y000893D01*
X045136Y000996D01*
X045136Y001019D02*
X045136Y000768D01*
X045136Y000842D02*
X046134Y000893D01*
X045136Y000944D01*
X045136Y001019D02*
X046134Y000893D01*
X046160Y000126D02*
X046160Y004893D01*
X004160Y004093D02*
X000492Y004093D01*
X001260Y004119D02*
X001362Y005117D01*
X001385Y005117D02*
X001260Y004119D01*
X001157Y005117D01*
X001134Y005117D02*
X001385Y005117D01*
X001311Y005117D02*
X001260Y004119D01*
X001208Y005117D01*
X001134Y005117D02*
X001260Y004119D01*
X001260Y025068D01*
X001362Y024070D01*
X001385Y024070D02*
X001260Y025068D01*
X001157Y024070D01*
X001134Y024070D02*
X001385Y024070D01*
X001311Y024070D02*
X001260Y025068D01*
X001208Y024070D01*
X001134Y024070D02*
X001260Y025068D01*
X000492Y025093D02*
X002560Y025093D01*
D12*
X000683Y016050D02*
X000683Y015623D01*
X000363Y015943D01*
X001003Y015943D01*
X000897Y015405D02*
X001003Y015299D01*
X001003Y015085D01*
X000897Y014978D01*
X000897Y014763D02*
X001003Y014763D01*
X001003Y014656D01*
X000897Y014656D01*
X000897Y014763D01*
X000897Y014439D02*
X001003Y014332D01*
X001003Y014118D01*
X000897Y014012D01*
X000897Y013794D02*
X001003Y013687D01*
X001003Y013474D01*
X000897Y013367D01*
X000683Y013367D02*
X000576Y013581D01*
X000576Y013687D01*
X000683Y013794D01*
X000897Y013794D01*
X000470Y014012D02*
X000363Y014118D01*
X000363Y014332D01*
X000470Y014439D01*
X000576Y014439D01*
X000683Y014332D01*
X000790Y014439D01*
X000897Y014439D01*
X000683Y014332D02*
X000683Y014225D01*
X000363Y013794D02*
X000363Y013367D01*
X000683Y013367D01*
X000470Y014978D02*
X000363Y015085D01*
X000363Y015299D01*
X000470Y015405D01*
X000576Y015405D01*
X000683Y015299D01*
X000790Y015405D01*
X000897Y015405D01*
X000683Y015299D02*
X000683Y015192D01*
X023654Y001577D02*
X023867Y001790D01*
X023867Y001149D01*
X023654Y001149D02*
X024081Y001149D01*
X024298Y001256D02*
X024725Y001683D01*
X024725Y001256D01*
X024619Y001149D01*
X024405Y001149D01*
X024298Y001256D01*
X024298Y001683D01*
X024405Y001790D01*
X024619Y001790D01*
X024725Y001683D01*
X024943Y001470D02*
X025263Y001470D01*
X025370Y001363D01*
X025370Y001256D01*
X025263Y001149D01*
X025050Y001149D01*
X024943Y001256D01*
X024943Y001470D01*
X025156Y001683D01*
X025370Y001790D01*
X025910Y001470D02*
X026230Y001470D01*
X026337Y001363D01*
X026337Y001256D01*
X026230Y001149D01*
X026017Y001149D01*
X025910Y001256D01*
X025910Y001470D01*
X026123Y001683D01*
X026337Y001790D01*
X026554Y001683D02*
X026554Y001577D01*
X026661Y001470D01*
X026875Y001470D01*
X026981Y001363D01*
X026981Y001256D01*
X026875Y001149D01*
X026661Y001149D01*
X026554Y001256D01*
X026554Y001363D01*
X026661Y001470D01*
X026875Y001470D02*
X026981Y001577D01*
X026981Y001683D01*
X026875Y001790D01*
X026661Y001790D01*
X026554Y001683D01*
X025694Y001256D02*
X025694Y001149D01*
X025587Y001149D01*
X025587Y001256D01*
X025694Y001256D01*
D13*
X016457Y006393D03*
X014457Y006393D03*
D14*
X012484Y006823D03*
X011815Y006823D03*
X007094Y007493D03*
X006425Y007493D03*
X006425Y011493D03*
X007094Y011493D03*
X010725Y012493D03*
X011394Y012493D03*
X011394Y013393D03*
X010725Y013393D03*
X010725Y014293D03*
X011394Y014293D03*
X011975Y016363D03*
X012644Y016363D03*
X014925Y016393D03*
X015594Y016393D03*
X015594Y017193D03*
X014925Y017193D03*
X014925Y017993D03*
X015594Y017993D03*
X015525Y019293D03*
X016194Y019293D03*
X011994Y021893D03*
X011325Y021893D03*
X010394Y022593D03*
X009725Y022593D03*
X009725Y023393D03*
X010394Y023393D03*
X006994Y021293D03*
X006325Y021293D03*
X006425Y017393D03*
X007094Y017393D03*
X018225Y007893D03*
X018894Y007893D03*
X018894Y006993D03*
X018225Y006993D03*
X018025Y006093D03*
X018694Y006093D03*
X017994Y005093D03*
X017325Y005093D03*
D15*
X007860Y006493D03*
X007860Y008493D03*
X007860Y010493D03*
X007860Y012493D03*
X007860Y016293D03*
X007860Y018293D03*
X007860Y020293D03*
X007860Y022293D03*
D16*
X015560Y024093D03*
X016560Y024093D03*
X017560Y024093D03*
X018560Y024093D03*
X019560Y024093D03*
X020560Y024093D03*
X021560Y024093D03*
X022560Y024093D03*
X024160Y024093D03*
X025160Y024093D03*
X026160Y024093D03*
X027160Y024093D03*
X028160Y024093D03*
X029160Y024093D03*
X030160Y024093D03*
X031160Y024093D03*
X033160Y024093D03*
X034160Y024093D03*
X035160Y024093D03*
X036160Y024093D03*
X037160Y024093D03*
X038160Y024093D03*
X039160Y024093D03*
X040160Y024093D03*
X043160Y024093D03*
X044160Y024093D03*
X044160Y007093D03*
X043160Y007093D03*
X042160Y005093D03*
X041160Y005093D03*
X040160Y005093D03*
X039160Y005093D03*
X038160Y005093D03*
X037160Y005093D03*
X036160Y005093D03*
X035160Y005093D03*
X033160Y005093D03*
X032160Y005093D03*
X031160Y005093D03*
X030160Y005093D03*
X029160Y005093D03*
X028160Y005093D03*
X027160Y005093D03*
X026160Y005093D03*
X024160Y005093D03*
X023160Y005093D03*
X022160Y005093D03*
X021160Y005093D03*
X020160Y005093D03*
X019160Y005093D03*
D17*
X043160Y008093D03*
X044160Y008093D03*
X044160Y009093D03*
X043160Y009093D03*
X043160Y010093D03*
X044160Y010093D03*
X044160Y011093D03*
X043160Y011093D03*
X043160Y012093D03*
X044160Y012093D03*
X044160Y013093D03*
X043160Y013093D03*
X043160Y014093D03*
X044160Y014093D03*
X044160Y015093D03*
X043160Y015093D03*
X043160Y016093D03*
X044160Y016093D03*
X044160Y017093D03*
X043160Y017093D03*
X043160Y018093D03*
X044160Y018093D03*
X044160Y019093D03*
X043160Y019093D03*
X043160Y020093D03*
X044160Y020093D03*
X044160Y021093D03*
X043160Y021093D03*
X043160Y022093D03*
X044160Y022093D03*
X044160Y023093D03*
X043160Y023093D03*
D18*
X041660Y024093D03*
X012160Y024093D03*
X011660Y005093D03*
X044160Y005093D03*
D19*
X031934Y021693D03*
X031147Y021693D03*
X030360Y021693D03*
X028347Y021693D03*
X027560Y021693D03*
D20*
X019360Y018393D03*
X018360Y017393D03*
X017360Y018393D03*
X016560Y009693D03*
X017560Y008693D03*
X018560Y009693D03*
D21*
X030760Y012722D03*
X030760Y013864D03*
X031660Y014622D03*
X032560Y014622D03*
X032560Y015764D03*
X031660Y015764D03*
D22*
X031660Y013628D03*
X032560Y013628D03*
X032560Y012959D03*
X031660Y012959D03*
X009360Y006528D03*
X009360Y005859D03*
X009260Y016859D03*
X009260Y017528D03*
D23*
X010160Y017593D03*
X011740Y018343D03*
X012440Y018343D03*
X012440Y018843D03*
X011740Y018843D03*
X011740Y019343D03*
X012440Y019343D03*
X012440Y019843D03*
X011740Y019843D03*
X011894Y020928D03*
X011225Y021175D03*
X010460Y021759D03*
X009825Y021028D03*
X008060Y021293D03*
X006670Y020233D03*
X004870Y021433D03*
X004870Y023233D03*
X007870Y024333D03*
X013870Y024233D03*
X019560Y021393D03*
X021570Y022233D03*
X024670Y022333D03*
X028670Y022933D03*
X029360Y021493D03*
X032060Y023193D03*
X033870Y022133D03*
X037160Y022293D03*
X038160Y022293D03*
X038970Y022033D03*
X040060Y022093D03*
X041160Y022593D03*
X041460Y019993D03*
X040960Y019793D03*
X035360Y019843D03*
X034260Y019293D03*
X030260Y018393D03*
X029360Y018593D03*
X028270Y018533D03*
X030760Y016193D03*
X033260Y014693D03*
X035460Y015293D03*
X035360Y013093D03*
X033160Y012993D03*
X031660Y012193D03*
X029860Y012993D03*
X027320Y012233D03*
X028110Y011393D03*
X028460Y010393D03*
X029160Y009793D03*
X030260Y010893D03*
X030760Y010993D03*
X026360Y010593D03*
X025060Y011093D03*
X024460Y011293D03*
X023670Y011493D03*
X022460Y011993D03*
X024260Y013093D03*
X026160Y014493D03*
X025600Y015803D03*
X023360Y016193D03*
X023360Y015393D03*
X020560Y015793D03*
X018160Y016593D03*
X016460Y018093D03*
X018370Y018333D03*
X019560Y019993D03*
X016260Y019993D03*
X014060Y020603D03*
X014060Y019293D03*
X014160Y017793D03*
X013960Y017193D03*
X013200Y017043D03*
X012140Y017743D03*
X013860Y016093D03*
X015560Y015733D03*
X013270Y013833D03*
X013270Y013033D03*
X013370Y012133D03*
X012060Y011833D03*
X011390Y011843D03*
X010360Y011693D03*
X009360Y012593D03*
X007660Y011493D03*
X004970Y011533D03*
X006670Y013433D03*
X004970Y013733D03*
X004970Y015533D03*
X008160Y017393D03*
X006670Y018633D03*
X004960Y018793D03*
X008660Y015793D03*
X010860Y015793D03*
X014860Y012493D03*
X014860Y011793D03*
X014860Y011093D03*
X014910Y010533D03*
X014790Y009953D03*
X014860Y009293D03*
X013860Y008793D03*
X013560Y008293D03*
X013560Y007593D03*
X012560Y007593D03*
X011760Y008813D03*
X011740Y009333D03*
X011030Y009303D03*
X011000Y008803D03*
X011040Y009883D03*
X011030Y010363D03*
X011790Y010353D03*
X011770Y009883D03*
X009360Y007393D03*
X007660Y007493D03*
X004860Y009093D03*
X007960Y005393D03*
X016460Y005093D03*
X022460Y008393D03*
X023960Y009393D03*
X025360Y008793D03*
X020060Y009993D03*
X018860Y008793D03*
X034160Y006593D03*
M02*
