G75*
%MOIN*%
%OFA0B0*%
%FSLAX24Y24*%
%IPPOS*%
%LPD*%
%AMOC8*
5,1,8,0,0,1.08239X$1,22.5*
%
%ADD10C,0.0060*%
%ADD11C,0.0000*%
%ADD12C,0.0051*%
%ADD13R,0.0315X0.0512*%
%ADD14R,0.0512X0.0315*%
%ADD15R,0.0551X0.0709*%
%ADD16R,0.0551X0.0984*%
%ADD17R,0.0610X0.0098*%
%ADD18R,0.1220X0.2039*%
%ADD19R,0.1110X0.0620*%
%ADD20R,0.0886X0.0886*%
%ADD21C,0.0827*%
%ADD22C,0.0740*%
%ADD23OC8,0.0740*%
%ADD24C,0.0476*%
%ADD25R,0.0472X0.0472*%
%ADD26R,0.0512X0.0591*%
%ADD27C,0.0436*%
%ADD28R,0.1535X0.0630*%
%ADD29R,0.0354X0.0236*%
%ADD30R,0.0591X0.0512*%
%ADD31R,0.0669X0.0787*%
%ADD32R,0.0787X0.0591*%
%ADD33R,0.0327X0.0248*%
%ADD34C,0.0100*%
%ADD35C,0.0160*%
%ADD36R,0.0400X0.0400*%
%ADD37C,0.0120*%
%ADD38C,0.0240*%
%ADD39C,0.0660*%
D10*
X023654Y001149D02*
X024081Y001149D01*
X023867Y001149D02*
X023867Y001790D01*
X023654Y001577D01*
X024298Y001683D02*
X024405Y001790D01*
X024619Y001790D01*
X024725Y001683D01*
X024298Y001256D01*
X024405Y001149D01*
X024619Y001149D01*
X024725Y001256D01*
X024725Y001683D01*
X024943Y001470D02*
X025263Y001470D01*
X025370Y001363D01*
X025370Y001256D01*
X025263Y001149D01*
X025050Y001149D01*
X024943Y001256D01*
X024943Y001470D01*
X025156Y001683D01*
X025370Y001790D01*
X025910Y001470D02*
X026230Y001470D01*
X026337Y001363D01*
X026337Y001256D01*
X026230Y001149D01*
X026017Y001149D01*
X025910Y001256D01*
X025910Y001470D01*
X026123Y001683D01*
X026337Y001790D01*
X026554Y001683D02*
X026554Y001577D01*
X026661Y001470D01*
X026875Y001470D01*
X026981Y001363D01*
X026981Y001256D01*
X026875Y001149D01*
X026661Y001149D01*
X026554Y001256D01*
X026554Y001363D01*
X026661Y001470D01*
X026875Y001470D02*
X026981Y001577D01*
X026981Y001683D01*
X026875Y001790D01*
X026661Y001790D01*
X026554Y001683D01*
X025694Y001256D02*
X025694Y001149D01*
X025587Y001149D01*
X025587Y001256D01*
X025694Y001256D01*
X024298Y001256D02*
X024298Y001683D01*
X001003Y013474D02*
X000897Y013367D01*
X001003Y013474D02*
X001003Y013687D01*
X000897Y013794D01*
X000683Y013794D01*
X000576Y013687D01*
X000576Y013581D01*
X000683Y013367D01*
X000363Y013367D01*
X000363Y013794D01*
X000470Y014012D02*
X000363Y014118D01*
X000363Y014332D01*
X000470Y014439D01*
X000576Y014439D01*
X000683Y014332D01*
X000790Y014439D01*
X000897Y014439D01*
X001003Y014332D01*
X001003Y014118D01*
X000897Y014012D01*
X000683Y014225D02*
X000683Y014332D01*
X000897Y014656D02*
X000897Y014763D01*
X001003Y014763D01*
X001003Y014656D01*
X000897Y014656D01*
X000897Y014978D02*
X001003Y015085D01*
X001003Y015299D01*
X000897Y015405D01*
X000790Y015405D01*
X000683Y015299D01*
X000683Y015192D01*
X000683Y015299D02*
X000576Y015405D01*
X000470Y015405D01*
X000363Y015299D01*
X000363Y015085D01*
X000470Y014978D01*
X000683Y015623D02*
X000683Y016050D01*
X000363Y015943D02*
X000683Y015623D01*
X001003Y015943D02*
X000363Y015943D01*
X033290Y017923D02*
X033290Y018564D01*
X033610Y018564D01*
X033717Y018457D01*
X033717Y018244D01*
X033610Y018137D01*
X033290Y018137D01*
X033503Y018137D02*
X033717Y017923D01*
X033934Y018030D02*
X033934Y018244D01*
X034041Y018350D01*
X034254Y018350D01*
X034361Y018244D01*
X034361Y018137D01*
X033934Y018137D01*
X033934Y018030D02*
X034041Y017923D01*
X034254Y017923D01*
X034579Y018350D02*
X034792Y017923D01*
X035006Y018350D01*
X035868Y018457D02*
X035868Y018030D01*
X035974Y017923D01*
X036188Y017923D01*
X036295Y018030D01*
X036295Y018457D02*
X036188Y018564D01*
X035974Y018564D01*
X035868Y018457D01*
D11*
X045160Y020093D02*
X045160Y024093D01*
X044160Y025093D01*
X004160Y025093D01*
X004160Y004093D01*
X045160Y004093D01*
X045160Y004593D01*
X046160Y005593D01*
X046160Y019093D01*
X045160Y020093D01*
X041030Y024093D02*
X041032Y024143D01*
X041038Y024193D01*
X041048Y024242D01*
X041062Y024290D01*
X041079Y024337D01*
X041100Y024382D01*
X041125Y024426D01*
X041153Y024467D01*
X041185Y024506D01*
X041219Y024543D01*
X041256Y024577D01*
X041296Y024607D01*
X041338Y024634D01*
X041382Y024658D01*
X041428Y024679D01*
X041475Y024695D01*
X041523Y024708D01*
X041573Y024717D01*
X041622Y024722D01*
X041673Y024723D01*
X041723Y024720D01*
X041772Y024713D01*
X041821Y024702D01*
X041869Y024687D01*
X041915Y024669D01*
X041960Y024647D01*
X042003Y024621D01*
X042044Y024592D01*
X042083Y024560D01*
X042119Y024525D01*
X042151Y024487D01*
X042181Y024447D01*
X042208Y024404D01*
X042231Y024360D01*
X042250Y024314D01*
X042266Y024266D01*
X042278Y024217D01*
X042286Y024168D01*
X042290Y024118D01*
X042290Y024068D01*
X042286Y024018D01*
X042278Y023969D01*
X042266Y023920D01*
X042250Y023872D01*
X042231Y023826D01*
X042208Y023782D01*
X042181Y023739D01*
X042151Y023699D01*
X042119Y023661D01*
X042083Y023626D01*
X042044Y023594D01*
X042003Y023565D01*
X041960Y023539D01*
X041915Y023517D01*
X041869Y023499D01*
X041821Y023484D01*
X041772Y023473D01*
X041723Y023466D01*
X041673Y023463D01*
X041622Y023464D01*
X041573Y023469D01*
X041523Y023478D01*
X041475Y023491D01*
X041428Y023507D01*
X041382Y023528D01*
X041338Y023552D01*
X041296Y023579D01*
X041256Y023609D01*
X041219Y023643D01*
X041185Y023680D01*
X041153Y023719D01*
X041125Y023760D01*
X041100Y023804D01*
X041079Y023849D01*
X041062Y023896D01*
X041048Y023944D01*
X041038Y023993D01*
X041032Y024043D01*
X041030Y024093D01*
X011530Y024093D02*
X011532Y024143D01*
X011538Y024193D01*
X011548Y024242D01*
X011562Y024290D01*
X011579Y024337D01*
X011600Y024382D01*
X011625Y024426D01*
X011653Y024467D01*
X011685Y024506D01*
X011719Y024543D01*
X011756Y024577D01*
X011796Y024607D01*
X011838Y024634D01*
X011882Y024658D01*
X011928Y024679D01*
X011975Y024695D01*
X012023Y024708D01*
X012073Y024717D01*
X012122Y024722D01*
X012173Y024723D01*
X012223Y024720D01*
X012272Y024713D01*
X012321Y024702D01*
X012369Y024687D01*
X012415Y024669D01*
X012460Y024647D01*
X012503Y024621D01*
X012544Y024592D01*
X012583Y024560D01*
X012619Y024525D01*
X012651Y024487D01*
X012681Y024447D01*
X012708Y024404D01*
X012731Y024360D01*
X012750Y024314D01*
X012766Y024266D01*
X012778Y024217D01*
X012786Y024168D01*
X012790Y024118D01*
X012790Y024068D01*
X012786Y024018D01*
X012778Y023969D01*
X012766Y023920D01*
X012750Y023872D01*
X012731Y023826D01*
X012708Y023782D01*
X012681Y023739D01*
X012651Y023699D01*
X012619Y023661D01*
X012583Y023626D01*
X012544Y023594D01*
X012503Y023565D01*
X012460Y023539D01*
X012415Y023517D01*
X012369Y023499D01*
X012321Y023484D01*
X012272Y023473D01*
X012223Y023466D01*
X012173Y023463D01*
X012122Y023464D01*
X012073Y023469D01*
X012023Y023478D01*
X011975Y023491D01*
X011928Y023507D01*
X011882Y023528D01*
X011838Y023552D01*
X011796Y023579D01*
X011756Y023609D01*
X011719Y023643D01*
X011685Y023680D01*
X011653Y023719D01*
X011625Y023760D01*
X011600Y023804D01*
X011579Y023849D01*
X011562Y023896D01*
X011548Y023944D01*
X011538Y023993D01*
X011532Y024043D01*
X011530Y024093D01*
X011030Y005093D02*
X011032Y005143D01*
X011038Y005193D01*
X011048Y005242D01*
X011062Y005290D01*
X011079Y005337D01*
X011100Y005382D01*
X011125Y005426D01*
X011153Y005467D01*
X011185Y005506D01*
X011219Y005543D01*
X011256Y005577D01*
X011296Y005607D01*
X011338Y005634D01*
X011382Y005658D01*
X011428Y005679D01*
X011475Y005695D01*
X011523Y005708D01*
X011573Y005717D01*
X011622Y005722D01*
X011673Y005723D01*
X011723Y005720D01*
X011772Y005713D01*
X011821Y005702D01*
X011869Y005687D01*
X011915Y005669D01*
X011960Y005647D01*
X012003Y005621D01*
X012044Y005592D01*
X012083Y005560D01*
X012119Y005525D01*
X012151Y005487D01*
X012181Y005447D01*
X012208Y005404D01*
X012231Y005360D01*
X012250Y005314D01*
X012266Y005266D01*
X012278Y005217D01*
X012286Y005168D01*
X012290Y005118D01*
X012290Y005068D01*
X012286Y005018D01*
X012278Y004969D01*
X012266Y004920D01*
X012250Y004872D01*
X012231Y004826D01*
X012208Y004782D01*
X012181Y004739D01*
X012151Y004699D01*
X012119Y004661D01*
X012083Y004626D01*
X012044Y004594D01*
X012003Y004565D01*
X011960Y004539D01*
X011915Y004517D01*
X011869Y004499D01*
X011821Y004484D01*
X011772Y004473D01*
X011723Y004466D01*
X011673Y004463D01*
X011622Y004464D01*
X011573Y004469D01*
X011523Y004478D01*
X011475Y004491D01*
X011428Y004507D01*
X011382Y004528D01*
X011338Y004552D01*
X011296Y004579D01*
X011256Y004609D01*
X011219Y004643D01*
X011185Y004680D01*
X011153Y004719D01*
X011125Y004760D01*
X011100Y004804D01*
X011079Y004849D01*
X011062Y004896D01*
X011048Y004944D01*
X011038Y004993D01*
X011032Y005043D01*
X011030Y005093D01*
X043530Y005093D02*
X043532Y005143D01*
X043538Y005193D01*
X043548Y005242D01*
X043562Y005290D01*
X043579Y005337D01*
X043600Y005382D01*
X043625Y005426D01*
X043653Y005467D01*
X043685Y005506D01*
X043719Y005543D01*
X043756Y005577D01*
X043796Y005607D01*
X043838Y005634D01*
X043882Y005658D01*
X043928Y005679D01*
X043975Y005695D01*
X044023Y005708D01*
X044073Y005717D01*
X044122Y005722D01*
X044173Y005723D01*
X044223Y005720D01*
X044272Y005713D01*
X044321Y005702D01*
X044369Y005687D01*
X044415Y005669D01*
X044460Y005647D01*
X044503Y005621D01*
X044544Y005592D01*
X044583Y005560D01*
X044619Y005525D01*
X044651Y005487D01*
X044681Y005447D01*
X044708Y005404D01*
X044731Y005360D01*
X044750Y005314D01*
X044766Y005266D01*
X044778Y005217D01*
X044786Y005168D01*
X044790Y005118D01*
X044790Y005068D01*
X044786Y005018D01*
X044778Y004969D01*
X044766Y004920D01*
X044750Y004872D01*
X044731Y004826D01*
X044708Y004782D01*
X044681Y004739D01*
X044651Y004699D01*
X044619Y004661D01*
X044583Y004626D01*
X044544Y004594D01*
X044503Y004565D01*
X044460Y004539D01*
X044415Y004517D01*
X044369Y004499D01*
X044321Y004484D01*
X044272Y004473D01*
X044223Y004466D01*
X044173Y004463D01*
X044122Y004464D01*
X044073Y004469D01*
X044023Y004478D01*
X043975Y004491D01*
X043928Y004507D01*
X043882Y004528D01*
X043838Y004552D01*
X043796Y004579D01*
X043756Y004609D01*
X043719Y004643D01*
X043685Y004680D01*
X043653Y004719D01*
X043625Y004760D01*
X043600Y004804D01*
X043579Y004849D01*
X043562Y004896D01*
X043548Y004944D01*
X043538Y004993D01*
X043532Y005043D01*
X043530Y005093D01*
D12*
X004160Y004093D02*
X004160Y000126D01*
X004185Y000893D02*
X005183Y000791D01*
X005183Y000768D02*
X004185Y000893D01*
X005183Y000996D01*
X005183Y001019D02*
X005183Y000768D01*
X005183Y000842D02*
X004185Y000893D01*
X005183Y000944D01*
X005183Y001019D02*
X004185Y000893D01*
X046134Y000893D01*
X045136Y000791D01*
X045136Y000768D02*
X046134Y000893D01*
X045136Y000996D01*
X045136Y001019D02*
X045136Y000768D01*
X045136Y000842D02*
X046134Y000893D01*
X045136Y000944D01*
X045136Y001019D02*
X046134Y000893D01*
X046160Y000126D02*
X046160Y004893D01*
X004160Y004093D02*
X000492Y004093D01*
X001260Y004119D02*
X001362Y005117D01*
X001385Y005117D02*
X001260Y004119D01*
X001157Y005117D01*
X001134Y005117D02*
X001385Y005117D01*
X001311Y005117D02*
X001260Y004119D01*
X001208Y005117D01*
X001134Y005117D02*
X001260Y004119D01*
X001260Y025068D01*
X001362Y024070D01*
X001385Y024070D02*
X001260Y025068D01*
X001157Y024070D01*
X001134Y024070D02*
X001385Y024070D01*
X001311Y024070D02*
X001260Y025068D01*
X001208Y024070D01*
X001134Y024070D02*
X001260Y025068D01*
X000492Y025093D02*
X002560Y025093D01*
D13*
X030286Y016875D03*
X030759Y016875D03*
X031231Y016875D03*
X031704Y016875D03*
X032176Y016875D03*
X032648Y016875D03*
X033121Y016875D03*
X033593Y016875D03*
X034066Y016875D03*
X034538Y016875D03*
X035011Y016875D03*
X035483Y016875D03*
X035483Y011600D03*
X035011Y011600D03*
X034538Y011600D03*
X034066Y011600D03*
X033593Y011600D03*
X033121Y011600D03*
X032648Y011600D03*
X032176Y011600D03*
X031704Y011600D03*
X031231Y011600D03*
X030759Y011600D03*
X030286Y011600D03*
D14*
X029184Y012584D03*
X029184Y012978D03*
X029184Y013529D03*
X029184Y014001D03*
X029184Y014474D03*
X029184Y014946D03*
X029184Y015458D03*
X029184Y015852D03*
D15*
X029460Y016481D03*
X029460Y011993D03*
D16*
X036940Y011993D03*
X036940Y016481D03*
D17*
X013211Y017430D03*
X013211Y017686D03*
X013211Y017942D03*
X013211Y018198D03*
X013211Y018454D03*
X013211Y018709D03*
X013211Y018965D03*
X013211Y019221D03*
X013211Y019477D03*
X013211Y019733D03*
X013211Y019989D03*
X013211Y020245D03*
X013211Y020501D03*
X013211Y020757D03*
X011006Y020757D03*
X011006Y020501D03*
X011006Y020245D03*
X011006Y019989D03*
X011006Y019733D03*
X011006Y019477D03*
X011006Y019221D03*
X011006Y018965D03*
X011006Y018709D03*
X011006Y018454D03*
X011006Y018198D03*
X011006Y017942D03*
X011006Y017686D03*
X011006Y017430D03*
X010306Y011257D03*
X010306Y011001D03*
X010306Y010745D03*
X010306Y010489D03*
X010306Y010233D03*
X010306Y009977D03*
X010306Y009721D03*
X010306Y009465D03*
X010306Y009209D03*
X010306Y008954D03*
X010306Y008698D03*
X010306Y008442D03*
X010306Y008186D03*
X010306Y007930D03*
X012511Y007930D03*
X012511Y008186D03*
X012511Y008442D03*
X012511Y008698D03*
X012511Y008954D03*
X012511Y009209D03*
X012511Y009465D03*
X012511Y009721D03*
X012511Y009977D03*
X012511Y010233D03*
X012511Y010489D03*
X012511Y010745D03*
X012511Y011001D03*
X012511Y011257D03*
D18*
X011409Y009593D03*
X012109Y019093D03*
D19*
X020560Y017493D03*
X022950Y017493D03*
X022950Y013593D03*
X020560Y013593D03*
D20*
X016457Y006393D03*
X014457Y006393D03*
D21*
X007860Y006493D03*
X007860Y008493D03*
X007860Y010493D03*
X007860Y012493D03*
X007860Y016293D03*
X007860Y018293D03*
X007860Y020293D03*
X007860Y022293D03*
D22*
X015560Y024093D03*
X016560Y024093D03*
X017560Y024093D03*
X018560Y024093D03*
X019560Y024093D03*
X020560Y024093D03*
X021560Y024093D03*
X022560Y024093D03*
X024160Y024093D03*
X025160Y024093D03*
X026160Y024093D03*
X027160Y024093D03*
X028160Y024093D03*
X029160Y024093D03*
X030160Y024093D03*
X031160Y024093D03*
X033160Y024093D03*
X034160Y024093D03*
X035160Y024093D03*
X036160Y024093D03*
X037160Y024093D03*
X038160Y024093D03*
X039160Y024093D03*
X040160Y024093D03*
X043160Y024093D03*
X044160Y024093D03*
X044160Y007093D03*
X043160Y007093D03*
X042160Y005093D03*
X041160Y005093D03*
X040160Y005093D03*
X039160Y005093D03*
X038160Y005093D03*
X037160Y005093D03*
X036160Y005093D03*
X035160Y005093D03*
X033160Y005093D03*
X032160Y005093D03*
X031160Y005093D03*
X030160Y005093D03*
X029160Y005093D03*
X028160Y005093D03*
X027160Y005093D03*
X026160Y005093D03*
X024160Y005093D03*
X023160Y005093D03*
X022160Y005093D03*
X021160Y005093D03*
X020160Y005093D03*
X019160Y005093D03*
D23*
X043160Y008093D03*
X044160Y008093D03*
X044160Y009093D03*
X043160Y009093D03*
X043160Y010093D03*
X044160Y010093D03*
X044160Y011093D03*
X043160Y011093D03*
X043160Y012093D03*
X044160Y012093D03*
X044160Y013093D03*
X043160Y013093D03*
X043160Y014093D03*
X044160Y014093D03*
X044160Y015093D03*
X043160Y015093D03*
X043160Y016093D03*
X044160Y016093D03*
X044160Y017093D03*
X043160Y017093D03*
X043160Y018093D03*
X044160Y018093D03*
X044160Y019093D03*
X043160Y019093D03*
X043160Y020093D03*
X044160Y020093D03*
X044160Y021093D03*
X043160Y021093D03*
X043160Y022093D03*
X044160Y022093D03*
X044160Y023093D03*
X043160Y023093D03*
D24*
X031934Y021693D03*
X031147Y021693D03*
X030360Y021693D03*
X028347Y021693D03*
X027560Y021693D03*
D25*
X005773Y019393D03*
X004946Y019393D03*
X004946Y009693D03*
X005773Y009693D03*
D26*
X025225Y011993D03*
X025894Y011993D03*
X030085Y009893D03*
X030834Y009893D03*
X032425Y009893D03*
X033094Y009893D03*
X027094Y015993D03*
X026425Y015993D03*
D27*
X019360Y018393D03*
X018360Y017393D03*
X017360Y018393D03*
X016560Y009693D03*
X017560Y008693D03*
X018560Y009693D03*
D28*
X018033Y013393D03*
X014686Y013393D03*
D29*
X024107Y015419D03*
X024107Y015793D03*
X024107Y016167D03*
X025012Y016167D03*
X025012Y015793D03*
X025012Y015419D03*
D30*
X024260Y014528D03*
X024260Y013859D03*
X027160Y014159D03*
X027160Y014828D03*
D31*
X025760Y016912D03*
X025760Y019274D03*
D32*
X025260Y014793D03*
X025260Y013415D03*
D33*
X026160Y013546D03*
X026160Y014041D03*
X026160Y014946D03*
X026160Y012641D03*
D34*
X026160Y012693D01*
X026160Y011993D02*
X025894Y011993D01*
X025340Y011453D02*
X024740Y011453D01*
X024560Y011293D01*
X024460Y011293D01*
X023670Y011493D02*
X023670Y010663D01*
X024260Y009993D01*
X027060Y009993D01*
X028780Y008273D01*
X028770Y008273D01*
X028780Y008273D02*
X033420Y008273D01*
X034260Y007493D01*
X041870Y007493D01*
X042360Y007973D01*
X042360Y018193D01*
X042650Y018593D01*
X044450Y018593D01*
X044860Y019093D01*
X044860Y019893D01*
X044560Y020093D01*
X044160Y020093D01*
X043800Y020593D02*
X044160Y021093D01*
X043800Y020593D02*
X042290Y020593D01*
X041860Y019803D01*
X041860Y008693D01*
X041460Y008293D01*
X034360Y008293D01*
X033870Y008763D01*
X029170Y008763D01*
X026860Y011093D01*
X025060Y011093D01*
X025460Y011293D02*
X026960Y011293D01*
X029260Y008993D01*
X034260Y008993D01*
X034660Y008593D01*
X041360Y008593D01*
X041660Y008893D01*
X041660Y019793D01*
X041460Y019993D01*
X040960Y019793D02*
X036560Y019793D01*
X036060Y019293D01*
X034260Y019293D01*
X035360Y019843D02*
X032650Y019843D01*
X030260Y018393D01*
X032360Y019993D02*
X032760Y020193D01*
X040560Y020193D01*
X041660Y021093D01*
X043160Y021093D01*
X043660Y021593D02*
X044160Y022093D01*
X043660Y021593D02*
X041760Y021593D01*
X040460Y020393D01*
X016260Y020393D01*
X016260Y019993D01*
X016260Y020393D02*
X015860Y020393D01*
X014530Y018963D01*
X013213Y018963D01*
X013211Y018965D01*
X013215Y018713D02*
X013211Y018709D01*
X013215Y018713D02*
X016670Y018713D01*
X017960Y020003D01*
X019560Y019993D01*
X019960Y019493D02*
X017860Y019493D01*
X016460Y018093D01*
X016300Y018213D01*
X014355Y018198D01*
X013211Y018198D01*
X013211Y017942D02*
X013911Y017942D01*
X014160Y017793D01*
X013860Y017393D02*
X013560Y017693D01*
X013219Y017693D01*
X013211Y017686D01*
X013211Y017430D02*
X013211Y017242D01*
X013200Y017043D01*
X013450Y016793D01*
X016660Y016793D01*
X017360Y017493D01*
X017360Y018393D01*
X017860Y017393D02*
X016760Y016493D01*
X013060Y016493D01*
X011460Y017693D01*
X011014Y017693D01*
X011006Y017686D01*
X011006Y017942D01*
X011006Y018198D02*
X010664Y018198D01*
X010160Y017593D01*
X009560Y017588D02*
X008694Y017588D01*
X008690Y017583D02*
X009685Y018529D01*
X011081Y018529D01*
X011082Y018530D01*
X011260Y018530D01*
X011260Y018393D01*
X009760Y018393D01*
X009560Y018193D01*
X009560Y017393D01*
X008360Y016193D01*
X008360Y016093D01*
X008060Y015793D01*
X007660Y015793D01*
X007460Y015993D01*
X007460Y016593D01*
X007590Y016723D01*
X008310Y016723D01*
X008690Y017103D01*
X008690Y017583D01*
X008690Y017489D02*
X009560Y017489D01*
X009557Y017391D02*
X008690Y017391D01*
X008690Y017292D02*
X009459Y017292D01*
X009360Y017194D02*
X008690Y017194D01*
X008682Y017095D02*
X009262Y017095D01*
X009163Y016997D02*
X008583Y016997D01*
X008485Y016898D02*
X009065Y016898D01*
X008966Y016800D02*
X008386Y016800D01*
X008671Y016504D02*
X007460Y016504D01*
X007460Y016406D02*
X008572Y016406D01*
X008474Y016307D02*
X007460Y016307D01*
X007460Y016209D02*
X008375Y016209D01*
X008360Y016110D02*
X007460Y016110D01*
X007460Y016012D02*
X008278Y016012D01*
X008180Y015913D02*
X007539Y015913D01*
X007638Y015815D02*
X008081Y015815D01*
X008660Y015793D02*
X010860Y015793D01*
X008868Y016701D02*
X007568Y016701D01*
X007469Y016603D02*
X008769Y016603D01*
X008160Y016293D02*
X009360Y017493D01*
X009360Y018143D01*
X009670Y018453D01*
X011006Y018453D01*
X011006Y018454D01*
X011260Y018474D02*
X009627Y018474D01*
X009523Y018376D02*
X009742Y018376D01*
X009644Y018277D02*
X009420Y018277D01*
X009316Y018179D02*
X009560Y018179D01*
X009560Y018080D02*
X009212Y018080D01*
X009109Y017982D02*
X009560Y017982D01*
X009560Y017883D02*
X009005Y017883D01*
X008902Y017785D02*
X009560Y017785D01*
X009560Y017686D02*
X008798Y017686D01*
X008471Y017982D02*
X007471Y017982D01*
X007372Y018080D02*
X008566Y018080D01*
X008661Y018179D02*
X007360Y018179D01*
X007360Y018093D02*
X007360Y018593D01*
X007560Y018793D01*
X008260Y018793D01*
X008460Y018993D01*
X011260Y018993D01*
X011260Y018893D01*
X011236Y018889D01*
X011082Y018889D01*
X011081Y018889D01*
X009401Y018889D01*
X009395Y018883D01*
X009340Y018883D01*
X008290Y017793D01*
X007660Y017793D01*
X007360Y018093D01*
X007360Y018277D02*
X008756Y018277D01*
X008851Y018376D02*
X007360Y018376D01*
X007360Y018474D02*
X008946Y018474D01*
X009040Y018573D02*
X007360Y018573D01*
X007438Y018671D02*
X009135Y018671D01*
X009230Y018770D02*
X007536Y018770D01*
X007860Y018293D02*
X008610Y018293D01*
X009290Y018973D01*
X010998Y018973D01*
X011006Y018965D01*
X011260Y018967D02*
X008433Y018967D01*
X008335Y018868D02*
X009325Y018868D01*
X009476Y018709D02*
X008160Y017393D01*
X008376Y017883D02*
X007569Y017883D01*
X009476Y018709D02*
X011006Y018709D01*
X011006Y019221D02*
X011004Y019223D01*
X009470Y019223D01*
X008400Y020293D01*
X007860Y020293D01*
X007660Y019793D02*
X007330Y020023D01*
X007290Y020623D01*
X007410Y020743D01*
X007710Y020843D01*
X008260Y020793D01*
X009760Y019293D01*
X011260Y019293D01*
X011260Y019193D01*
X009060Y019193D01*
X008460Y019793D01*
X007660Y019793D01*
X007573Y019853D02*
X009199Y019853D01*
X009101Y019952D02*
X007432Y019952D01*
X007328Y020050D02*
X009002Y020050D01*
X008904Y020149D02*
X007321Y020149D01*
X007315Y020247D02*
X008805Y020247D01*
X008707Y020346D02*
X007308Y020346D01*
X007301Y020444D02*
X008608Y020444D01*
X008510Y020543D02*
X007295Y020543D01*
X007308Y020641D02*
X008411Y020641D01*
X008313Y020740D02*
X007406Y020740D01*
X007695Y020838D02*
X007764Y020838D01*
X008060Y021293D02*
X009876Y019477D01*
X011006Y019477D01*
X011006Y019733D02*
X011006Y019733D01*
X010220Y019733D01*
X009160Y020793D01*
X009160Y021893D01*
X008760Y022293D01*
X007860Y022293D01*
X007560Y021893D02*
X007360Y022093D01*
X007360Y022593D01*
X007460Y022693D01*
X008660Y022693D01*
X009360Y021993D01*
X009360Y020793D01*
X010360Y019793D01*
X011260Y019793D01*
X011260Y019693D01*
X010060Y019693D01*
X008760Y020993D01*
X008760Y021893D01*
X007560Y021893D01*
X007531Y021922D02*
X009360Y021922D01*
X009360Y021823D02*
X008760Y021823D01*
X008760Y021725D02*
X009360Y021725D01*
X009360Y021626D02*
X008760Y021626D01*
X008760Y021528D02*
X009360Y021528D01*
X009360Y021429D02*
X008760Y021429D01*
X008760Y021331D02*
X009360Y021331D01*
X009360Y021232D02*
X008760Y021232D01*
X008760Y021134D02*
X009360Y021134D01*
X009360Y021035D02*
X008760Y021035D01*
X008816Y020937D02*
X009360Y020937D01*
X009360Y020838D02*
X008914Y020838D01*
X009013Y020740D02*
X009413Y020740D01*
X009511Y020641D02*
X009111Y020641D01*
X009210Y020543D02*
X009610Y020543D01*
X009708Y020444D02*
X009308Y020444D01*
X009407Y020346D02*
X009807Y020346D01*
X009905Y020247D02*
X009505Y020247D01*
X009604Y020149D02*
X010004Y020149D01*
X010102Y020050D02*
X009702Y020050D01*
X009801Y019952D02*
X010201Y019952D01*
X010299Y019853D02*
X009899Y019853D01*
X009998Y019755D02*
X011260Y019755D01*
X011006Y019989D02*
X011002Y019993D01*
X010460Y019993D01*
X009825Y021028D01*
X010360Y020893D02*
X010360Y021693D01*
X010460Y021759D01*
X009332Y022020D02*
X007432Y022020D01*
X007360Y022119D02*
X009234Y022119D01*
X009135Y022217D02*
X007360Y022217D01*
X007360Y022316D02*
X009037Y022316D01*
X008938Y022414D02*
X007360Y022414D01*
X007360Y022513D02*
X008840Y022513D01*
X008741Y022611D02*
X007378Y022611D01*
X010360Y020893D02*
X010608Y020245D01*
X011006Y020245D01*
X011014Y020493D02*
X011006Y020501D01*
X011014Y020493D02*
X011460Y020493D01*
X011894Y020928D01*
X011225Y021175D02*
X011006Y020757D01*
X009298Y019755D02*
X008498Y019755D01*
X008596Y019656D02*
X009396Y019656D01*
X009495Y019558D02*
X008695Y019558D01*
X008793Y019459D02*
X009593Y019459D01*
X009692Y019361D02*
X008892Y019361D01*
X008990Y019262D02*
X011260Y019262D01*
X013211Y019221D02*
X013959Y019223D01*
X014060Y019293D01*
X014740Y019733D02*
X013211Y019733D01*
X013211Y019733D01*
X013211Y019989D02*
X013215Y019993D01*
X014660Y019983D01*
X015470Y020783D01*
X015580Y020783D01*
X039560Y020793D01*
X041160Y022593D01*
X040060Y022093D02*
X039160Y020993D01*
X015390Y021003D01*
X014880Y020503D01*
X014620Y020253D01*
X013213Y020243D01*
X013211Y020245D01*
X014060Y020603D02*
X014100Y021903D01*
X016760Y021993D01*
X017560Y022993D01*
X017560Y024093D01*
X019560Y024093D02*
X019560Y021393D01*
X020460Y019993D02*
X032360Y019993D01*
X032060Y021693D02*
X031934Y021693D01*
X032060Y021693D02*
X032060Y022593D01*
X029160Y022593D01*
X029160Y024093D01*
X028160Y024093D02*
X028160Y022293D01*
X027560Y021693D01*
X020460Y019993D02*
X019960Y019493D01*
X018360Y017393D02*
X017860Y017393D01*
X020560Y015793D02*
X024107Y015793D01*
X024107Y015419D02*
X024007Y015393D01*
X024260Y015393D01*
X025012Y015419D02*
X025212Y015393D01*
X025960Y015993D02*
X025960Y016193D01*
X025212Y016193D01*
X025012Y016167D01*
X025960Y015993D02*
X026425Y015993D01*
X026425Y015393D01*
X026660Y015393D01*
X026660Y014828D01*
X027160Y014828D01*
X026160Y014946D02*
X026160Y014493D01*
X026160Y014041D02*
X026160Y013546D01*
X024260Y013859D02*
X024260Y013093D01*
X023450Y013057D02*
X019849Y013057D01*
X019850Y012993D02*
X019840Y014213D01*
X023040Y014213D01*
X023460Y014193D01*
X023458Y014033D01*
X022341Y014033D01*
X022265Y013957D01*
X022265Y013229D01*
X022341Y013153D01*
X023451Y013153D01*
X023450Y012993D01*
X021960Y012993D01*
X021760Y012793D01*
X021760Y007893D01*
X019860Y005993D01*
X018260Y005993D01*
X017860Y005693D01*
X015960Y005693D01*
X015760Y005893D01*
X015760Y006893D01*
X015960Y007093D01*
X018960Y007093D01*
X020460Y008593D01*
X020450Y012993D01*
X019850Y012993D01*
X019848Y013155D02*
X022339Y013155D01*
X022265Y013254D02*
X019847Y013254D01*
X019847Y013352D02*
X022265Y013352D01*
X022265Y013451D02*
X019846Y013451D01*
X019845Y013549D02*
X022265Y013549D01*
X022265Y013648D02*
X019844Y013648D01*
X019843Y013746D02*
X022265Y013746D01*
X022265Y013845D02*
X019843Y013845D01*
X019842Y013943D02*
X022265Y013943D01*
X023458Y014042D02*
X019841Y014042D01*
X019840Y014140D02*
X023459Y014140D01*
X024260Y014528D02*
X024260Y014793D01*
X021925Y012958D02*
X020450Y012958D01*
X020450Y012860D02*
X021826Y012860D01*
X021760Y012761D02*
X020450Y012761D01*
X020450Y012663D02*
X021760Y012663D01*
X021760Y012564D02*
X020450Y012564D01*
X020451Y012466D02*
X021760Y012466D01*
X021760Y012367D02*
X020451Y012367D01*
X020451Y012269D02*
X021760Y012269D01*
X021760Y012170D02*
X020451Y012170D01*
X020452Y012072D02*
X021760Y012072D01*
X021760Y011973D02*
X020452Y011973D01*
X020452Y011875D02*
X021760Y011875D01*
X021760Y011776D02*
X020452Y011776D01*
X020453Y011678D02*
X021760Y011678D01*
X021760Y011579D02*
X020453Y011579D01*
X020453Y011481D02*
X021760Y011481D01*
X021760Y011382D02*
X020453Y011382D01*
X020453Y011284D02*
X021760Y011284D01*
X021760Y011185D02*
X020454Y011185D01*
X020454Y011087D02*
X021760Y011087D01*
X021760Y010988D02*
X020454Y010988D01*
X020454Y010890D02*
X021760Y010890D01*
X021760Y010791D02*
X020455Y010791D01*
X020455Y010693D02*
X021760Y010693D01*
X021760Y010594D02*
X020455Y010594D01*
X020455Y010496D02*
X021760Y010496D01*
X021760Y010397D02*
X020455Y010397D01*
X020456Y010299D02*
X021760Y010299D01*
X021760Y010200D02*
X020456Y010200D01*
X020456Y010102D02*
X021760Y010102D01*
X021760Y010003D02*
X020456Y010003D01*
X020457Y009905D02*
X021760Y009905D01*
X021760Y009806D02*
X020457Y009806D01*
X020457Y009708D02*
X021760Y009708D01*
X021760Y009609D02*
X020457Y009609D01*
X020457Y009511D02*
X021760Y009511D01*
X021760Y009412D02*
X020458Y009412D01*
X020458Y009314D02*
X021760Y009314D01*
X021760Y009215D02*
X020458Y009215D01*
X020458Y009117D02*
X021760Y009117D01*
X021760Y009018D02*
X020459Y009018D01*
X020459Y008920D02*
X021760Y008920D01*
X021760Y008821D02*
X020459Y008821D01*
X020459Y008723D02*
X021760Y008723D01*
X021760Y008624D02*
X020459Y008624D01*
X020392Y008526D02*
X021760Y008526D01*
X021760Y008427D02*
X020294Y008427D01*
X020195Y008329D02*
X021760Y008329D01*
X021760Y008230D02*
X020097Y008230D01*
X019998Y008132D02*
X021760Y008132D01*
X021760Y008033D02*
X019900Y008033D01*
X019801Y007935D02*
X021760Y007935D01*
X021703Y007836D02*
X019703Y007836D01*
X019604Y007738D02*
X021604Y007738D01*
X021506Y007639D02*
X019506Y007639D01*
X019407Y007541D02*
X021407Y007541D01*
X021309Y007442D02*
X019309Y007442D01*
X019210Y007344D02*
X021210Y007344D01*
X021112Y007245D02*
X019112Y007245D01*
X019013Y007147D02*
X021013Y007147D01*
X020915Y007048D02*
X015915Y007048D01*
X015816Y006950D02*
X020816Y006950D01*
X020718Y006851D02*
X015760Y006851D01*
X015760Y006753D02*
X020619Y006753D01*
X020521Y006654D02*
X015760Y006654D01*
X015760Y006556D02*
X020422Y006556D01*
X020324Y006457D02*
X015760Y006457D01*
X015760Y006359D02*
X020225Y006359D01*
X020127Y006260D02*
X015760Y006260D01*
X015760Y006162D02*
X020028Y006162D01*
X019930Y006063D02*
X015760Y006063D01*
X015760Y005965D02*
X018222Y005965D01*
X018090Y005866D02*
X015787Y005866D01*
X015885Y005768D02*
X017959Y005768D01*
X018860Y006393D02*
X016457Y006393D01*
X016460Y005093D02*
X013160Y005093D01*
X012260Y006193D01*
X011060Y006193D01*
X009760Y004693D01*
X007160Y004693D01*
X005773Y006080D01*
X005773Y009693D01*
X004946Y009693D02*
X004860Y009607D01*
X004860Y009093D01*
X007360Y008693D02*
X007360Y008293D01*
X007560Y008093D01*
X008260Y008093D01*
X009560Y009393D01*
X010560Y009393D01*
X010560Y009493D01*
X008960Y009493D01*
X008460Y008993D01*
X007660Y008993D01*
X007360Y008693D01*
X007389Y008723D02*
X008889Y008723D01*
X008988Y008821D02*
X007488Y008821D01*
X007586Y008920D02*
X009086Y008920D01*
X009185Y009018D02*
X008485Y009018D01*
X008583Y009117D02*
X009283Y009117D01*
X009382Y009215D02*
X008682Y009215D01*
X008780Y009314D02*
X009480Y009314D01*
X009470Y009463D02*
X010288Y009463D01*
X010306Y009465D01*
X010306Y009209D02*
X009656Y009209D01*
X007940Y007493D01*
X007660Y007493D01*
X008013Y007147D02*
X008360Y007147D01*
X008360Y007193D02*
X008360Y006293D01*
X008060Y005993D01*
X007660Y005993D01*
X007360Y006293D01*
X007360Y006693D01*
X007660Y006993D01*
X007860Y006993D01*
X009260Y008393D01*
X009260Y008493D01*
X009760Y008993D01*
X010560Y008993D01*
X010560Y008893D01*
X009860Y008893D01*
X009560Y008593D01*
X009560Y008393D01*
X008360Y007193D01*
X008412Y007245D02*
X008112Y007245D01*
X008210Y007344D02*
X008510Y007344D01*
X008609Y007442D02*
X008309Y007442D01*
X008407Y007541D02*
X008707Y007541D01*
X008806Y007639D02*
X008506Y007639D01*
X008604Y007738D02*
X008904Y007738D01*
X009003Y007836D02*
X008703Y007836D01*
X008801Y007935D02*
X009101Y007935D01*
X009200Y008033D02*
X008900Y008033D01*
X008998Y008132D02*
X009298Y008132D01*
X009397Y008230D02*
X009097Y008230D01*
X009195Y008329D02*
X009495Y008329D01*
X009460Y008393D02*
X009460Y008603D01*
X009810Y008953D01*
X010306Y008953D01*
X010306Y008954D01*
X010560Y008920D02*
X009686Y008920D01*
X009588Y008821D02*
X009788Y008821D01*
X009689Y008723D02*
X009489Y008723D01*
X009391Y008624D02*
X009591Y008624D01*
X009560Y008526D02*
X009292Y008526D01*
X009260Y008427D02*
X009560Y008427D01*
X009460Y008393D02*
X007860Y006793D01*
X007860Y006493D01*
X008228Y006162D02*
X007491Y006162D01*
X007393Y006260D02*
X008327Y006260D01*
X008360Y006359D02*
X007360Y006359D01*
X007360Y006457D02*
X008360Y006457D01*
X008360Y006556D02*
X007360Y006556D01*
X007360Y006654D02*
X008360Y006654D01*
X008360Y006753D02*
X007419Y006753D01*
X007518Y006851D02*
X008360Y006851D01*
X008360Y006950D02*
X007616Y006950D01*
X007915Y007048D02*
X008360Y007048D01*
X009360Y007393D02*
X009560Y007793D01*
X009860Y008593D01*
X009964Y008698D01*
X010306Y008698D01*
X010306Y008442D02*
X010306Y008186D01*
X010314Y008193D01*
X010860Y008193D01*
X011460Y007593D01*
X011460Y007493D01*
X011860Y006993D01*
X013960Y006993D01*
X015760Y008693D01*
X017560Y008693D01*
X018860Y008793D02*
X018860Y008893D01*
X020060Y009993D01*
X021160Y008093D02*
X021160Y013493D01*
X020560Y013593D01*
X025340Y011453D02*
X025460Y011293D01*
X026360Y010593D02*
X026960Y010593D01*
X028990Y008523D01*
X033690Y008523D01*
X034360Y007893D01*
X041660Y007893D01*
X042060Y008293D01*
X042060Y018493D01*
X042460Y019093D01*
X043160Y019093D01*
X039760Y020593D02*
X042360Y023093D01*
X043160Y023093D01*
X039760Y020593D02*
X015600Y020593D01*
X014740Y019733D01*
X013860Y017393D02*
X013960Y017193D01*
X013860Y016093D02*
X012760Y014693D01*
X006960Y014693D01*
X005773Y015880D01*
X005773Y019393D01*
X004960Y019380D02*
X004960Y018793D01*
X004960Y019380D02*
X004946Y019393D01*
X007860Y016293D02*
X008160Y016293D01*
X008060Y012993D02*
X007660Y012993D01*
X007460Y012793D01*
X007460Y012293D01*
X007660Y012093D01*
X008060Y012093D01*
X009160Y010993D01*
X009160Y010793D01*
X009760Y010193D01*
X010560Y010193D01*
X010560Y010293D01*
X009860Y010293D01*
X009844Y010309D01*
X009789Y010309D01*
X009685Y010413D01*
X009580Y010519D01*
X009580Y010573D01*
X009460Y010693D01*
X009260Y010693D01*
X009350Y010593D02*
X009800Y010233D01*
X010296Y010233D01*
X010306Y010233D01*
X010560Y010200D02*
X009752Y010200D01*
X009654Y010299D02*
X009854Y010299D01*
X009701Y010397D02*
X009555Y010397D01*
X009602Y010496D02*
X009457Y010496D01*
X009358Y010594D02*
X009558Y010594D01*
X009460Y010693D02*
X009460Y011593D01*
X008060Y012993D01*
X008094Y012958D02*
X007625Y012958D01*
X007526Y012860D02*
X008193Y012860D01*
X008291Y012761D02*
X007460Y012761D01*
X007460Y012663D02*
X008390Y012663D01*
X008488Y012564D02*
X007460Y012564D01*
X007460Y012466D02*
X008587Y012466D01*
X008685Y012367D02*
X007460Y012367D01*
X007484Y012269D02*
X008784Y012269D01*
X008882Y012170D02*
X007582Y012170D01*
X007860Y012493D02*
X008060Y012493D01*
X009350Y011103D01*
X009350Y010593D01*
X009460Y010791D02*
X009161Y010791D01*
X009160Y010890D02*
X009460Y010890D01*
X009460Y010988D02*
X009160Y010988D01*
X009066Y011087D02*
X009460Y011087D01*
X009460Y011185D02*
X008967Y011185D01*
X008869Y011284D02*
X009460Y011284D01*
X009460Y011382D02*
X008770Y011382D01*
X008672Y011481D02*
X009460Y011481D01*
X009460Y011579D02*
X008573Y011579D01*
X008475Y011678D02*
X009375Y011678D01*
X009276Y011776D02*
X008376Y011776D01*
X008278Y011875D02*
X009178Y011875D01*
X009079Y011973D02*
X008179Y011973D01*
X008081Y012072D02*
X008981Y012072D01*
X009360Y012593D02*
X009760Y012393D01*
X009760Y010593D01*
X009864Y010489D01*
X010306Y010489D01*
X010306Y010745D02*
X010811Y010745D01*
X011360Y011293D01*
X011720Y011293D01*
X012060Y011833D01*
X011400Y011863D02*
X011390Y011843D01*
X011400Y011863D02*
X011060Y011863D01*
X011060Y011393D01*
X010667Y011001D01*
X010306Y011001D01*
X010306Y011257D02*
X010306Y011640D01*
X010360Y011693D01*
X008540Y010693D02*
X007400Y010693D01*
X007400Y010753D02*
X007590Y010943D01*
X008290Y010943D01*
X009440Y009793D01*
X010560Y009793D01*
X010560Y009693D01*
X010550Y009683D01*
X009310Y009683D01*
X008950Y010043D01*
X007590Y010043D01*
X007400Y010233D01*
X007400Y010753D01*
X007438Y010791D02*
X008441Y010791D01*
X008343Y010890D02*
X007536Y010890D01*
X007400Y010594D02*
X008638Y010594D01*
X008650Y010493D02*
X009420Y009723D01*
X010304Y009723D01*
X010306Y009721D01*
X010560Y009708D02*
X009285Y009708D01*
X009186Y009806D02*
X009426Y009806D01*
X009328Y009905D02*
X009088Y009905D01*
X008989Y010003D02*
X009229Y010003D01*
X009131Y010102D02*
X007531Y010102D01*
X007432Y010200D02*
X009032Y010200D01*
X008934Y010299D02*
X007400Y010299D01*
X007400Y010397D02*
X008835Y010397D01*
X008737Y010496D02*
X007400Y010496D01*
X007860Y010493D02*
X008650Y010493D01*
X009576Y009977D02*
X008060Y011493D01*
X007660Y011493D01*
X009576Y009977D02*
X010306Y009977D01*
X010560Y009412D02*
X008879Y009412D01*
X009470Y009463D02*
X008500Y008493D01*
X007860Y008493D01*
X007521Y008132D02*
X008298Y008132D01*
X008397Y008230D02*
X007423Y008230D01*
X007360Y008329D02*
X008495Y008329D01*
X008594Y008427D02*
X007360Y008427D01*
X007360Y008526D02*
X008692Y008526D01*
X008791Y008624D02*
X007360Y008624D01*
X007590Y006063D02*
X008130Y006063D01*
X012511Y007642D02*
X012560Y007593D01*
X012511Y007642D02*
X012511Y007930D01*
X013154Y007233D01*
X013810Y007233D01*
X015860Y009123D01*
X016560Y009693D01*
X014860Y009293D02*
X014690Y009213D01*
X012457Y009213D01*
X012511Y009209D01*
X012511Y009465D02*
X014432Y009465D01*
X014790Y009953D01*
X014570Y010523D02*
X014060Y009721D01*
X012511Y009721D01*
X012511Y010233D02*
X013979Y010233D01*
X014660Y011093D01*
X014860Y011093D01*
X014910Y010533D02*
X014570Y010523D01*
X013755Y010489D02*
X014860Y011793D01*
X014860Y012493D02*
X013411Y010745D01*
X012511Y010745D01*
X012511Y010489D02*
X013755Y010489D01*
X013860Y008793D02*
X013655Y008698D01*
X012511Y008698D01*
X012511Y008442D02*
X013311Y008442D01*
X013560Y008293D01*
X013560Y007593D02*
X013460Y007593D01*
X012860Y008183D01*
X012519Y008183D01*
X012511Y008186D01*
X018860Y006393D02*
X020060Y007593D01*
X020660Y007593D01*
X021160Y008093D01*
X021260Y005793D02*
X023760Y006693D01*
X023960Y006893D01*
X023960Y009393D01*
X028110Y011393D02*
X027710Y012223D01*
X027320Y012233D01*
X029860Y012993D02*
X030660Y012193D01*
X031660Y012193D01*
X031704Y011600D02*
X031231Y011600D01*
X030760Y011599D02*
X030759Y011600D01*
X030760Y011599D02*
X030760Y010993D01*
X030286Y010893D02*
X030286Y011600D01*
X030260Y010893D02*
X030286Y010893D01*
X030834Y009893D02*
X032425Y009893D01*
X033094Y009893D02*
X033266Y009893D01*
X034066Y011600D01*
X033260Y012993D02*
X033260Y014693D01*
X033260Y012993D02*
X033160Y012993D01*
X021260Y005793D02*
X021160Y005693D01*
X021160Y005093D01*
X037160Y022293D02*
X037160Y024093D01*
X038160Y024093D02*
X038160Y022293D01*
D35*
X038520Y022321D02*
X039700Y022321D01*
X039700Y022360D02*
X039700Y021985D01*
X039060Y021203D01*
X019920Y021211D01*
X019920Y021660D01*
X019826Y021753D01*
X019770Y021753D01*
X019770Y023607D01*
X019860Y023644D01*
X020009Y023793D01*
X020060Y023915D01*
X020110Y023793D01*
X020259Y023644D01*
X020454Y023563D01*
X020665Y023563D01*
X020860Y023644D01*
X021009Y023793D01*
X021060Y023915D01*
X021110Y023793D01*
X021259Y023644D01*
X021454Y023563D01*
X021665Y023563D01*
X021860Y023644D01*
X022009Y023793D01*
X022060Y023915D01*
X022110Y023793D01*
X022259Y023644D01*
X022454Y023563D01*
X022665Y023563D01*
X022860Y023644D01*
X023009Y023793D01*
X023090Y023988D01*
X023090Y024199D01*
X023009Y024394D01*
X022860Y024543D01*
X022689Y024613D01*
X024030Y024613D01*
X023859Y024543D01*
X023710Y024394D01*
X023630Y024199D01*
X023630Y023988D01*
X023710Y023793D01*
X023859Y023644D01*
X024054Y023563D01*
X024265Y023563D01*
X024460Y023644D01*
X024609Y023793D01*
X024660Y023915D01*
X024710Y023793D01*
X024859Y023644D01*
X025054Y023563D01*
X025265Y023563D01*
X025460Y023644D01*
X025609Y023793D01*
X025660Y023915D01*
X025710Y023793D01*
X025859Y023644D01*
X026054Y023563D01*
X026265Y023563D01*
X026460Y023644D01*
X026609Y023793D01*
X026660Y023915D01*
X026710Y023793D01*
X026859Y023644D01*
X027054Y023563D01*
X027265Y023563D01*
X027460Y023644D01*
X027609Y023793D01*
X027660Y023915D01*
X027710Y023793D01*
X027859Y023644D01*
X027950Y023607D01*
X027950Y022380D01*
X027654Y022085D01*
X027639Y022091D01*
X027480Y022091D01*
X027334Y022031D01*
X027222Y021919D01*
X027162Y021772D01*
X027162Y021614D01*
X027222Y021468D01*
X027334Y021356D01*
X027480Y021296D01*
X027639Y021296D01*
X027785Y021356D01*
X027897Y021468D01*
X027944Y021582D01*
X027960Y021533D01*
X027990Y021474D01*
X028028Y021421D01*
X028075Y021375D01*
X028128Y021336D01*
X028187Y021306D01*
X028249Y021286D01*
X028314Y021276D01*
X028347Y021276D01*
X028380Y021276D01*
X028445Y021286D01*
X028507Y021306D01*
X028566Y021336D01*
X028619Y021375D01*
X028666Y021421D01*
X028704Y021474D01*
X028734Y021533D01*
X028754Y021595D01*
X028765Y021660D01*
X028765Y021693D01*
X028347Y021693D01*
X028347Y021276D01*
X028347Y021693D01*
X028347Y021693D01*
X028347Y021693D01*
X028765Y021693D01*
X028765Y021726D01*
X028754Y021791D01*
X028734Y021854D01*
X028704Y021912D01*
X028666Y021965D01*
X028619Y022012D01*
X028566Y022051D01*
X028507Y022080D01*
X028445Y022101D01*
X028380Y022111D01*
X028347Y022111D01*
X028347Y021693D01*
X028347Y021693D01*
X028347Y022111D01*
X028314Y022111D01*
X028267Y022104D01*
X028370Y022206D01*
X028370Y023607D01*
X028460Y023644D01*
X028609Y023793D01*
X028660Y023915D01*
X028710Y023793D01*
X028859Y023644D01*
X028950Y023607D01*
X028950Y022506D01*
X029073Y022383D01*
X031850Y022383D01*
X031850Y022089D01*
X031709Y022031D01*
X031597Y021919D01*
X031550Y021805D01*
X031534Y021854D01*
X031504Y021912D01*
X031466Y021965D01*
X031419Y022012D01*
X031366Y022051D01*
X031307Y022080D01*
X031245Y022101D01*
X031180Y022111D01*
X031147Y022111D01*
X031147Y021693D01*
X031147Y021276D01*
X031180Y021276D01*
X031245Y021286D01*
X031307Y021306D01*
X031366Y021336D01*
X031419Y021375D01*
X031466Y021421D01*
X031504Y021474D01*
X031534Y021533D01*
X031550Y021582D01*
X031597Y021468D01*
X031709Y021356D01*
X031855Y021296D01*
X032013Y021296D01*
X032160Y021356D01*
X032272Y021468D01*
X032332Y021614D01*
X032332Y021772D01*
X032272Y021919D01*
X032270Y021921D01*
X032270Y022680D01*
X032146Y022803D01*
X029370Y022803D01*
X029370Y023607D01*
X029460Y023644D01*
X029609Y023793D01*
X029660Y023915D01*
X029710Y023793D01*
X029859Y023644D01*
X030054Y023563D01*
X030265Y023563D01*
X030460Y023644D01*
X030609Y023793D01*
X030660Y023915D01*
X030710Y023793D01*
X030859Y023644D01*
X031054Y023563D01*
X031265Y023563D01*
X031460Y023644D01*
X031609Y023793D01*
X031690Y023988D01*
X031690Y024199D01*
X031609Y024394D01*
X031460Y024543D01*
X031289Y024613D01*
X033030Y024613D01*
X032859Y024543D01*
X032710Y024394D01*
X032630Y024199D01*
X032630Y023988D01*
X032710Y023793D01*
X032859Y023644D01*
X033054Y023563D01*
X033265Y023563D01*
X033460Y023644D01*
X033609Y023793D01*
X033660Y023915D01*
X033710Y023793D01*
X033859Y023644D01*
X034054Y023563D01*
X034265Y023563D01*
X034460Y023644D01*
X034609Y023793D01*
X034660Y023915D01*
X034710Y023793D01*
X034859Y023644D01*
X035054Y023563D01*
X035265Y023563D01*
X035460Y023644D01*
X035609Y023793D01*
X035660Y023915D01*
X035710Y023793D01*
X035859Y023644D01*
X036054Y023563D01*
X036265Y023563D01*
X036460Y023644D01*
X036609Y023793D01*
X036660Y023915D01*
X036710Y023793D01*
X036859Y023644D01*
X036950Y023607D01*
X036950Y022653D01*
X036893Y022653D01*
X036800Y022560D01*
X036800Y022027D01*
X036893Y021933D01*
X037426Y021933D01*
X037520Y022027D01*
X037520Y022560D01*
X037426Y022653D01*
X037370Y022653D01*
X037370Y023607D01*
X037460Y023644D01*
X037609Y023793D01*
X037660Y023915D01*
X037710Y023793D01*
X037859Y023644D01*
X037950Y023607D01*
X037950Y022653D01*
X037893Y022653D01*
X037800Y022560D01*
X037800Y022027D01*
X037893Y021933D01*
X038426Y021933D01*
X038520Y022027D01*
X038520Y022560D01*
X038426Y022653D01*
X038370Y022653D01*
X038370Y023607D01*
X038460Y023644D01*
X038609Y023793D01*
X038660Y023915D01*
X038710Y023793D01*
X038859Y023644D01*
X039054Y023563D01*
X039265Y023563D01*
X039460Y023644D01*
X039609Y023793D01*
X039660Y023915D01*
X039710Y023793D01*
X039859Y023644D01*
X040054Y023563D01*
X040265Y023563D01*
X040460Y023644D01*
X040595Y023779D01*
X040625Y023665D01*
X040771Y023412D01*
X040978Y023205D01*
X041231Y023059D01*
X041513Y022983D01*
X041806Y022983D01*
X041995Y023034D01*
X041520Y022577D01*
X041520Y022860D01*
X041426Y022953D01*
X040893Y022953D01*
X040800Y022860D01*
X040800Y022504D01*
X040420Y022077D01*
X040420Y022360D01*
X040326Y022453D01*
X039793Y022453D01*
X039700Y022360D01*
X039700Y022162D02*
X038520Y022162D01*
X038496Y022004D02*
X039700Y022004D01*
X039585Y021845D02*
X032302Y021845D01*
X032332Y021687D02*
X039456Y021687D01*
X039326Y021528D02*
X032297Y021528D01*
X032173Y021370D02*
X039196Y021370D01*
X039067Y021211D02*
X020077Y021211D01*
X019920Y021370D02*
X027320Y021370D01*
X027197Y021528D02*
X019920Y021528D01*
X019892Y021687D02*
X027162Y021687D01*
X027192Y021845D02*
X019770Y021845D01*
X019770Y022004D02*
X027307Y022004D01*
X027732Y022162D02*
X019770Y022162D01*
X019770Y022321D02*
X027890Y022321D01*
X027950Y022479D02*
X019770Y022479D01*
X019770Y022638D02*
X027950Y022638D01*
X027950Y022796D02*
X019770Y022796D01*
X019770Y022955D02*
X027950Y022955D01*
X027950Y023113D02*
X019770Y023113D01*
X019770Y023272D02*
X027950Y023272D01*
X027950Y023430D02*
X019770Y023430D01*
X019770Y023589D02*
X020392Y023589D01*
X020156Y023747D02*
X019963Y023747D01*
X020056Y023906D02*
X020063Y023906D01*
X020727Y023589D02*
X021392Y023589D01*
X021156Y023747D02*
X020963Y023747D01*
X021056Y023906D02*
X021063Y023906D01*
X021727Y023589D02*
X022392Y023589D01*
X022156Y023747D02*
X021963Y023747D01*
X022056Y023906D02*
X022063Y023906D01*
X022727Y023589D02*
X023992Y023589D01*
X023756Y023747D02*
X022963Y023747D01*
X023056Y023906D02*
X023663Y023906D01*
X023630Y024064D02*
X023090Y024064D01*
X023080Y024223D02*
X023640Y024223D01*
X023705Y024381D02*
X023014Y024381D01*
X022863Y024540D02*
X023857Y024540D01*
X024656Y023906D02*
X024663Y023906D01*
X024756Y023747D02*
X024563Y023747D01*
X024327Y023589D02*
X024992Y023589D01*
X025327Y023589D02*
X025992Y023589D01*
X025756Y023747D02*
X025563Y023747D01*
X025656Y023906D02*
X025663Y023906D01*
X026327Y023589D02*
X026992Y023589D01*
X026756Y023747D02*
X026563Y023747D01*
X026656Y023906D02*
X026663Y023906D01*
X027327Y023589D02*
X027950Y023589D01*
X027756Y023747D02*
X027563Y023747D01*
X027656Y023906D02*
X027663Y023906D01*
X028370Y023589D02*
X028950Y023589D01*
X028950Y023430D02*
X028370Y023430D01*
X028370Y023272D02*
X028950Y023272D01*
X028950Y023113D02*
X028370Y023113D01*
X028370Y022955D02*
X028950Y022955D01*
X028950Y022796D02*
X028370Y022796D01*
X028370Y022638D02*
X028950Y022638D01*
X028976Y022479D02*
X028370Y022479D01*
X028370Y022321D02*
X031850Y022321D01*
X031850Y022162D02*
X028326Y022162D01*
X028347Y022004D02*
X028347Y022004D01*
X028347Y021845D02*
X028347Y021845D01*
X028347Y021687D02*
X028347Y021687D01*
X028347Y021528D02*
X028347Y021528D01*
X028347Y021370D02*
X028347Y021370D01*
X028612Y021370D02*
X030120Y021370D01*
X030134Y021356D02*
X030280Y021296D01*
X030439Y021296D01*
X030585Y021356D01*
X030697Y021468D01*
X030744Y021582D01*
X030760Y021533D01*
X030790Y021474D01*
X030828Y021421D01*
X030875Y021375D01*
X030928Y021336D01*
X030987Y021306D01*
X031049Y021286D01*
X031114Y021276D01*
X031147Y021276D01*
X031147Y021693D01*
X031147Y021693D01*
X031147Y021693D01*
X031147Y022111D01*
X031114Y022111D01*
X031049Y022101D01*
X030987Y022080D01*
X030928Y022051D01*
X030875Y022012D01*
X030828Y021965D01*
X030790Y021912D01*
X030760Y021854D01*
X030744Y021805D01*
X030697Y021919D01*
X030585Y022031D01*
X030439Y022091D01*
X030280Y022091D01*
X030134Y022031D01*
X030022Y021919D01*
X029962Y021772D01*
X029962Y021614D01*
X030022Y021468D01*
X030134Y021356D01*
X029997Y021528D02*
X028732Y021528D01*
X028765Y021687D02*
X029962Y021687D01*
X029992Y021845D02*
X028737Y021845D01*
X028627Y022004D02*
X030107Y022004D01*
X030612Y022004D02*
X030867Y022004D01*
X030757Y021845D02*
X030727Y021845D01*
X030722Y021528D02*
X030762Y021528D01*
X030881Y021370D02*
X030599Y021370D01*
X031147Y021370D02*
X031147Y021370D01*
X031147Y021528D02*
X031147Y021528D01*
X031147Y021687D02*
X031147Y021687D01*
X031147Y021845D02*
X031147Y021845D01*
X031147Y022004D02*
X031147Y022004D01*
X031427Y022004D02*
X031682Y022004D01*
X031567Y021845D02*
X031537Y021845D01*
X031532Y021528D02*
X031572Y021528D01*
X031695Y021370D02*
X031412Y021370D01*
X032270Y022004D02*
X036823Y022004D01*
X036800Y022162D02*
X032270Y022162D01*
X032270Y022321D02*
X036800Y022321D01*
X036800Y022479D02*
X032270Y022479D01*
X032270Y022638D02*
X036878Y022638D01*
X036950Y022796D02*
X032153Y022796D01*
X031327Y023589D02*
X032992Y023589D01*
X032756Y023747D02*
X031563Y023747D01*
X031656Y023906D02*
X032663Y023906D01*
X032630Y024064D02*
X031690Y024064D01*
X031680Y024223D02*
X032640Y024223D01*
X032705Y024381D02*
X031614Y024381D01*
X031463Y024540D02*
X032857Y024540D01*
X033656Y023906D02*
X033663Y023906D01*
X033756Y023747D02*
X033563Y023747D01*
X033327Y023589D02*
X033992Y023589D01*
X034327Y023589D02*
X034992Y023589D01*
X034756Y023747D02*
X034563Y023747D01*
X034656Y023906D02*
X034663Y023906D01*
X035327Y023589D02*
X035992Y023589D01*
X035756Y023747D02*
X035563Y023747D01*
X035656Y023906D02*
X035663Y023906D01*
X036327Y023589D02*
X036950Y023589D01*
X036950Y023430D02*
X029370Y023430D01*
X029370Y023272D02*
X036950Y023272D01*
X036950Y023113D02*
X029370Y023113D01*
X029370Y022955D02*
X036950Y022955D01*
X037370Y022955D02*
X037950Y022955D01*
X037950Y023113D02*
X037370Y023113D01*
X037370Y023272D02*
X037950Y023272D01*
X037950Y023430D02*
X037370Y023430D01*
X037370Y023589D02*
X037950Y023589D01*
X037756Y023747D02*
X037563Y023747D01*
X037656Y023906D02*
X037663Y023906D01*
X038370Y023589D02*
X038992Y023589D01*
X038756Y023747D02*
X038563Y023747D01*
X038656Y023906D02*
X038663Y023906D01*
X039327Y023589D02*
X039992Y023589D01*
X039756Y023747D02*
X039563Y023747D01*
X039656Y023906D02*
X039663Y023906D01*
X040327Y023589D02*
X040669Y023589D01*
X040603Y023747D02*
X040563Y023747D01*
X040761Y023430D02*
X038370Y023430D01*
X038370Y023272D02*
X040911Y023272D01*
X041137Y023113D02*
X038370Y023113D01*
X038370Y022955D02*
X041913Y022955D01*
X041748Y022796D02*
X041520Y022796D01*
X041520Y022638D02*
X041583Y022638D01*
X040800Y022638D02*
X038441Y022638D01*
X038370Y022796D02*
X040800Y022796D01*
X040777Y022479D02*
X038520Y022479D01*
X037950Y022796D02*
X037370Y022796D01*
X037441Y022638D02*
X037878Y022638D01*
X037800Y022479D02*
X037520Y022479D01*
X037520Y022321D02*
X037800Y022321D01*
X037800Y022162D02*
X037520Y022162D01*
X037496Y022004D02*
X037823Y022004D01*
X040420Y022162D02*
X040495Y022162D01*
X040420Y022321D02*
X040636Y022321D01*
X036756Y023747D02*
X036563Y023747D01*
X036656Y023906D02*
X036663Y023906D01*
X030992Y023589D02*
X030327Y023589D01*
X030563Y023747D02*
X030756Y023747D01*
X030663Y023906D02*
X030656Y023906D01*
X029992Y023589D02*
X029370Y023589D01*
X029563Y023747D02*
X029756Y023747D01*
X029663Y023906D02*
X029656Y023906D01*
X028756Y023747D02*
X028563Y023747D01*
X028656Y023906D02*
X028663Y023906D01*
X027962Y021528D02*
X027922Y021528D01*
X027799Y021370D02*
X028081Y021370D01*
X026254Y019734D02*
X026205Y019783D01*
X032146Y019783D01*
X030448Y018753D01*
X029993Y018753D01*
X029900Y018660D01*
X029900Y018127D01*
X029993Y018033D01*
X030526Y018033D01*
X030620Y018127D01*
X030620Y018366D01*
X032708Y019633D01*
X033973Y019633D01*
X033900Y019560D01*
X033900Y019027D01*
X033993Y018933D01*
X034526Y018933D01*
X034620Y019027D01*
X034620Y019083D01*
X036146Y019083D01*
X036270Y019206D01*
X036646Y019583D01*
X040600Y019583D01*
X040600Y019573D01*
X036926Y019573D01*
X036880Y019526D01*
X036880Y017154D01*
X036641Y017154D01*
X036595Y017141D01*
X036554Y017118D01*
X036520Y017084D01*
X036497Y017043D01*
X036484Y016997D01*
X036484Y016539D01*
X036880Y016539D01*
X036880Y016424D01*
X036484Y016424D01*
X036484Y015966D01*
X036497Y015920D01*
X036520Y015879D01*
X036554Y015845D01*
X036595Y015822D01*
X036641Y015809D01*
X036880Y015809D01*
X036880Y012665D01*
X036641Y012665D01*
X036595Y012653D01*
X036554Y012629D01*
X036520Y012596D01*
X036497Y012555D01*
X036484Y012509D01*
X036484Y012051D01*
X036880Y012051D01*
X036880Y011936D01*
X036484Y011936D01*
X036484Y011477D01*
X036497Y011432D01*
X036520Y011391D01*
X036554Y011357D01*
X036595Y011333D01*
X036641Y011321D01*
X036880Y011321D01*
X036880Y008960D01*
X036926Y008913D01*
X041383Y008913D01*
X041273Y008803D01*
X034746Y008803D01*
X034346Y009203D01*
X029346Y009203D01*
X029116Y009433D01*
X029426Y009433D01*
X029520Y009527D01*
X029520Y009613D01*
X029670Y009613D01*
X029670Y009532D01*
X029763Y009438D01*
X030408Y009438D01*
X030460Y009490D01*
X030511Y009438D01*
X031156Y009438D01*
X031249Y009532D01*
X031249Y009683D01*
X032009Y009683D01*
X032009Y009532D01*
X032103Y009438D01*
X032747Y009438D01*
X032760Y009450D01*
X032772Y009438D01*
X033416Y009438D01*
X033510Y009532D01*
X033510Y009920D01*
X034103Y011184D01*
X034290Y011184D01*
X034302Y011196D01*
X034314Y011184D01*
X034762Y011184D01*
X034774Y011196D01*
X034787Y011184D01*
X035234Y011184D01*
X035247Y011196D01*
X035259Y011184D01*
X035707Y011184D01*
X035801Y011277D01*
X035801Y011922D01*
X035707Y012016D01*
X035259Y012016D01*
X035247Y012003D01*
X035234Y012016D01*
X034787Y012016D01*
X034774Y012003D01*
X034762Y012016D01*
X034314Y012016D01*
X034302Y012003D01*
X034290Y012016D01*
X033842Y012016D01*
X033830Y012003D01*
X033817Y012016D01*
X033370Y012016D01*
X033357Y012003D01*
X033345Y012016D01*
X032897Y012016D01*
X032885Y012003D01*
X032872Y012016D01*
X032425Y012016D01*
X032412Y012003D01*
X032400Y012016D01*
X032020Y012016D01*
X032020Y012460D01*
X031926Y012553D01*
X031393Y012553D01*
X031300Y012460D01*
X031300Y012403D01*
X030746Y012403D01*
X030220Y012930D01*
X030220Y013260D01*
X030126Y013353D01*
X029600Y013353D01*
X029600Y013752D01*
X029587Y013765D01*
X029600Y013777D01*
X029600Y014225D01*
X029587Y014237D01*
X029600Y014250D01*
X029600Y014697D01*
X029587Y014710D01*
X029600Y014722D01*
X029600Y015170D01*
X029582Y015188D01*
X029584Y015190D01*
X029608Y015231D01*
X029620Y015277D01*
X029620Y015458D01*
X029620Y015639D01*
X029608Y015685D01*
X029600Y015698D01*
X029600Y015947D01*
X029759Y015947D01*
X029805Y015959D01*
X029846Y015983D01*
X029879Y016017D01*
X029903Y016058D01*
X029915Y016103D01*
X029915Y016424D01*
X029517Y016424D01*
X029517Y016539D01*
X029402Y016539D01*
X029402Y016424D01*
X029004Y016424D01*
X029004Y016169D01*
X028862Y016169D01*
X028768Y016075D01*
X028768Y015698D01*
X028760Y015685D01*
X028748Y015639D01*
X028748Y015458D01*
X029184Y015458D01*
X029620Y015458D01*
X029184Y015458D01*
X029184Y015458D01*
X029184Y015458D01*
X028748Y015458D01*
X028748Y015277D01*
X028760Y015231D01*
X028784Y015190D01*
X028786Y015188D01*
X028768Y015170D01*
X028768Y014722D01*
X028780Y014710D01*
X028768Y014697D01*
X028768Y014250D01*
X028780Y014237D01*
X028640Y014237D01*
X028768Y014225D02*
X028768Y013777D01*
X028780Y013765D01*
X028768Y013752D01*
X028768Y013305D01*
X028806Y013267D01*
X028784Y013246D01*
X028760Y013205D01*
X028748Y013159D01*
X028748Y012978D01*
X029184Y012978D01*
X029184Y012978D01*
X028748Y012978D01*
X028748Y012796D01*
X028760Y012751D01*
X028768Y012737D01*
X028768Y012360D01*
X028862Y012266D01*
X029004Y012266D01*
X029004Y012051D01*
X029402Y012051D01*
X029402Y011936D01*
X029004Y011936D01*
X029004Y011615D01*
X029016Y011569D01*
X029040Y011528D01*
X029073Y011495D01*
X029114Y011471D01*
X029160Y011459D01*
X029402Y011459D01*
X029402Y011936D01*
X029517Y011936D01*
X029517Y012051D01*
X029915Y012051D01*
X029915Y012371D01*
X029903Y012417D01*
X029879Y012458D01*
X029846Y012492D01*
X029805Y012515D01*
X029759Y012528D01*
X029600Y012528D01*
X029600Y012633D01*
X029923Y012633D01*
X030540Y012016D01*
X030535Y012016D01*
X030523Y012003D01*
X030510Y012016D01*
X030063Y012016D01*
X029969Y011922D01*
X029969Y011277D01*
X029993Y011253D01*
X029900Y011160D01*
X029900Y010627D01*
X029993Y010533D01*
X030526Y010533D01*
X030620Y010627D01*
X030620Y010633D01*
X031026Y010633D01*
X031120Y010727D01*
X031120Y011184D01*
X031455Y011184D01*
X031467Y011196D01*
X031480Y011184D01*
X031927Y011184D01*
X031940Y011196D01*
X031952Y011184D01*
X032400Y011184D01*
X032412Y011196D01*
X032425Y011184D01*
X032872Y011184D01*
X032885Y011196D01*
X032897Y011184D01*
X033345Y011184D01*
X033357Y011196D01*
X033370Y011184D01*
X033639Y011184D01*
X033247Y010349D01*
X032772Y010349D01*
X032760Y010336D01*
X032747Y010349D01*
X032103Y010349D01*
X032009Y010255D01*
X032009Y010103D01*
X031249Y010103D01*
X031249Y010255D01*
X031156Y010349D01*
X030511Y010349D01*
X030460Y010297D01*
X030408Y010349D01*
X029777Y010349D01*
X028940Y011116D01*
X028940Y011573D01*
X028945Y011609D01*
X028940Y011629D01*
X028940Y011649D01*
X028926Y011682D01*
X028917Y011717D01*
X028905Y011733D01*
X028897Y011752D01*
X028872Y011777D01*
X028640Y012087D01*
X028640Y017077D01*
X028875Y017313D01*
X030344Y017313D01*
X030346Y017311D01*
X030286Y017311D01*
X030105Y017311D01*
X030059Y017299D01*
X030018Y017275D01*
X029985Y017242D01*
X029961Y017201D01*
X029949Y017155D01*
X029949Y016875D01*
X029949Y016596D01*
X029961Y016550D01*
X029985Y016509D01*
X030018Y016475D01*
X030059Y016452D01*
X030105Y016439D01*
X030286Y016439D01*
X030286Y016875D01*
X029949Y016875D01*
X030286Y016875D01*
X030286Y016875D01*
X030286Y016875D01*
X030286Y016439D01*
X030400Y016439D01*
X030400Y015927D01*
X030493Y015833D01*
X031026Y015833D01*
X031120Y015927D01*
X031120Y016459D01*
X031455Y016459D01*
X031467Y016472D01*
X031480Y016459D01*
X031927Y016459D01*
X031940Y016472D01*
X031952Y016459D01*
X032400Y016459D01*
X032412Y016472D01*
X032425Y016459D01*
X032872Y016459D01*
X032885Y016472D01*
X032897Y016459D01*
X033345Y016459D01*
X033357Y016472D01*
X033370Y016459D01*
X033817Y016459D01*
X033830Y016472D01*
X033842Y016459D01*
X034290Y016459D01*
X034302Y016472D01*
X034314Y016459D01*
X034762Y016459D01*
X034774Y016472D01*
X034787Y016459D01*
X035234Y016459D01*
X035237Y016462D01*
X035256Y016452D01*
X035302Y016439D01*
X035483Y016439D01*
X035483Y016875D01*
X035483Y016875D01*
X035483Y016439D01*
X035664Y016439D01*
X035710Y016452D01*
X035751Y016475D01*
X035785Y016509D01*
X035808Y016550D01*
X035821Y016596D01*
X035821Y016875D01*
X035483Y016875D01*
X035483Y016875D01*
X035483Y017311D01*
X035302Y017311D01*
X035256Y017299D01*
X035237Y017288D01*
X035234Y017291D01*
X034787Y017291D01*
X034774Y017279D01*
X034762Y017291D01*
X034314Y017291D01*
X034302Y017279D01*
X034290Y017291D01*
X033842Y017291D01*
X033830Y017279D01*
X033817Y017291D01*
X033370Y017291D01*
X033357Y017279D01*
X033345Y017291D01*
X032897Y017291D01*
X032885Y017279D01*
X032872Y017291D01*
X032425Y017291D01*
X032412Y017279D01*
X032400Y017291D01*
X031952Y017291D01*
X031940Y017279D01*
X031927Y017291D01*
X031480Y017291D01*
X031467Y017279D01*
X031455Y017291D01*
X031040Y017291D01*
X031040Y017349D01*
X030997Y017452D01*
X030618Y017831D01*
X030515Y017873D01*
X028704Y017873D01*
X028601Y017831D01*
X028522Y017752D01*
X028122Y017352D01*
X028080Y017249D01*
X028080Y012013D01*
X028074Y011978D01*
X028080Y011958D01*
X028080Y011939D01*
X027921Y012269D01*
X027922Y012305D01*
X027884Y012344D01*
X027861Y012393D01*
X027827Y012405D01*
X027802Y012431D01*
X027748Y012432D01*
X027697Y012450D01*
X027680Y012442D01*
X027680Y012453D01*
X027807Y012453D01*
X027895Y012490D01*
X027963Y012557D01*
X028000Y012646D01*
X028000Y016041D01*
X027963Y016129D01*
X027895Y016197D01*
X027807Y016233D01*
X027712Y016233D01*
X027510Y016233D01*
X027510Y016355D01*
X027416Y016449D01*
X027334Y016449D01*
X027334Y019322D01*
X027298Y019410D01*
X027230Y019478D01*
X027142Y019514D01*
X026254Y019514D01*
X026254Y019734D01*
X026254Y019626D02*
X031887Y019626D01*
X031626Y019468D02*
X027240Y019468D01*
X027334Y019309D02*
X031365Y019309D01*
X031103Y019151D02*
X027334Y019151D01*
X027334Y018992D02*
X030842Y018992D01*
X030581Y018834D02*
X027334Y018834D01*
X027334Y018675D02*
X029915Y018675D01*
X029900Y018517D02*
X027334Y018517D01*
X027334Y018358D02*
X029900Y018358D01*
X029900Y018200D02*
X027334Y018200D01*
X027334Y018041D02*
X029985Y018041D01*
X030534Y018041D02*
X033100Y018041D01*
X033100Y018058D02*
X033100Y017845D01*
X033211Y017733D01*
X033368Y017733D01*
X033480Y017845D01*
X033480Y017892D01*
X033638Y017733D01*
X033795Y017733D01*
X033879Y017817D01*
X033962Y017733D01*
X034333Y017733D01*
X034444Y017845D01*
X034444Y017951D01*
X034525Y018032D01*
X034616Y017850D01*
X034637Y017789D01*
X034651Y017782D01*
X034657Y017768D01*
X034719Y017747D01*
X034778Y017718D01*
X034792Y017723D01*
X034807Y017718D01*
X034865Y017747D01*
X034927Y017768D01*
X034934Y017782D01*
X034947Y017789D01*
X034968Y017850D01*
X035211Y018336D01*
X035161Y018485D01*
X035020Y018555D01*
X034871Y018506D01*
X034792Y018348D01*
X034713Y018506D01*
X034564Y018555D01*
X034423Y018485D01*
X034415Y018459D01*
X034333Y018540D01*
X033962Y018540D01*
X033907Y018485D01*
X033907Y018536D01*
X033799Y018643D01*
X033795Y018647D01*
X033688Y018754D01*
X033211Y018754D01*
X033100Y018643D01*
X033100Y018058D01*
X033100Y018200D02*
X030620Y018200D01*
X030620Y018358D02*
X033100Y018358D01*
X033100Y018517D02*
X030868Y018517D01*
X031129Y018675D02*
X033132Y018675D01*
X033767Y018675D02*
X035817Y018675D01*
X035789Y018647D02*
X035896Y018754D01*
X036267Y018754D01*
X036268Y018752D01*
X036485Y018536D01*
X036485Y018378D01*
X036373Y018267D01*
X036216Y018267D01*
X036109Y018374D01*
X036058Y018374D01*
X036058Y018113D01*
X036109Y018113D01*
X036216Y018220D01*
X036373Y018220D01*
X036485Y018109D01*
X036485Y017951D01*
X036267Y017733D01*
X035896Y017733D01*
X035784Y017845D01*
X035678Y017951D01*
X035678Y018536D01*
X035789Y018647D01*
X035678Y018517D02*
X035098Y018517D01*
X035203Y018358D02*
X035678Y018358D01*
X035678Y018200D02*
X035143Y018200D01*
X035064Y018041D02*
X035678Y018041D01*
X035746Y017883D02*
X034984Y017883D01*
X034819Y017724D02*
X036880Y017724D01*
X036880Y017566D02*
X030883Y017566D01*
X031015Y017407D02*
X036880Y017407D01*
X036880Y017249D02*
X035777Y017249D01*
X035785Y017242D02*
X035751Y017275D01*
X035710Y017299D01*
X035664Y017311D01*
X035483Y017311D01*
X035483Y016875D01*
X035483Y016875D01*
X035821Y016875D01*
X035821Y017155D01*
X035808Y017201D01*
X035785Y017242D01*
X035821Y017090D02*
X036526Y017090D01*
X036484Y016932D02*
X035821Y016932D01*
X035821Y016773D02*
X036484Y016773D01*
X036484Y016615D02*
X035821Y016615D01*
X035718Y016456D02*
X036880Y016456D01*
X036484Y016298D02*
X031120Y016298D01*
X031120Y016456D02*
X035248Y016456D01*
X035483Y016456D02*
X035483Y016456D01*
X035483Y016615D02*
X035483Y016615D01*
X035483Y016773D02*
X035483Y016773D01*
X035483Y016932D02*
X035483Y016932D01*
X035483Y017090D02*
X035483Y017090D01*
X035483Y017249D02*
X035483Y017249D01*
X034765Y017724D02*
X030724Y017724D01*
X030286Y017311D02*
X030286Y016875D01*
X030286Y017311D01*
X030286Y017249D02*
X030286Y017249D01*
X030286Y017090D02*
X030286Y017090D01*
X030286Y016932D02*
X030286Y016932D01*
X030286Y016875D02*
X030286Y016875D01*
X030286Y016773D02*
X030286Y016773D01*
X030286Y016615D02*
X030286Y016615D01*
X030286Y016456D02*
X030286Y016456D01*
X030400Y016298D02*
X029915Y016298D01*
X029915Y016139D02*
X030400Y016139D01*
X030400Y015981D02*
X029842Y015981D01*
X029600Y015822D02*
X036594Y015822D01*
X036484Y015981D02*
X031120Y015981D01*
X031120Y016139D02*
X036484Y016139D01*
X036880Y015664D02*
X029613Y015664D01*
X029620Y015505D02*
X036880Y015505D01*
X036880Y015347D02*
X029620Y015347D01*
X029582Y015188D02*
X036880Y015188D01*
X036880Y015030D02*
X033549Y015030D01*
X033526Y015053D02*
X032993Y015053D01*
X032900Y014960D01*
X032900Y014427D01*
X032993Y014333D01*
X033050Y014333D01*
X033050Y013353D01*
X032893Y013353D01*
X032800Y013260D01*
X032800Y012727D01*
X032893Y012633D01*
X033426Y012633D01*
X033520Y012727D01*
X033520Y013260D01*
X033470Y013310D01*
X033470Y014333D01*
X033526Y014333D01*
X033620Y014427D01*
X033620Y014960D01*
X033526Y015053D01*
X033620Y014871D02*
X036880Y014871D01*
X036880Y014713D02*
X033620Y014713D01*
X033620Y014554D02*
X036880Y014554D01*
X036880Y014396D02*
X033588Y014396D01*
X033470Y014237D02*
X036880Y014237D01*
X036880Y014079D02*
X033470Y014079D01*
X033470Y013920D02*
X036880Y013920D01*
X036880Y013762D02*
X033470Y013762D01*
X033470Y013603D02*
X036880Y013603D01*
X036880Y013445D02*
X033470Y013445D01*
X033493Y013286D02*
X036880Y013286D01*
X036880Y013128D02*
X033520Y013128D01*
X033520Y012969D02*
X036880Y012969D01*
X036880Y012811D02*
X033520Y012811D01*
X033445Y012652D02*
X036593Y012652D01*
X036484Y012494D02*
X031985Y012494D01*
X032020Y012335D02*
X036484Y012335D01*
X036484Y012177D02*
X032020Y012177D01*
X032020Y012018D02*
X036880Y012018D01*
X036484Y011860D02*
X035801Y011860D01*
X035801Y011701D02*
X036484Y011701D01*
X036484Y011543D02*
X035801Y011543D01*
X035801Y011384D02*
X036527Y011384D01*
X036880Y011226D02*
X035749Y011226D01*
X036880Y011067D02*
X034048Y011067D01*
X033974Y010909D02*
X036880Y010909D01*
X036880Y010750D02*
X033900Y010750D01*
X033825Y010592D02*
X036880Y010592D01*
X036880Y010433D02*
X033751Y010433D01*
X033677Y010275D02*
X036880Y010275D01*
X036880Y010116D02*
X033602Y010116D01*
X033528Y009958D02*
X036880Y009958D01*
X036880Y009799D02*
X033510Y009799D01*
X033510Y009641D02*
X036880Y009641D01*
X036880Y009482D02*
X033461Y009482D01*
X034384Y009165D02*
X036880Y009165D01*
X036880Y009007D02*
X034543Y009007D01*
X034701Y008848D02*
X041318Y008848D01*
X042570Y008848D02*
X042655Y008848D01*
X042630Y008874D02*
X042910Y008593D01*
X042630Y008313D01*
X042630Y007874D01*
X042917Y007587D01*
X042871Y007564D01*
X042801Y007513D01*
X042740Y007452D01*
X042689Y007382D01*
X042650Y007304D01*
X042623Y007222D01*
X042610Y007137D01*
X042610Y007113D01*
X043140Y007113D01*
X043140Y007073D01*
X043180Y007073D01*
X043180Y007113D01*
X044140Y007113D01*
X044140Y007073D01*
X044180Y007073D01*
X044180Y007113D01*
X044710Y007113D01*
X044710Y007137D01*
X044696Y007222D01*
X044669Y007304D01*
X044630Y007382D01*
X044579Y007452D01*
X044518Y007513D01*
X044448Y007564D01*
X044403Y007587D01*
X044690Y007874D01*
X044690Y008313D01*
X044409Y008593D01*
X044690Y008874D01*
X044690Y009313D01*
X044409Y009593D01*
X044690Y009874D01*
X044690Y010313D01*
X044409Y010593D01*
X044690Y010874D01*
X044690Y011313D01*
X044409Y011593D01*
X044690Y011874D01*
X044690Y012313D01*
X044409Y012593D01*
X044690Y012874D01*
X044690Y013313D01*
X044409Y013593D01*
X044690Y013874D01*
X044690Y014313D01*
X044409Y014593D01*
X044690Y014874D01*
X044690Y015313D01*
X044409Y015593D01*
X044690Y015874D01*
X044690Y016313D01*
X044409Y016593D01*
X044690Y016874D01*
X044690Y017313D01*
X044409Y017593D01*
X044690Y017874D01*
X044690Y018313D01*
X044580Y018422D01*
X044605Y018452D01*
X044660Y018506D01*
X044660Y018518D01*
X045015Y018952D01*
X045070Y019006D01*
X045070Y019018D01*
X045077Y019027D01*
X045070Y019104D01*
X045070Y019504D01*
X045680Y018894D01*
X045680Y005792D01*
X045239Y005352D01*
X045194Y005522D01*
X045048Y005775D01*
X044841Y005981D01*
X044588Y006128D01*
X044306Y006203D01*
X044013Y006203D01*
X043731Y006128D01*
X043478Y005981D01*
X043271Y005775D01*
X043125Y005522D01*
X043050Y005239D01*
X043050Y004947D01*
X043125Y004665D01*
X043178Y004573D01*
X042289Y004573D01*
X042460Y004644D01*
X042609Y004793D01*
X042690Y004988D01*
X042690Y005199D01*
X042609Y005394D01*
X042460Y005543D01*
X042265Y005623D01*
X042054Y005623D01*
X041859Y005543D01*
X041710Y005394D01*
X041660Y005271D01*
X041609Y005394D01*
X041460Y005543D01*
X041265Y005623D01*
X041054Y005623D01*
X040859Y005543D01*
X040710Y005394D01*
X040660Y005271D01*
X040609Y005394D01*
X040460Y005543D01*
X040265Y005623D01*
X040054Y005623D01*
X039859Y005543D01*
X039710Y005394D01*
X039660Y005271D01*
X039609Y005394D01*
X039460Y005543D01*
X039265Y005623D01*
X039054Y005623D01*
X038859Y005543D01*
X038710Y005394D01*
X038660Y005271D01*
X038609Y005394D01*
X038460Y005543D01*
X038265Y005623D01*
X038054Y005623D01*
X037859Y005543D01*
X037710Y005394D01*
X037660Y005271D01*
X037609Y005394D01*
X037460Y005543D01*
X037265Y005623D01*
X037054Y005623D01*
X036859Y005543D01*
X036710Y005394D01*
X036660Y005271D01*
X036609Y005394D01*
X036460Y005543D01*
X036265Y005623D01*
X036054Y005623D01*
X035859Y005543D01*
X035710Y005394D01*
X035660Y005271D01*
X035609Y005394D01*
X035460Y005543D01*
X035265Y005623D01*
X035054Y005623D01*
X034859Y005543D01*
X034710Y005394D01*
X034630Y005199D01*
X034630Y004988D01*
X034710Y004793D01*
X034859Y004644D01*
X035030Y004573D01*
X033289Y004573D01*
X033460Y004644D01*
X033609Y004793D01*
X033690Y004988D01*
X033690Y005199D01*
X033609Y005394D01*
X033460Y005543D01*
X033265Y005623D01*
X033054Y005623D01*
X032859Y005543D01*
X032710Y005394D01*
X032660Y005271D01*
X032609Y005394D01*
X032460Y005543D01*
X032265Y005623D01*
X032054Y005623D01*
X031859Y005543D01*
X031710Y005394D01*
X031660Y005271D01*
X031609Y005394D01*
X031460Y005543D01*
X031265Y005623D01*
X031054Y005623D01*
X030859Y005543D01*
X030710Y005394D01*
X030660Y005271D01*
X030609Y005394D01*
X030460Y005543D01*
X030265Y005623D01*
X030054Y005623D01*
X029859Y005543D01*
X029710Y005394D01*
X029660Y005271D01*
X029609Y005394D01*
X029460Y005543D01*
X029265Y005623D01*
X029054Y005623D01*
X028859Y005543D01*
X028710Y005394D01*
X028660Y005271D01*
X028609Y005394D01*
X028460Y005543D01*
X028265Y005623D01*
X028054Y005623D01*
X027859Y005543D01*
X027710Y005394D01*
X027660Y005271D01*
X027609Y005394D01*
X027460Y005543D01*
X027265Y005623D01*
X027054Y005623D01*
X026859Y005543D01*
X026710Y005394D01*
X026660Y005271D01*
X026609Y005394D01*
X026460Y005543D01*
X026265Y005623D01*
X026054Y005623D01*
X025859Y005543D01*
X025710Y005394D01*
X025630Y005199D01*
X025630Y004988D01*
X025710Y004793D01*
X025859Y004644D01*
X026030Y004573D01*
X024289Y004573D01*
X024460Y004644D01*
X024609Y004793D01*
X024690Y004988D01*
X024690Y005199D01*
X024665Y005259D01*
X025563Y006157D01*
X025600Y006246D01*
X025600Y008433D01*
X025626Y008433D01*
X025720Y008527D01*
X025720Y009060D01*
X025626Y009153D01*
X025093Y009153D01*
X025000Y009060D01*
X025000Y008527D01*
X025093Y008433D01*
X025120Y008433D01*
X025120Y006393D01*
X024325Y005598D01*
X024265Y005623D01*
X024054Y005623D01*
X023859Y005543D01*
X023710Y005394D01*
X023671Y005299D01*
X023669Y005304D01*
X023630Y005382D01*
X023579Y005452D01*
X023518Y005513D01*
X023448Y005564D01*
X023371Y005603D01*
X023288Y005630D01*
X023203Y005643D01*
X023180Y005643D01*
X023180Y005113D01*
X023140Y005113D01*
X023140Y005643D01*
X023116Y005643D01*
X023031Y005630D01*
X022948Y005603D01*
X022871Y005564D01*
X022801Y005513D01*
X022740Y005452D01*
X022689Y005382D01*
X022660Y005323D01*
X022630Y005382D01*
X022579Y005452D01*
X022518Y005513D01*
X022448Y005564D01*
X022371Y005603D01*
X022288Y005630D01*
X022203Y005643D01*
X022180Y005643D01*
X022180Y005113D01*
X023140Y005113D01*
X023140Y005073D01*
X022610Y005073D01*
X022180Y005073D01*
X022180Y005113D01*
X022140Y005113D01*
X022140Y005643D01*
X022116Y005643D01*
X022031Y005630D01*
X021948Y005603D01*
X021871Y005564D01*
X021801Y005513D01*
X021740Y005452D01*
X021689Y005382D01*
X021650Y005304D01*
X021648Y005299D01*
X021609Y005394D01*
X021460Y005543D01*
X021370Y005580D01*
X021370Y005606D01*
X021375Y005612D01*
X023796Y006483D01*
X023846Y006483D01*
X023875Y006512D01*
X023912Y006525D01*
X023934Y006571D01*
X024170Y006806D01*
X024170Y009033D01*
X024226Y009033D01*
X024320Y009127D01*
X024320Y009660D01*
X024226Y009753D01*
X023693Y009753D01*
X023600Y009660D01*
X023600Y009127D01*
X023693Y009033D01*
X023750Y009033D01*
X023750Y006980D01*
X023644Y006875D01*
X021223Y006003D01*
X021173Y006003D01*
X021144Y005975D01*
X021107Y005961D01*
X021085Y005916D01*
X020950Y005780D01*
X020950Y005580D01*
X020859Y005543D01*
X020710Y005394D01*
X020660Y005271D01*
X020609Y005394D01*
X020532Y005470D01*
X021349Y006287D01*
X022607Y007351D01*
X022618Y007356D01*
X022649Y007387D01*
X022683Y007416D01*
X022688Y007426D01*
X022697Y007435D01*
X022714Y007475D01*
X022734Y007515D01*
X022735Y007527D01*
X022740Y007538D01*
X022740Y007582D01*
X022743Y007626D01*
X022740Y007637D01*
X022740Y008047D01*
X022820Y008127D01*
X022820Y008660D01*
X022740Y008740D01*
X022740Y011647D01*
X022820Y011727D01*
X022820Y012260D01*
X022726Y012353D01*
X022193Y012353D01*
X022100Y012260D01*
X022100Y011727D01*
X022180Y011647D01*
X022180Y008740D01*
X022100Y008660D01*
X022100Y008127D01*
X022180Y008047D01*
X022180Y007723D01*
X021012Y006735D01*
X021001Y006731D01*
X020970Y006700D01*
X020936Y006671D01*
X020931Y006660D01*
X019922Y005652D01*
X019881Y005551D01*
X019859Y005543D01*
X019710Y005394D01*
X019660Y005271D01*
X019609Y005394D01*
X019460Y005543D01*
X019265Y005623D01*
X019054Y005623D01*
X018859Y005543D01*
X018710Y005394D01*
X018630Y005199D01*
X018630Y004988D01*
X018710Y004793D01*
X018859Y004644D01*
X019030Y004573D01*
X012641Y004573D01*
X012694Y004665D01*
X012769Y004947D01*
X012769Y005238D01*
X012950Y005018D01*
X012950Y005006D01*
X013004Y004952D01*
X013052Y004893D01*
X013064Y004892D01*
X013073Y004883D01*
X013149Y004883D01*
X013225Y004876D01*
X013234Y004883D01*
X016100Y004883D01*
X016100Y004827D01*
X016193Y004733D01*
X016726Y004733D01*
X016820Y004827D01*
X016820Y005360D01*
X016726Y005453D01*
X016193Y005453D01*
X016100Y005360D01*
X016100Y005303D01*
X013259Y005303D01*
X012470Y006268D01*
X012470Y006280D01*
X012415Y006334D01*
X012367Y006394D01*
X012355Y006395D01*
X012346Y006403D01*
X012270Y006403D01*
X012194Y006411D01*
X012185Y006403D01*
X011138Y006403D01*
X011131Y006409D01*
X011052Y006403D01*
X010973Y006403D01*
X010966Y006397D01*
X010958Y006397D01*
X010906Y006337D01*
X010850Y006280D01*
X010850Y006272D01*
X009664Y004903D01*
X007246Y004903D01*
X005983Y006167D01*
X005983Y009297D01*
X006075Y009297D01*
X006169Y009391D01*
X006169Y009996D01*
X006075Y010090D01*
X005470Y010090D01*
X005377Y009996D01*
X005377Y009391D01*
X005470Y009297D01*
X005563Y009297D01*
X005563Y005993D01*
X006950Y004606D01*
X006983Y004573D01*
X004640Y004573D01*
X004640Y008733D01*
X005126Y008733D01*
X005220Y008827D01*
X005220Y009297D01*
X005249Y009297D01*
X005342Y009391D01*
X005342Y009996D01*
X005249Y010090D01*
X004644Y010090D01*
X004640Y010085D01*
X004640Y018487D01*
X004693Y018433D01*
X005226Y018433D01*
X005320Y018527D01*
X005320Y019060D01*
X005315Y019064D01*
X005342Y019091D01*
X005342Y019696D01*
X005249Y019790D01*
X004644Y019790D01*
X004640Y019785D01*
X004640Y024613D01*
X011178Y024613D01*
X011125Y024522D01*
X011050Y024239D01*
X011050Y023947D01*
X011125Y023665D01*
X011271Y023412D01*
X011478Y023205D01*
X011731Y023059D01*
X012013Y022983D01*
X012306Y022983D01*
X012588Y023059D01*
X012841Y023205D01*
X013048Y023412D01*
X013194Y023665D01*
X013269Y023947D01*
X013269Y024239D01*
X013194Y024522D01*
X013141Y024613D01*
X015430Y024613D01*
X015259Y024543D01*
X015110Y024394D01*
X015030Y024199D01*
X015030Y023988D01*
X015110Y023793D01*
X015259Y023644D01*
X015454Y023563D01*
X015665Y023563D01*
X015860Y023644D01*
X016009Y023793D01*
X016048Y023888D01*
X016050Y023882D01*
X016089Y023805D01*
X016140Y023735D01*
X016201Y023674D01*
X016271Y023623D01*
X016348Y023584D01*
X016431Y023557D01*
X016516Y023543D01*
X016540Y023543D01*
X016540Y024073D01*
X016580Y024073D01*
X016580Y023543D01*
X016603Y023543D01*
X016688Y023557D01*
X016771Y023584D01*
X016848Y023623D01*
X016918Y023674D01*
X016979Y023735D01*
X017030Y023805D01*
X017069Y023882D01*
X017071Y023888D01*
X017110Y023793D01*
X017259Y023644D01*
X017350Y023607D01*
X017350Y023067D01*
X016656Y022200D01*
X014099Y022113D01*
X014019Y022116D01*
X014013Y022111D01*
X014005Y022110D01*
X013951Y022052D01*
X013892Y021997D01*
X013892Y021989D01*
X013887Y021983D01*
X013889Y021903D01*
X013860Y020963D01*
X013793Y020963D01*
X013700Y020870D01*
X013700Y020457D01*
X013676Y020457D01*
X013676Y020616D01*
X013673Y020619D01*
X013684Y020638D01*
X013696Y020684D01*
X013696Y020757D01*
X013696Y020830D01*
X013684Y020875D01*
X013660Y020916D01*
X013627Y020950D01*
X013586Y020974D01*
X013540Y020986D01*
X013211Y020986D01*
X012882Y020986D01*
X012836Y020974D01*
X012795Y020950D01*
X012762Y020916D01*
X012738Y020875D01*
X012726Y020830D01*
X012726Y020757D01*
X013211Y020757D01*
X013211Y020986D01*
X013211Y020757D01*
X013211Y020757D01*
X013211Y020757D01*
X013696Y020757D01*
X013211Y020757D01*
X013211Y020757D01*
X012726Y020757D01*
X012726Y020684D01*
X012738Y020638D01*
X012749Y020619D01*
X012746Y020616D01*
X012746Y020385D01*
X012758Y020373D01*
X012746Y020360D01*
X012746Y020292D01*
X012743Y020293D01*
X012189Y020293D01*
X012189Y019173D01*
X012746Y019173D01*
X012746Y019106D01*
X012758Y019093D01*
X012746Y019081D01*
X012746Y019013D01*
X012189Y019013D01*
X012189Y017894D01*
X012743Y017894D01*
X012746Y017895D01*
X012746Y017826D01*
X012758Y017814D01*
X012746Y017801D01*
X012746Y017570D01*
X012758Y017558D01*
X012746Y017545D01*
X012746Y017314D01*
X012840Y017221D01*
X012840Y016921D01*
X011597Y017852D01*
X011556Y017894D01*
X012029Y017894D01*
X012029Y019013D01*
X012189Y019013D01*
X012189Y019173D01*
X012029Y019173D01*
X012029Y019013D01*
X011471Y019013D01*
X011471Y019081D01*
X011459Y019093D01*
X011471Y019106D01*
X011471Y019173D01*
X012029Y019173D01*
X012029Y020293D01*
X011556Y020293D01*
X011670Y020406D01*
X011831Y020568D01*
X012160Y020568D01*
X012254Y020662D01*
X012254Y021194D01*
X012160Y021288D01*
X011628Y021288D01*
X011585Y021245D01*
X011585Y021441D01*
X011491Y021535D01*
X010959Y021535D01*
X010865Y021441D01*
X010865Y020966D01*
X010635Y020966D01*
X010578Y020909D01*
X010570Y020932D01*
X010570Y021399D01*
X010726Y021399D01*
X010820Y021492D01*
X010820Y022025D01*
X010726Y022119D01*
X010193Y022119D01*
X010100Y022025D01*
X010100Y021492D01*
X010150Y021442D01*
X010150Y021330D01*
X010091Y021388D01*
X009570Y021388D01*
X009570Y022080D01*
X009446Y022203D01*
X008746Y022903D01*
X007373Y022903D01*
X007250Y022780D01*
X007150Y022680D01*
X007150Y022006D01*
X007273Y021883D01*
X007473Y021683D01*
X008550Y021683D01*
X008550Y021100D01*
X008420Y021230D01*
X008420Y021560D01*
X008326Y021653D01*
X007793Y021653D01*
X007700Y021560D01*
X007700Y021061D01*
X007685Y021056D01*
X007642Y021060D01*
X007606Y021030D01*
X007375Y020953D01*
X007323Y020953D01*
X007296Y020927D01*
X007261Y020915D01*
X007237Y020868D01*
X007197Y020828D01*
X007189Y020827D01*
X007136Y020767D01*
X007080Y020710D01*
X007080Y020702D01*
X007074Y020696D01*
X007080Y020616D01*
X007080Y020536D01*
X007085Y020531D01*
X007115Y020083D01*
X007107Y020072D01*
X007121Y019998D01*
X007126Y019923D01*
X007136Y019914D01*
X007138Y019901D01*
X007200Y019858D01*
X007257Y019808D01*
X007270Y019809D01*
X007524Y019632D01*
X007573Y019583D01*
X007594Y019583D01*
X007611Y019571D01*
X007678Y019583D01*
X008373Y019583D01*
X008753Y019203D01*
X008373Y019203D01*
X008173Y019003D01*
X007473Y019003D01*
X007273Y018803D01*
X007150Y018680D01*
X007150Y018006D01*
X007450Y017706D01*
X007573Y017583D01*
X007800Y017583D01*
X007800Y017127D01*
X007893Y017033D01*
X008323Y017033D01*
X008223Y016933D01*
X007503Y016933D01*
X007373Y016803D01*
X007250Y016680D01*
X007250Y015906D01*
X007450Y015706D01*
X007573Y015583D01*
X008146Y015583D01*
X008300Y015736D01*
X008300Y015527D01*
X008393Y015433D01*
X008926Y015433D01*
X009020Y015527D01*
X009020Y015583D01*
X010500Y015583D01*
X010500Y015527D01*
X010593Y015433D01*
X011126Y015433D01*
X011220Y015527D01*
X011220Y016060D01*
X011126Y016153D01*
X010593Y016153D01*
X010500Y016060D01*
X010500Y016003D01*
X009020Y016003D01*
X009020Y016060D01*
X008926Y016153D01*
X008616Y016153D01*
X009646Y017183D01*
X009770Y017306D01*
X009770Y018106D01*
X009846Y018183D01*
X010378Y018183D01*
X010186Y017953D01*
X009893Y017953D01*
X009800Y017860D01*
X009800Y017327D01*
X009893Y017233D01*
X010426Y017233D01*
X010520Y017327D01*
X010520Y017697D01*
X010541Y017723D01*
X010541Y017570D01*
X010544Y017567D01*
X010534Y017549D01*
X010521Y017503D01*
X010521Y017430D01*
X011006Y017430D01*
X011006Y017430D01*
X010521Y017430D01*
X010521Y017357D01*
X010534Y017311D01*
X010557Y017270D01*
X010591Y017237D01*
X010632Y017213D01*
X010678Y017201D01*
X011006Y017201D01*
X011006Y017430D01*
X011006Y017430D01*
X011006Y017201D01*
X011335Y017201D01*
X011381Y017213D01*
X011422Y017237D01*
X011456Y017270D01*
X011479Y017311D01*
X011491Y017357D01*
X011491Y017407D01*
X012922Y016334D01*
X012973Y016283D01*
X012990Y016283D01*
X013003Y016273D01*
X013074Y016283D01*
X013500Y016283D01*
X013500Y015975D01*
X012657Y014903D01*
X007046Y014903D01*
X005983Y015967D01*
X005983Y018997D01*
X006075Y018997D01*
X006169Y019091D01*
X006169Y019696D01*
X006075Y019790D01*
X005470Y019790D01*
X005377Y019696D01*
X005377Y019091D01*
X005470Y018997D01*
X005563Y018997D01*
X005563Y015793D01*
X006750Y014606D01*
X006873Y014483D01*
X012687Y014483D01*
X012698Y014474D01*
X012772Y014483D01*
X012846Y014483D01*
X012857Y014493D01*
X012871Y014495D01*
X012917Y014554D01*
X012970Y014606D01*
X012970Y014621D01*
X013844Y015733D01*
X014126Y015733D01*
X014220Y015827D01*
X014220Y016283D01*
X016749Y016283D01*
X016825Y016276D01*
X016834Y016283D01*
X016846Y016283D01*
X016901Y016337D01*
X017934Y017183D01*
X018037Y017183D01*
X018039Y017179D01*
X018145Y017073D01*
X018284Y017015D01*
X018435Y017015D01*
X018574Y017073D01*
X018680Y017179D01*
X018738Y017318D01*
X018738Y017469D01*
X018680Y017607D01*
X018574Y017714D01*
X018435Y017771D01*
X018284Y017771D01*
X018145Y017714D01*
X018039Y017607D01*
X018037Y017603D01*
X017870Y017603D01*
X017794Y017611D01*
X017785Y017603D01*
X017773Y017603D01*
X017718Y017549D01*
X017570Y017427D01*
X017570Y018071D01*
X017574Y018073D01*
X017680Y018179D01*
X017738Y018318D01*
X017738Y018469D01*
X017680Y018607D01*
X017574Y018714D01*
X017435Y018771D01*
X017435Y018771D01*
X017946Y019283D01*
X020046Y019283D01*
X020170Y019406D01*
X020546Y019783D01*
X025314Y019783D01*
X025265Y019734D01*
X025265Y018814D01*
X025359Y018721D01*
X026160Y018721D01*
X026254Y018814D01*
X026254Y019034D01*
X026854Y019034D01*
X026854Y016449D01*
X026772Y016449D01*
X026760Y016436D01*
X026747Y016449D01*
X026251Y016449D01*
X026254Y016452D01*
X026254Y017372D01*
X026160Y017466D01*
X025359Y017466D01*
X025265Y017372D01*
X025265Y017152D01*
X023665Y017152D01*
X023665Y017870D01*
X023571Y017963D01*
X022328Y017963D01*
X022235Y017870D01*
X022235Y017117D01*
X022328Y017023D01*
X023146Y017023D01*
X023120Y016960D01*
X023120Y016553D01*
X023093Y016553D01*
X023000Y016460D01*
X023000Y016003D01*
X021080Y016003D01*
X021080Y016084D01*
X021050Y016114D01*
X021050Y017023D01*
X021181Y017023D01*
X021275Y017117D01*
X021275Y017870D01*
X021181Y017963D01*
X020705Y017963D01*
X020657Y017983D01*
X020462Y017983D01*
X020414Y017963D01*
X019938Y017963D01*
X019845Y017870D01*
X019845Y017117D01*
X019938Y017023D01*
X020070Y017023D01*
X020070Y016213D01*
X020068Y016213D01*
X017868Y014013D01*
X017068Y014013D01*
X016940Y013884D01*
X016940Y013002D01*
X017068Y012873D01*
X017168Y012773D01*
X018951Y012773D01*
X019080Y012902D01*
X019280Y013102D01*
X019280Y014202D01*
X020251Y015173D01*
X020951Y015173D01*
X021080Y015302D01*
X021080Y015583D01*
X023000Y015583D01*
X023000Y015127D01*
X023093Y015033D01*
X023626Y015033D01*
X023720Y015127D01*
X023720Y015153D01*
X023851Y015153D01*
X023863Y015141D01*
X024020Y015141D01*
X024020Y014944D01*
X023898Y014944D01*
X023804Y014850D01*
X023804Y014206D01*
X023817Y014193D01*
X023804Y014181D01*
X023804Y013536D01*
X023898Y013443D01*
X023983Y013443D01*
X023900Y013360D01*
X023900Y012827D01*
X023993Y012733D01*
X024526Y012733D01*
X024620Y012827D01*
X024620Y013360D01*
X024536Y013443D01*
X024621Y013443D01*
X024686Y013508D01*
X024686Y013483D01*
X025192Y013483D01*
X025192Y013891D01*
X024842Y013891D01*
X024796Y013878D01*
X024755Y013855D01*
X024722Y013821D01*
X024715Y013809D01*
X024715Y014181D01*
X024702Y014193D01*
X024715Y014206D01*
X024715Y014423D01*
X024800Y014338D01*
X025719Y014338D01*
X025800Y014418D01*
X025800Y014227D01*
X025836Y014190D01*
X025836Y013850D01*
X025893Y013793D01*
X025836Y013736D01*
X025836Y013356D01*
X025930Y013262D01*
X026389Y013262D01*
X026483Y013356D01*
X026483Y013736D01*
X026426Y013793D01*
X026483Y013850D01*
X026483Y014190D01*
X026520Y014227D01*
X026520Y014671D01*
X026573Y014618D01*
X026704Y014618D01*
X026704Y014506D01*
X026707Y014503D01*
X026697Y014484D01*
X026684Y014438D01*
X026684Y014207D01*
X027112Y014207D01*
X027112Y014111D01*
X027207Y014111D01*
X027207Y013723D01*
X027478Y013723D01*
X027520Y013734D01*
X027520Y012933D01*
X026112Y012933D01*
X026091Y012925D01*
X025930Y012925D01*
X025836Y012831D01*
X025836Y012450D01*
X025838Y012449D01*
X025572Y012449D01*
X025569Y012446D01*
X025550Y012456D01*
X025504Y012469D01*
X025273Y012469D01*
X025273Y012041D01*
X025177Y012041D01*
X025177Y011945D01*
X024789Y011945D01*
X024789Y011674D01*
X024792Y011663D01*
X024746Y011663D01*
X024665Y011668D01*
X024660Y011663D01*
X024653Y011663D01*
X024643Y011653D01*
X024193Y011653D01*
X024100Y011560D01*
X024100Y011027D01*
X024193Y010933D01*
X024700Y010933D01*
X024700Y010827D01*
X024793Y010733D01*
X025326Y010733D01*
X025420Y010827D01*
X025420Y010883D01*
X026023Y010883D01*
X026000Y010860D01*
X026000Y010327D01*
X026093Y010233D01*
X026626Y010233D01*
X026720Y010327D01*
X026720Y010383D01*
X026871Y010383D01*
X027048Y010203D01*
X024354Y010203D01*
X023880Y010743D01*
X023880Y011133D01*
X023936Y011133D01*
X024030Y011227D01*
X024030Y011760D01*
X023936Y011853D01*
X023403Y011853D01*
X023310Y011760D01*
X023310Y011227D01*
X023403Y011133D01*
X023460Y011133D01*
X023460Y010670D01*
X023454Y010590D01*
X023460Y010584D01*
X023460Y010576D01*
X023516Y010520D01*
X024050Y009914D01*
X024050Y009906D01*
X024106Y009850D01*
X024159Y009789D01*
X024167Y009789D01*
X024173Y009783D01*
X024253Y009783D01*
X024333Y009778D01*
X024339Y009783D01*
X026973Y009783D01*
X028560Y008196D01*
X028560Y008186D01*
X028683Y008063D01*
X033337Y008063D01*
X034114Y007342D01*
X034173Y007283D01*
X034177Y007283D01*
X034180Y007280D01*
X034263Y007283D01*
X041868Y007283D01*
X041954Y007282D01*
X041955Y007283D01*
X041956Y007283D01*
X042017Y007344D01*
X042445Y007763D01*
X042446Y007763D01*
X042507Y007824D01*
X042569Y007884D01*
X042569Y007885D01*
X042570Y007886D01*
X042570Y007972D01*
X042570Y008058D01*
X042570Y008059D01*
X042570Y018125D01*
X042630Y018208D01*
X042630Y017874D01*
X042910Y017593D01*
X042630Y017313D01*
X042630Y016874D01*
X042910Y016593D01*
X042630Y016313D01*
X042630Y015874D01*
X042910Y015593D01*
X042630Y015313D01*
X042630Y014874D01*
X042910Y014593D01*
X042630Y014313D01*
X042630Y013874D01*
X042910Y013593D01*
X042630Y013313D01*
X042630Y012874D01*
X042910Y012593D01*
X042630Y012313D01*
X042630Y011874D01*
X042910Y011593D01*
X042630Y011313D01*
X042630Y010874D01*
X042910Y010593D01*
X042630Y010313D01*
X042630Y009874D01*
X042910Y009593D01*
X042630Y009313D01*
X042630Y008874D01*
X042630Y009007D02*
X042570Y009007D01*
X042570Y009165D02*
X042630Y009165D01*
X042640Y009324D02*
X042570Y009324D01*
X042570Y009482D02*
X042799Y009482D01*
X042862Y009641D02*
X042570Y009641D01*
X042570Y009799D02*
X042704Y009799D01*
X042630Y009958D02*
X042570Y009958D01*
X042570Y010116D02*
X042630Y010116D01*
X042630Y010275D02*
X042570Y010275D01*
X042570Y010433D02*
X042750Y010433D01*
X042908Y010592D02*
X042570Y010592D01*
X042570Y010750D02*
X042753Y010750D01*
X042630Y010909D02*
X042570Y010909D01*
X042570Y011067D02*
X042630Y011067D01*
X042630Y011226D02*
X042570Y011226D01*
X042570Y011384D02*
X042701Y011384D01*
X042570Y011543D02*
X042859Y011543D01*
X042802Y011701D02*
X042570Y011701D01*
X042570Y011860D02*
X042643Y011860D01*
X042630Y012018D02*
X042570Y012018D01*
X042570Y012177D02*
X042630Y012177D01*
X042652Y012335D02*
X042570Y012335D01*
X042570Y012494D02*
X042810Y012494D01*
X042851Y012652D02*
X042570Y012652D01*
X042570Y012811D02*
X042692Y012811D01*
X042630Y012969D02*
X042570Y012969D01*
X042570Y013128D02*
X042630Y013128D01*
X042630Y013286D02*
X042570Y013286D01*
X042570Y013445D02*
X042761Y013445D01*
X042900Y013603D02*
X042570Y013603D01*
X042570Y013762D02*
X042741Y013762D01*
X042630Y013920D02*
X042570Y013920D01*
X042570Y014079D02*
X042630Y014079D01*
X042630Y014237D02*
X042570Y014237D01*
X042570Y014396D02*
X042712Y014396D01*
X042570Y014554D02*
X042871Y014554D01*
X042790Y014713D02*
X042570Y014713D01*
X042570Y014871D02*
X042632Y014871D01*
X042630Y015030D02*
X042570Y015030D01*
X042570Y015188D02*
X042630Y015188D01*
X042664Y015347D02*
X042570Y015347D01*
X042570Y015505D02*
X042822Y015505D01*
X042839Y015664D02*
X042570Y015664D01*
X042570Y015822D02*
X042681Y015822D01*
X042630Y015981D02*
X042570Y015981D01*
X042570Y016139D02*
X042630Y016139D01*
X042630Y016298D02*
X042570Y016298D01*
X042570Y016456D02*
X042773Y016456D01*
X042888Y016615D02*
X042570Y016615D01*
X042570Y016773D02*
X042730Y016773D01*
X042630Y016932D02*
X042570Y016932D01*
X042570Y017090D02*
X042630Y017090D01*
X042630Y017249D02*
X042570Y017249D01*
X042570Y017407D02*
X042724Y017407D01*
X042570Y017566D02*
X042883Y017566D01*
X042779Y017724D02*
X042570Y017724D01*
X042570Y017883D02*
X042630Y017883D01*
X042630Y018041D02*
X042570Y018041D01*
X042624Y018200D02*
X042630Y018200D01*
X044437Y017566D02*
X045680Y017566D01*
X045680Y017724D02*
X044540Y017724D01*
X044690Y017883D02*
X045680Y017883D01*
X045680Y018041D02*
X044690Y018041D01*
X044690Y018200D02*
X045680Y018200D01*
X045680Y018358D02*
X044644Y018358D01*
X044660Y018517D02*
X045680Y018517D01*
X045680Y018675D02*
X044788Y018675D01*
X044918Y018834D02*
X045680Y018834D01*
X045582Y018992D02*
X045056Y018992D01*
X045070Y019151D02*
X045423Y019151D01*
X045265Y019309D02*
X045070Y019309D01*
X045070Y019468D02*
X045106Y019468D01*
X044595Y017407D02*
X045680Y017407D01*
X045680Y017249D02*
X044690Y017249D01*
X044690Y017090D02*
X045680Y017090D01*
X045680Y016932D02*
X044690Y016932D01*
X044589Y016773D02*
X045680Y016773D01*
X045680Y016615D02*
X044431Y016615D01*
X044546Y016456D02*
X045680Y016456D01*
X045680Y016298D02*
X044690Y016298D01*
X044690Y016139D02*
X045680Y016139D01*
X045680Y015981D02*
X044690Y015981D01*
X044638Y015822D02*
X045680Y015822D01*
X045680Y015664D02*
X044480Y015664D01*
X044497Y015505D02*
X045680Y015505D01*
X045680Y015347D02*
X044656Y015347D01*
X044690Y015188D02*
X045680Y015188D01*
X045680Y015030D02*
X044690Y015030D01*
X044687Y014871D02*
X045680Y014871D01*
X045680Y014713D02*
X044529Y014713D01*
X044448Y014554D02*
X045680Y014554D01*
X045680Y014396D02*
X044607Y014396D01*
X044690Y014237D02*
X045680Y014237D01*
X045680Y014079D02*
X044690Y014079D01*
X044690Y013920D02*
X045680Y013920D01*
X045680Y013762D02*
X044578Y013762D01*
X044419Y013603D02*
X045680Y013603D01*
X045680Y013445D02*
X044558Y013445D01*
X044690Y013286D02*
X045680Y013286D01*
X045680Y013128D02*
X044690Y013128D01*
X044690Y012969D02*
X045680Y012969D01*
X045680Y012811D02*
X044627Y012811D01*
X044468Y012652D02*
X045680Y012652D01*
X045680Y012494D02*
X044509Y012494D01*
X044667Y012335D02*
X045680Y012335D01*
X045680Y012177D02*
X044690Y012177D01*
X044690Y012018D02*
X045680Y012018D01*
X045680Y011860D02*
X044676Y011860D01*
X044517Y011701D02*
X045680Y011701D01*
X045680Y011543D02*
X044460Y011543D01*
X044618Y011384D02*
X045680Y011384D01*
X045680Y011226D02*
X044690Y011226D01*
X044690Y011067D02*
X045680Y011067D01*
X045680Y010909D02*
X044690Y010909D01*
X044566Y010750D02*
X045680Y010750D01*
X045680Y010592D02*
X044411Y010592D01*
X044569Y010433D02*
X045680Y010433D01*
X045680Y010275D02*
X044690Y010275D01*
X044690Y010116D02*
X045680Y010116D01*
X045680Y009958D02*
X044690Y009958D01*
X044615Y009799D02*
X045680Y009799D01*
X045680Y009641D02*
X044457Y009641D01*
X044520Y009482D02*
X045680Y009482D01*
X045680Y009324D02*
X044679Y009324D01*
X044690Y009165D02*
X045680Y009165D01*
X045680Y009007D02*
X044690Y009007D01*
X044664Y008848D02*
X045680Y008848D01*
X045680Y008690D02*
X044506Y008690D01*
X044471Y008531D02*
X045680Y008531D01*
X045680Y008373D02*
X044630Y008373D01*
X044690Y008214D02*
X045680Y008214D01*
X045680Y008056D02*
X044690Y008056D01*
X044690Y007897D02*
X045680Y007897D01*
X045680Y007739D02*
X044555Y007739D01*
X044415Y007580D02*
X045680Y007580D01*
X045680Y007422D02*
X044601Y007422D01*
X044683Y007263D02*
X045680Y007263D01*
X045680Y007105D02*
X044180Y007105D01*
X044180Y007073D02*
X044710Y007073D01*
X044710Y007050D01*
X044696Y006965D01*
X044669Y006882D01*
X044630Y006805D01*
X044579Y006735D01*
X044518Y006674D01*
X044448Y006623D01*
X044371Y006584D01*
X044288Y006557D01*
X044203Y006543D01*
X044180Y006543D01*
X044180Y007073D01*
X044140Y007073D02*
X044140Y006543D01*
X044116Y006543D01*
X044031Y006557D01*
X043948Y006584D01*
X043871Y006623D01*
X043801Y006674D01*
X043740Y006735D01*
X043689Y006805D01*
X043660Y006863D01*
X043630Y006805D01*
X043579Y006735D01*
X043518Y006674D01*
X043448Y006623D01*
X043371Y006584D01*
X043288Y006557D01*
X043203Y006543D01*
X043180Y006543D01*
X043180Y007073D01*
X043610Y007073D01*
X044140Y007073D01*
X044140Y007105D02*
X043180Y007105D01*
X043140Y007105D02*
X025600Y007105D01*
X025600Y007263D02*
X042636Y007263D01*
X042718Y007422D02*
X042097Y007422D01*
X042258Y007580D02*
X042904Y007580D01*
X042764Y007739D02*
X042420Y007739D01*
X042570Y007897D02*
X042630Y007897D01*
X042630Y008056D02*
X042570Y008056D01*
X042570Y008214D02*
X042630Y008214D01*
X042570Y008373D02*
X042689Y008373D01*
X042570Y008531D02*
X042848Y008531D01*
X042813Y008690D02*
X042570Y008690D01*
X042610Y007073D02*
X042610Y007050D01*
X042623Y006965D01*
X042650Y006882D01*
X042689Y006805D01*
X042740Y006735D01*
X042801Y006674D01*
X042871Y006623D01*
X042948Y006584D01*
X043031Y006557D01*
X043116Y006543D01*
X043140Y006543D01*
X043140Y007073D01*
X042610Y007073D01*
X042629Y006946D02*
X025600Y006946D01*
X025600Y006788D02*
X042702Y006788D01*
X042862Y006629D02*
X025600Y006629D01*
X025600Y006471D02*
X045680Y006471D01*
X045680Y006629D02*
X044457Y006629D01*
X044617Y006788D02*
X045680Y006788D01*
X045680Y006946D02*
X044690Y006946D01*
X044180Y006946D02*
X044140Y006946D01*
X044140Y006788D02*
X044180Y006788D01*
X044180Y006629D02*
X044140Y006629D01*
X043862Y006629D02*
X043457Y006629D01*
X043617Y006788D02*
X043702Y006788D01*
X043180Y006788D02*
X043140Y006788D01*
X043140Y006946D02*
X043180Y006946D01*
X043180Y006629D02*
X043140Y006629D01*
X043829Y006154D02*
X025559Y006154D01*
X025600Y006312D02*
X045680Y006312D01*
X045680Y006154D02*
X044490Y006154D01*
X044817Y005995D02*
X045680Y005995D01*
X045680Y005837D02*
X044986Y005837D01*
X045103Y005678D02*
X045566Y005678D01*
X045407Y005520D02*
X045194Y005520D01*
X045237Y005361D02*
X045249Y005361D01*
X043502Y005995D02*
X025401Y005995D01*
X025242Y005837D02*
X043333Y005837D01*
X043216Y005678D02*
X025084Y005678D01*
X024925Y005520D02*
X025836Y005520D01*
X025697Y005361D02*
X024767Y005361D01*
X024688Y005203D02*
X025631Y005203D01*
X025630Y005044D02*
X024690Y005044D01*
X024647Y004886D02*
X025672Y004886D01*
X025776Y004727D02*
X024543Y004727D01*
X024160Y005093D02*
X025360Y006293D01*
X025360Y008793D01*
X025720Y008848D02*
X027908Y008848D01*
X028066Y008690D02*
X025720Y008690D01*
X025720Y008531D02*
X028225Y008531D01*
X028383Y008373D02*
X025600Y008373D01*
X025600Y008214D02*
X028542Y008214D01*
X027749Y009007D02*
X025720Y009007D01*
X025000Y009007D02*
X024170Y009007D01*
X024170Y008848D02*
X025000Y008848D01*
X025000Y008690D02*
X024170Y008690D01*
X024170Y008531D02*
X025000Y008531D01*
X025120Y008373D02*
X024170Y008373D01*
X024170Y008214D02*
X025120Y008214D01*
X025120Y008056D02*
X024170Y008056D01*
X024170Y007897D02*
X025120Y007897D01*
X025120Y007739D02*
X024170Y007739D01*
X024170Y007580D02*
X025120Y007580D01*
X025120Y007422D02*
X024170Y007422D01*
X024170Y007263D02*
X025120Y007263D01*
X025120Y007105D02*
X024170Y007105D01*
X024170Y006946D02*
X025120Y006946D01*
X025120Y006788D02*
X024151Y006788D01*
X023993Y006629D02*
X025120Y006629D01*
X025120Y006471D02*
X023761Y006471D01*
X023321Y006312D02*
X025039Y006312D01*
X024881Y006154D02*
X022881Y006154D01*
X022441Y005995D02*
X024722Y005995D01*
X024564Y005837D02*
X022000Y005837D01*
X021560Y005678D02*
X024405Y005678D01*
X023836Y005520D02*
X023508Y005520D01*
X023640Y005361D02*
X023697Y005361D01*
X023180Y005361D02*
X023140Y005361D01*
X023140Y005203D02*
X023180Y005203D01*
X023180Y005520D02*
X023140Y005520D01*
X022811Y005520D02*
X022508Y005520D01*
X022640Y005361D02*
X022679Y005361D01*
X022180Y005361D02*
X022140Y005361D01*
X022140Y005203D02*
X022180Y005203D01*
X022180Y005520D02*
X022140Y005520D01*
X021811Y005520D02*
X021483Y005520D01*
X021622Y005361D02*
X021679Y005361D01*
X020950Y005678D02*
X020740Y005678D01*
X020836Y005520D02*
X020582Y005520D01*
X020622Y005361D02*
X020697Y005361D01*
X019949Y005678D02*
X018190Y005678D01*
X018330Y005783D02*
X019946Y005783D01*
X021970Y007806D01*
X021970Y012706D01*
X022046Y012783D01*
X023449Y012783D01*
X023535Y012783D01*
X023535Y012783D01*
X023536Y012783D01*
X023597Y012844D01*
X023659Y012905D01*
X023659Y012906D01*
X023660Y012906D01*
X023660Y012992D01*
X023661Y013214D01*
X023665Y013217D01*
X023665Y013592D01*
X023669Y014187D01*
X023673Y014270D01*
X023670Y014274D01*
X023670Y014279D01*
X023612Y014338D01*
X023556Y014399D01*
X023552Y014399D01*
X023548Y014403D01*
X023465Y014403D01*
X023131Y014419D01*
X023126Y014423D01*
X023045Y014423D01*
X022963Y014427D01*
X022958Y014423D01*
X019925Y014423D01*
X019925Y014424D01*
X019839Y014423D01*
X019753Y014423D01*
X019752Y014423D01*
X019751Y014423D01*
X019690Y014361D01*
X019630Y014300D01*
X019630Y014299D01*
X019629Y014299D01*
X019630Y014212D01*
X019630Y014126D01*
X019640Y012992D01*
X019640Y012906D01*
X019640Y012905D01*
X019702Y012844D01*
X019763Y012783D01*
X019764Y012783D01*
X019850Y012783D01*
X020240Y012783D01*
X020246Y010353D01*
X019793Y010353D01*
X019700Y010260D01*
X019700Y009948D01*
X018832Y009153D01*
X018593Y009153D01*
X018500Y009060D01*
X018500Y008527D01*
X018593Y008433D01*
X019126Y008433D01*
X019220Y008527D01*
X019220Y008938D01*
X019978Y009633D01*
X020247Y009633D01*
X020249Y008680D01*
X018873Y007303D01*
X015873Y007303D01*
X015750Y007180D01*
X015550Y006980D01*
X015550Y005806D01*
X015673Y005683D01*
X015873Y005483D01*
X017845Y005483D01*
X017916Y005473D01*
X017930Y005483D01*
X017946Y005483D01*
X017997Y005534D01*
X018330Y005783D01*
X017983Y005520D02*
X018836Y005520D01*
X018697Y005361D02*
X016818Y005361D01*
X016820Y005203D02*
X018631Y005203D01*
X018630Y005044D02*
X016820Y005044D01*
X016820Y004886D02*
X018672Y004886D01*
X018776Y004727D02*
X012711Y004727D01*
X012753Y004886D02*
X013070Y004886D01*
X012928Y005044D02*
X012769Y005044D01*
X012769Y005203D02*
X012799Y005203D01*
X013082Y005520D02*
X015836Y005520D01*
X015678Y005678D02*
X012952Y005678D01*
X012823Y005837D02*
X013873Y005837D01*
X013870Y005840D02*
X013904Y005806D01*
X013945Y005783D01*
X013991Y005770D01*
X014390Y005770D01*
X014390Y006326D01*
X014525Y006326D01*
X014525Y006461D01*
X015080Y006461D01*
X015080Y006860D01*
X015068Y006906D01*
X015044Y006947D01*
X015011Y006980D01*
X014970Y007004D01*
X014924Y007016D01*
X014525Y007016D01*
X014525Y006461D01*
X014390Y006461D01*
X014390Y007016D01*
X014290Y007016D01*
X015843Y008483D01*
X017237Y008483D01*
X017239Y008479D01*
X017345Y008373D01*
X015726Y008373D01*
X015558Y008214D02*
X019784Y008214D01*
X019942Y008373D02*
X017774Y008373D01*
X017880Y008479D01*
X017938Y008618D01*
X017938Y008769D01*
X017880Y008907D01*
X017774Y009014D01*
X017635Y009071D01*
X017484Y009071D01*
X017345Y009014D01*
X017239Y008907D01*
X017237Y008903D01*
X015931Y008903D01*
X015997Y008965D01*
X016447Y009331D01*
X016484Y009315D01*
X016635Y009315D01*
X016774Y009373D01*
X016880Y009479D01*
X016938Y009618D01*
X016938Y009769D01*
X016880Y009907D01*
X016774Y010014D01*
X016635Y010071D01*
X016484Y010071D01*
X016345Y010014D01*
X016239Y009907D01*
X016181Y009769D01*
X016181Y009656D01*
X015789Y009336D01*
X015781Y009337D01*
X015722Y009282D01*
X015659Y009231D01*
X015659Y009224D01*
X013920Y007620D01*
X013920Y007860D01*
X013836Y007943D01*
X013920Y008027D01*
X013920Y008433D01*
X014126Y008433D01*
X014220Y008527D01*
X014220Y009003D01*
X014523Y009003D01*
X014593Y008933D01*
X015126Y008933D01*
X015220Y009027D01*
X015220Y009560D01*
X015126Y009653D01*
X015116Y009653D01*
X015150Y009687D01*
X015150Y010173D01*
X015176Y010173D01*
X015270Y010267D01*
X015270Y010800D01*
X015220Y010850D01*
X015220Y011360D01*
X015136Y011443D01*
X015220Y011527D01*
X015220Y012060D01*
X015136Y012143D01*
X015220Y012227D01*
X015220Y012760D01*
X015126Y012853D01*
X014593Y012853D01*
X014500Y012760D01*
X014500Y012388D01*
X013312Y010955D01*
X012976Y010955D01*
X012976Y011116D01*
X012973Y011119D01*
X012984Y011138D01*
X012996Y011184D01*
X012996Y011257D01*
X012996Y011330D01*
X012984Y011375D01*
X012960Y011416D01*
X012927Y011450D01*
X012886Y011474D01*
X012840Y011486D01*
X012511Y011486D01*
X012338Y011486D01*
X012420Y011567D01*
X012420Y012100D01*
X012326Y012193D01*
X011793Y012193D01*
X011730Y012130D01*
X011656Y012203D01*
X011123Y012203D01*
X011030Y012110D01*
X011030Y012073D01*
X010973Y012073D01*
X010850Y011950D01*
X010850Y011480D01*
X010756Y011387D01*
X010718Y011426D01*
X010720Y011427D01*
X010720Y011960D01*
X010626Y012053D01*
X010093Y012053D01*
X010000Y011960D01*
X010000Y011466D01*
X009970Y011466D01*
X009970Y012344D01*
X009986Y012377D01*
X009970Y012427D01*
X009970Y012480D01*
X009943Y012507D01*
X009931Y012542D01*
X009884Y012566D01*
X009846Y012603D01*
X009809Y012603D01*
X009720Y012648D01*
X009720Y012860D01*
X009626Y012953D01*
X009093Y012953D01*
X009000Y012860D01*
X009000Y012350D01*
X008270Y013080D01*
X008146Y013203D01*
X007573Y013203D01*
X007373Y013003D01*
X007250Y012880D01*
X007250Y012206D01*
X007450Y012006D01*
X007573Y011883D01*
X007973Y011883D01*
X008950Y010906D01*
X008950Y010900D01*
X008270Y011580D01*
X008146Y011703D01*
X008020Y011703D01*
X008020Y011760D01*
X007926Y011853D01*
X007393Y011853D01*
X007300Y011760D01*
X007300Y011227D01*
X007393Y011133D01*
X007483Y011133D01*
X007313Y010963D01*
X007190Y010840D01*
X007190Y010146D01*
X007380Y009956D01*
X007503Y009833D01*
X008863Y009833D01*
X008993Y009703D01*
X008873Y009703D01*
X008373Y009203D01*
X007573Y009203D01*
X007450Y009080D01*
X007273Y008903D01*
X007273Y008903D01*
X007150Y008780D01*
X007150Y008206D01*
X007350Y008006D01*
X007473Y007883D01*
X008033Y007883D01*
X007964Y007815D01*
X007926Y007853D01*
X007393Y007853D01*
X007300Y007760D01*
X007300Y007227D01*
X007393Y007133D01*
X007503Y007133D01*
X007273Y006903D01*
X007150Y006780D01*
X007150Y006206D01*
X007450Y005906D01*
X007573Y005783D01*
X008146Y005783D01*
X008446Y006083D01*
X008570Y006206D01*
X008570Y007106D01*
X009000Y007536D01*
X009000Y007127D01*
X009093Y007033D01*
X009626Y007033D01*
X009720Y007127D01*
X009720Y007635D01*
X009726Y007638D01*
X009752Y007709D01*
X009786Y007777D01*
X009782Y007789D01*
X009821Y007893D01*
X009821Y007857D01*
X009834Y007811D01*
X009857Y007770D01*
X009891Y007737D01*
X009932Y007713D01*
X009978Y007701D01*
X010306Y007701D01*
X010306Y007930D01*
X010306Y007930D01*
X010306Y007701D01*
X010635Y007701D01*
X010681Y007713D01*
X010722Y007737D01*
X010756Y007770D01*
X010779Y007811D01*
X010791Y007857D01*
X010791Y007930D01*
X010791Y007964D01*
X011250Y007506D01*
X011250Y007505D01*
X011241Y007430D01*
X011250Y007420D01*
X011250Y007406D01*
X011303Y007353D01*
X011650Y006920D01*
X011650Y006906D01*
X011703Y006853D01*
X011750Y006794D01*
X011763Y006793D01*
X011773Y006783D01*
X011848Y006783D01*
X011923Y006775D01*
X011933Y006783D01*
X013834Y006783D01*
X013834Y006461D01*
X014390Y006461D01*
X014390Y006326D01*
X013834Y006326D01*
X013834Y005927D01*
X013847Y005881D01*
X013870Y005840D01*
X013834Y005995D02*
X012693Y005995D01*
X012563Y006154D02*
X013834Y006154D01*
X013834Y006312D02*
X012437Y006312D01*
X011768Y006788D02*
X008570Y006788D01*
X008570Y006946D02*
X011628Y006946D01*
X011501Y007105D02*
X009697Y007105D01*
X009720Y007263D02*
X011375Y007263D01*
X011248Y007422D02*
X009720Y007422D01*
X009720Y007580D02*
X011176Y007580D01*
X011017Y007739D02*
X010724Y007739D01*
X010791Y007897D02*
X010859Y007897D01*
X010791Y007930D02*
X010306Y007930D01*
X010791Y007930D01*
X011135Y008214D02*
X012046Y008214D01*
X012046Y008301D02*
X012046Y008070D01*
X012058Y008058D01*
X012046Y008045D01*
X012046Y007814D01*
X012140Y007721D01*
X012200Y007721D01*
X012200Y007327D01*
X012293Y007233D01*
X012826Y007233D01*
X012848Y007256D01*
X012896Y007203D01*
X011960Y007203D01*
X011670Y007567D01*
X011670Y007680D01*
X011070Y008280D01*
X010956Y008394D01*
X011329Y008394D01*
X011329Y009513D01*
X011489Y009513D01*
X012046Y009513D01*
X012046Y009581D01*
X012058Y009593D01*
X012046Y009606D01*
X012046Y009673D01*
X011489Y009673D01*
X011489Y009513D01*
X011489Y008394D01*
X012043Y008394D01*
X012046Y008395D01*
X012046Y008326D01*
X012058Y008314D01*
X012046Y008301D01*
X012046Y008373D02*
X010977Y008373D01*
X011329Y008531D02*
X011489Y008531D01*
X011489Y008690D02*
X011329Y008690D01*
X011329Y008848D02*
X011489Y008848D01*
X011489Y009007D02*
X011329Y009007D01*
X011329Y009165D02*
X011489Y009165D01*
X011489Y009324D02*
X011329Y009324D01*
X011329Y009482D02*
X011489Y009482D01*
X011489Y009641D02*
X012046Y009641D01*
X011489Y009673D02*
X011329Y009673D01*
X011329Y010793D01*
X011156Y010793D01*
X011446Y011083D01*
X011659Y011083D01*
X011681Y011069D01*
X011743Y011083D01*
X011806Y011083D01*
X011825Y011102D01*
X011851Y011108D01*
X011885Y011161D01*
X011930Y011206D01*
X011930Y011233D01*
X012081Y011473D01*
X012136Y011473D01*
X012095Y011450D01*
X012062Y011416D01*
X012038Y011375D01*
X012026Y011330D01*
X012026Y011257D01*
X012511Y011257D01*
X012511Y011486D01*
X012511Y011257D01*
X012511Y011257D01*
X012511Y011257D01*
X012996Y011257D01*
X012511Y011257D01*
X012511Y011257D01*
X012026Y011257D01*
X012026Y011184D01*
X012038Y011138D01*
X012049Y011119D01*
X012046Y011116D01*
X012046Y010885D01*
X012058Y010873D01*
X012046Y010860D01*
X012046Y010792D01*
X012043Y010793D01*
X011489Y010793D01*
X011489Y009673D01*
X011489Y009799D02*
X011329Y009799D01*
X011329Y009958D02*
X011489Y009958D01*
X011489Y010116D02*
X011329Y010116D01*
X011329Y010275D02*
X011489Y010275D01*
X011489Y010433D02*
X011329Y010433D01*
X011329Y010592D02*
X011489Y010592D01*
X011489Y010750D02*
X011329Y010750D01*
X011272Y010909D02*
X012046Y010909D01*
X012046Y011067D02*
X011431Y011067D01*
X011930Y011226D02*
X012026Y011226D01*
X012025Y011384D02*
X012043Y011384D01*
X012395Y011543D02*
X013799Y011543D01*
X013668Y011384D02*
X012979Y011384D01*
X012996Y011226D02*
X013537Y011226D01*
X013406Y011067D02*
X012976Y011067D01*
X012511Y011384D02*
X012511Y011384D01*
X012420Y011701D02*
X013931Y011701D01*
X014062Y011860D02*
X012420Y011860D01*
X012420Y012018D02*
X014193Y012018D01*
X014325Y012177D02*
X012342Y012177D01*
X011777Y012177D02*
X011682Y012177D01*
X011097Y012177D02*
X009970Y012177D01*
X009970Y012335D02*
X014456Y012335D01*
X014500Y012494D02*
X009956Y012494D01*
X009720Y012652D02*
X014500Y012652D01*
X014551Y012811D02*
X009720Y012811D01*
X009000Y012811D02*
X008539Y012811D01*
X008380Y012969D02*
X013774Y012969D01*
X013775Y012968D02*
X013808Y012934D01*
X013849Y012911D01*
X013895Y012898D01*
X014609Y012898D01*
X014609Y013316D01*
X014764Y013316D01*
X014764Y013471D01*
X015634Y013471D01*
X015634Y013732D01*
X015622Y013778D01*
X015598Y013819D01*
X015565Y013852D01*
X015523Y013876D01*
X015478Y013888D01*
X014764Y013888D01*
X014764Y013471D01*
X014609Y013471D01*
X014609Y013888D01*
X013895Y013888D01*
X013849Y013876D01*
X013808Y013852D01*
X013775Y013819D01*
X013751Y013778D01*
X013739Y013732D01*
X013739Y013471D01*
X014609Y013471D01*
X014609Y013316D01*
X013739Y013316D01*
X013739Y013055D01*
X013751Y013009D01*
X013775Y012968D01*
X013739Y013128D02*
X008222Y013128D01*
X007497Y013128D02*
X004640Y013128D01*
X004640Y013286D02*
X013739Y013286D01*
X013739Y013603D02*
X004640Y013603D01*
X004640Y013445D02*
X014609Y013445D01*
X014764Y013445D02*
X016940Y013445D01*
X016940Y013603D02*
X015634Y013603D01*
X015626Y013762D02*
X016940Y013762D01*
X016975Y013920D02*
X004640Y013920D01*
X004640Y013762D02*
X013747Y013762D01*
X014609Y013762D02*
X014764Y013762D01*
X014764Y013603D02*
X014609Y013603D01*
X014609Y013286D02*
X014764Y013286D01*
X014764Y013316D02*
X014764Y012898D01*
X015478Y012898D01*
X015523Y012911D01*
X015565Y012934D01*
X015598Y012968D01*
X015622Y013009D01*
X015634Y013055D01*
X015634Y013316D01*
X014764Y013316D01*
X014764Y013128D02*
X014609Y013128D01*
X014609Y012969D02*
X014764Y012969D01*
X015168Y012811D02*
X017131Y012811D01*
X016972Y012969D02*
X015599Y012969D01*
X015634Y013128D02*
X016940Y013128D01*
X016940Y013286D02*
X015634Y013286D01*
X015220Y012652D02*
X020240Y012652D01*
X020241Y012494D02*
X015220Y012494D01*
X015220Y012335D02*
X020241Y012335D01*
X020241Y012177D02*
X015169Y012177D01*
X015220Y012018D02*
X020242Y012018D01*
X020242Y011860D02*
X015220Y011860D01*
X015220Y011701D02*
X020242Y011701D01*
X020243Y011543D02*
X015220Y011543D01*
X015195Y011384D02*
X020243Y011384D01*
X020244Y011226D02*
X015220Y011226D01*
X015220Y011067D02*
X020244Y011067D01*
X020244Y010909D02*
X015220Y010909D01*
X015270Y010750D02*
X020245Y010750D01*
X020245Y010592D02*
X015270Y010592D01*
X015270Y010433D02*
X020245Y010433D01*
X019715Y010275D02*
X015270Y010275D01*
X015150Y010116D02*
X019700Y010116D01*
X019700Y009958D02*
X018858Y009958D01*
X018869Y009947D02*
X018813Y010003D01*
X018748Y010046D01*
X018676Y010076D01*
X018599Y010091D01*
X018560Y010091D01*
X018560Y009693D01*
X018560Y009693D01*
X018958Y009693D01*
X018958Y009654D01*
X018942Y009577D01*
X018912Y009505D01*
X018869Y009440D01*
X018813Y009384D01*
X018748Y009341D01*
X018676Y009310D01*
X018599Y009295D01*
X018560Y009295D01*
X018560Y009693D01*
X018560Y009693D01*
X018958Y009693D01*
X018958Y009733D01*
X018942Y009809D01*
X018912Y009882D01*
X018869Y009947D01*
X018944Y009799D02*
X019537Y009799D01*
X019364Y009641D02*
X018955Y009641D01*
X018897Y009482D02*
X019191Y009482D01*
X019018Y009324D02*
X018708Y009324D01*
X018560Y009324D02*
X018560Y009324D01*
X018560Y009295D02*
X018560Y009693D01*
X018560Y009693D01*
X018161Y009693D01*
X018161Y009654D01*
X018177Y009577D01*
X018207Y009505D01*
X018250Y009440D01*
X018306Y009384D01*
X018371Y009341D01*
X018443Y009310D01*
X018520Y009295D01*
X018560Y009295D01*
X018411Y009324D02*
X016656Y009324D01*
X016463Y009324D02*
X016438Y009324D01*
X016244Y009165D02*
X018845Y009165D01*
X018500Y009007D02*
X017781Y009007D01*
X017905Y008848D02*
X018500Y008848D01*
X018500Y008690D02*
X017938Y008690D01*
X017902Y008531D02*
X018500Y008531D01*
X017774Y008373D02*
X017635Y008315D01*
X017484Y008315D01*
X017345Y008373D01*
X017338Y009007D02*
X016049Y009007D01*
X015767Y009324D02*
X015220Y009324D01*
X015220Y009482D02*
X015968Y009482D01*
X016162Y009641D02*
X015138Y009641D01*
X015150Y009799D02*
X016194Y009799D01*
X016289Y009958D02*
X015150Y009958D01*
X015220Y009165D02*
X015595Y009165D01*
X015423Y009007D02*
X015199Y009007D01*
X015251Y008848D02*
X014220Y008848D01*
X014220Y008690D02*
X015080Y008690D01*
X014908Y008531D02*
X014220Y008531D01*
X013920Y008373D02*
X014736Y008373D01*
X014564Y008214D02*
X013920Y008214D01*
X013920Y008056D02*
X014392Y008056D01*
X014220Y007897D02*
X013882Y007897D01*
X013920Y007739D02*
X014048Y007739D01*
X014719Y007422D02*
X018991Y007422D01*
X019150Y007580D02*
X014887Y007580D01*
X015055Y007739D02*
X019308Y007739D01*
X019467Y007897D02*
X015223Y007897D01*
X015390Y008056D02*
X019625Y008056D01*
X019220Y008531D02*
X020101Y008531D01*
X020249Y008690D02*
X019220Y008690D01*
X019220Y008848D02*
X020249Y008848D01*
X020249Y009007D02*
X019294Y009007D01*
X019467Y009165D02*
X020248Y009165D01*
X020248Y009324D02*
X019640Y009324D01*
X019813Y009482D02*
X020247Y009482D01*
X018560Y009482D02*
X018560Y009482D01*
X018560Y009641D02*
X018560Y009641D01*
X018560Y009693D02*
X018560Y009693D01*
X018560Y010091D01*
X018520Y010091D01*
X018443Y010076D01*
X018371Y010046D01*
X018306Y010003D01*
X018250Y009947D01*
X018207Y009882D01*
X018177Y009809D01*
X018161Y009733D01*
X018161Y009693D01*
X018560Y009693D01*
X018560Y009799D02*
X018560Y009799D01*
X018560Y009958D02*
X018560Y009958D01*
X018261Y009958D02*
X016830Y009958D01*
X016925Y009799D02*
X018175Y009799D01*
X018164Y009641D02*
X016938Y009641D01*
X016881Y009482D02*
X018222Y009482D01*
X021744Y007580D02*
X022011Y007580D01*
X021902Y007739D02*
X022180Y007739D01*
X022180Y007897D02*
X021970Y007897D01*
X021970Y008056D02*
X022171Y008056D01*
X022100Y008214D02*
X021970Y008214D01*
X021970Y008373D02*
X022100Y008373D01*
X022100Y008531D02*
X021970Y008531D01*
X021970Y008690D02*
X022130Y008690D01*
X022180Y008848D02*
X021970Y008848D01*
X021970Y009007D02*
X022180Y009007D01*
X022180Y009165D02*
X021970Y009165D01*
X021970Y009324D02*
X022180Y009324D01*
X022180Y009482D02*
X021970Y009482D01*
X021970Y009641D02*
X022180Y009641D01*
X022180Y009799D02*
X021970Y009799D01*
X021970Y009958D02*
X022180Y009958D01*
X022180Y010116D02*
X021970Y010116D01*
X021970Y010275D02*
X022180Y010275D01*
X022180Y010433D02*
X021970Y010433D01*
X021970Y010592D02*
X022180Y010592D01*
X022180Y010750D02*
X021970Y010750D01*
X021970Y010909D02*
X022180Y010909D01*
X022180Y011067D02*
X021970Y011067D01*
X021970Y011226D02*
X022180Y011226D01*
X022180Y011384D02*
X021970Y011384D01*
X021970Y011543D02*
X022180Y011543D01*
X022125Y011701D02*
X021970Y011701D01*
X021970Y011860D02*
X022100Y011860D01*
X022100Y012018D02*
X021970Y012018D01*
X021970Y012177D02*
X022100Y012177D01*
X022175Y012335D02*
X021970Y012335D01*
X021970Y012494D02*
X025836Y012494D01*
X025836Y012652D02*
X021970Y012652D01*
X022744Y012335D02*
X024795Y012335D01*
X024789Y012312D02*
X024789Y012041D01*
X025177Y012041D01*
X025177Y012469D01*
X024945Y012469D01*
X024899Y012456D01*
X024858Y012433D01*
X024825Y012399D01*
X024801Y012358D01*
X024789Y012312D01*
X024789Y012177D02*
X022820Y012177D01*
X022820Y012018D02*
X025177Y012018D01*
X025177Y012177D02*
X025273Y012177D01*
X025273Y012335D02*
X025177Y012335D01*
X024789Y011860D02*
X022820Y011860D01*
X022794Y011701D02*
X023310Y011701D01*
X023310Y011543D02*
X022740Y011543D01*
X022740Y011384D02*
X023310Y011384D01*
X023311Y011226D02*
X022740Y011226D01*
X022740Y011067D02*
X023460Y011067D01*
X023460Y010909D02*
X022740Y010909D01*
X022740Y010750D02*
X023460Y010750D01*
X023455Y010592D02*
X022740Y010592D01*
X022740Y010433D02*
X023592Y010433D01*
X023732Y010275D02*
X022740Y010275D01*
X022740Y010116D02*
X023871Y010116D01*
X024011Y009958D02*
X022740Y009958D01*
X022740Y009799D02*
X024151Y009799D01*
X024320Y009641D02*
X027115Y009641D01*
X027274Y009482D02*
X024320Y009482D01*
X024320Y009324D02*
X027432Y009324D01*
X027591Y009165D02*
X024320Y009165D01*
X023750Y009007D02*
X022740Y009007D01*
X022740Y009165D02*
X023600Y009165D01*
X023600Y009324D02*
X022740Y009324D01*
X022740Y009482D02*
X023600Y009482D01*
X023600Y009641D02*
X022740Y009641D01*
X022740Y008848D02*
X023750Y008848D01*
X023750Y008690D02*
X022789Y008690D01*
X022820Y008531D02*
X023750Y008531D01*
X023750Y008373D02*
X022820Y008373D01*
X022820Y008214D02*
X023750Y008214D01*
X023750Y008056D02*
X022748Y008056D01*
X022740Y007897D02*
X023750Y007897D01*
X023750Y007739D02*
X022740Y007739D01*
X022740Y007580D02*
X023750Y007580D01*
X023750Y007422D02*
X022686Y007422D01*
X022503Y007263D02*
X023750Y007263D01*
X023750Y007105D02*
X022316Y007105D01*
X022128Y006946D02*
X023716Y006946D01*
X023402Y006788D02*
X021941Y006788D01*
X021754Y006629D02*
X022962Y006629D01*
X022521Y006471D02*
X021566Y006471D01*
X021379Y006312D02*
X022081Y006312D01*
X021641Y006154D02*
X021216Y006154D01*
X021165Y005995D02*
X021057Y005995D01*
X021006Y005837D02*
X020899Y005837D01*
X020424Y006154D02*
X020317Y006154D01*
X020266Y005995D02*
X020159Y005995D01*
X020107Y005837D02*
X020000Y005837D01*
X019836Y005520D02*
X019483Y005520D01*
X019622Y005361D02*
X019697Y005361D01*
X020476Y006312D02*
X020583Y006312D01*
X020634Y006471D02*
X020741Y006471D01*
X020793Y006629D02*
X020900Y006629D01*
X020951Y006788D02*
X021074Y006788D01*
X021110Y006946D02*
X021261Y006946D01*
X021268Y007105D02*
X021449Y007105D01*
X021427Y007263D02*
X021636Y007263D01*
X021585Y007422D02*
X021823Y007422D01*
X025600Y007422D02*
X034028Y007422D01*
X033857Y007580D02*
X025600Y007580D01*
X025600Y007739D02*
X033687Y007739D01*
X033516Y007897D02*
X025600Y007897D01*
X025600Y008056D02*
X033345Y008056D01*
X032058Y009482D02*
X031200Y009482D01*
X031249Y009641D02*
X032009Y009641D01*
X032009Y010116D02*
X031249Y010116D01*
X031229Y010275D02*
X032029Y010275D01*
X031120Y010750D02*
X033436Y010750D01*
X033361Y010592D02*
X030584Y010592D01*
X031120Y010909D02*
X033510Y010909D01*
X033584Y011067D02*
X031120Y011067D01*
X029966Y011226D02*
X028940Y011226D01*
X028940Y011384D02*
X029969Y011384D01*
X029969Y011543D02*
X029887Y011543D01*
X029879Y011528D02*
X029903Y011569D01*
X029915Y011615D01*
X029915Y011936D01*
X029517Y011936D01*
X029517Y011459D01*
X029759Y011459D01*
X029805Y011471D01*
X029846Y011495D01*
X029879Y011528D01*
X029915Y011701D02*
X029969Y011701D01*
X029969Y011860D02*
X029915Y011860D01*
X029915Y012177D02*
X030379Y012177D01*
X030221Y012335D02*
X029915Y012335D01*
X029842Y012494D02*
X030062Y012494D01*
X030339Y012811D02*
X032800Y012811D01*
X032800Y012969D02*
X030220Y012969D01*
X030220Y013128D02*
X032800Y013128D01*
X032826Y013286D02*
X030193Y013286D01*
X029600Y013445D02*
X033050Y013445D01*
X033050Y013603D02*
X029600Y013603D01*
X029590Y013762D02*
X033050Y013762D01*
X033050Y013920D02*
X029600Y013920D01*
X029600Y014079D02*
X033050Y014079D01*
X033050Y014237D02*
X029587Y014237D01*
X029600Y014396D02*
X032931Y014396D01*
X032900Y014554D02*
X029600Y014554D01*
X029590Y014713D02*
X032900Y014713D01*
X032900Y014871D02*
X029600Y014871D01*
X029600Y015030D02*
X032970Y015030D01*
X030051Y016456D02*
X029517Y016456D01*
X029517Y016539D02*
X029915Y016539D01*
X029915Y016860D01*
X029903Y016905D01*
X029879Y016946D01*
X029846Y016980D01*
X029805Y017004D01*
X029759Y017016D01*
X029517Y017016D01*
X029517Y016539D01*
X029517Y016615D02*
X029402Y016615D01*
X029402Y016539D02*
X029402Y017016D01*
X029160Y017016D01*
X029114Y017004D01*
X029073Y016980D01*
X029040Y016946D01*
X029016Y016905D01*
X029004Y016860D01*
X029004Y016539D01*
X029402Y016539D01*
X029402Y016456D02*
X028640Y016456D01*
X028640Y016298D02*
X029004Y016298D01*
X028832Y016139D02*
X028640Y016139D01*
X028640Y015981D02*
X028768Y015981D01*
X028768Y015822D02*
X028640Y015822D01*
X028640Y015664D02*
X028755Y015664D01*
X028748Y015505D02*
X028640Y015505D01*
X028640Y015347D02*
X028748Y015347D01*
X028786Y015188D02*
X028640Y015188D01*
X028640Y015030D02*
X028768Y015030D01*
X028768Y014871D02*
X028640Y014871D01*
X028640Y014713D02*
X028778Y014713D01*
X028768Y014554D02*
X028640Y014554D01*
X028640Y014396D02*
X028768Y014396D01*
X028780Y014237D02*
X028768Y014225D01*
X028768Y014079D02*
X028640Y014079D01*
X028640Y013920D02*
X028768Y013920D01*
X028777Y013762D02*
X028640Y013762D01*
X028640Y013603D02*
X028768Y013603D01*
X028768Y013445D02*
X028640Y013445D01*
X028640Y013286D02*
X028787Y013286D01*
X028748Y013128D02*
X028640Y013128D01*
X028640Y012969D02*
X028748Y012969D01*
X028748Y012811D02*
X028640Y012811D01*
X028640Y012652D02*
X028768Y012652D01*
X028768Y012494D02*
X028640Y012494D01*
X028640Y012335D02*
X028793Y012335D01*
X028640Y012177D02*
X029004Y012177D01*
X029004Y011860D02*
X028810Y011860D01*
X028921Y011701D02*
X029004Y011701D01*
X029032Y011543D02*
X028940Y011543D01*
X029402Y011543D02*
X029517Y011543D01*
X029517Y011701D02*
X029402Y011701D01*
X029402Y011860D02*
X029517Y011860D01*
X029517Y012018D02*
X030538Y012018D01*
X030656Y012494D02*
X031334Y012494D01*
X030497Y012652D02*
X032874Y012652D01*
X029900Y011067D02*
X028993Y011067D01*
X029166Y010909D02*
X029900Y010909D01*
X029900Y010750D02*
X029339Y010750D01*
X029512Y010592D02*
X029935Y010592D01*
X029685Y010433D02*
X033287Y010433D01*
X030467Y009482D02*
X030452Y009482D01*
X029719Y009482D02*
X029475Y009482D01*
X029226Y009324D02*
X036880Y009324D01*
X036836Y005520D02*
X036483Y005520D01*
X036622Y005361D02*
X036697Y005361D01*
X037483Y005520D02*
X037836Y005520D01*
X037697Y005361D02*
X037622Y005361D01*
X038483Y005520D02*
X038836Y005520D01*
X038697Y005361D02*
X038622Y005361D01*
X039483Y005520D02*
X039836Y005520D01*
X039697Y005361D02*
X039622Y005361D01*
X040483Y005520D02*
X040836Y005520D01*
X040697Y005361D02*
X040622Y005361D01*
X041483Y005520D02*
X041836Y005520D01*
X041697Y005361D02*
X041622Y005361D01*
X042483Y005520D02*
X043125Y005520D01*
X043082Y005361D02*
X042622Y005361D01*
X042688Y005203D02*
X043050Y005203D01*
X043050Y005044D02*
X042690Y005044D01*
X042647Y004886D02*
X043066Y004886D01*
X043109Y004727D02*
X042543Y004727D01*
X035836Y005520D02*
X035483Y005520D01*
X035622Y005361D02*
X035697Y005361D01*
X034836Y005520D02*
X033483Y005520D01*
X033622Y005361D02*
X034697Y005361D01*
X034631Y005203D02*
X033688Y005203D01*
X033690Y005044D02*
X034630Y005044D01*
X034672Y004886D02*
X033647Y004886D01*
X033543Y004727D02*
X034776Y004727D01*
X032836Y005520D02*
X032483Y005520D01*
X032622Y005361D02*
X032697Y005361D01*
X031836Y005520D02*
X031483Y005520D01*
X031622Y005361D02*
X031697Y005361D01*
X030836Y005520D02*
X030483Y005520D01*
X030622Y005361D02*
X030697Y005361D01*
X029836Y005520D02*
X029483Y005520D01*
X029622Y005361D02*
X029697Y005361D01*
X028836Y005520D02*
X028483Y005520D01*
X028622Y005361D02*
X028697Y005361D01*
X027836Y005520D02*
X027483Y005520D01*
X027622Y005361D02*
X027697Y005361D01*
X026836Y005520D02*
X026483Y005520D01*
X026622Y005361D02*
X026697Y005361D01*
X026667Y010275D02*
X026978Y010275D01*
X026052Y010275D02*
X024291Y010275D01*
X024152Y010433D02*
X026000Y010433D01*
X026000Y010592D02*
X024012Y010592D01*
X023880Y010750D02*
X024776Y010750D01*
X024700Y010909D02*
X023880Y010909D01*
X023880Y011067D02*
X024100Y011067D01*
X024100Y011226D02*
X024028Y011226D01*
X024030Y011384D02*
X024100Y011384D01*
X024100Y011543D02*
X024030Y011543D01*
X024030Y011701D02*
X024789Y011701D01*
X025894Y011993D02*
X026860Y011993D01*
X028460Y010393D01*
X026000Y010750D02*
X025343Y010750D01*
X026160Y011993D02*
X026160Y012641D01*
X026160Y012693D02*
X027760Y012693D01*
X027760Y015993D01*
X027094Y015993D01*
X027094Y019274D01*
X025760Y019274D01*
X025265Y019309D02*
X020073Y019309D01*
X020170Y019406D02*
X020170Y019406D01*
X020231Y019468D02*
X025265Y019468D01*
X025265Y019626D02*
X020390Y019626D01*
X019613Y018703D02*
X019548Y018746D01*
X019476Y018776D01*
X019399Y018791D01*
X019360Y018791D01*
X019360Y018393D01*
X019360Y018393D01*
X019758Y018393D01*
X019758Y018354D01*
X019742Y018277D01*
X019712Y018205D01*
X019669Y018140D01*
X019613Y018084D01*
X019548Y018041D01*
X019476Y018010D01*
X019399Y017995D01*
X019360Y017995D01*
X019360Y018393D01*
X019360Y018393D01*
X019758Y018393D01*
X019758Y018433D01*
X019742Y018509D01*
X019712Y018582D01*
X019669Y018647D01*
X019613Y018703D01*
X019641Y018675D02*
X026854Y018675D01*
X026854Y018517D02*
X019739Y018517D01*
X019758Y018358D02*
X026854Y018358D01*
X026854Y018200D02*
X019709Y018200D01*
X019549Y018041D02*
X026854Y018041D01*
X026854Y017883D02*
X023651Y017883D01*
X023665Y017724D02*
X026854Y017724D01*
X026854Y017566D02*
X023665Y017566D01*
X023665Y017407D02*
X025300Y017407D01*
X025265Y017249D02*
X023665Y017249D01*
X023360Y016912D02*
X023360Y016193D01*
X023720Y016139D02*
X023770Y016139D01*
X023770Y016003D02*
X023720Y016003D01*
X023720Y016460D01*
X023626Y016553D01*
X023600Y016553D01*
X023600Y016672D01*
X025265Y016672D01*
X025265Y016452D01*
X025314Y016403D01*
X025298Y016403D01*
X025256Y016445D01*
X024769Y016445D01*
X024675Y016352D01*
X024675Y015994D01*
X024667Y015981D01*
X024655Y015935D01*
X024655Y015793D01*
X024655Y015651D01*
X024667Y015606D01*
X024675Y015592D01*
X024675Y015235D01*
X024730Y015180D01*
X024706Y015155D01*
X024706Y015033D01*
X024500Y015033D01*
X024500Y015441D01*
X024463Y015529D01*
X024444Y015548D01*
X024444Y015604D01*
X024441Y015606D01*
X024444Y015609D01*
X024444Y015978D01*
X024441Y015980D01*
X024444Y015983D01*
X024444Y016352D01*
X024350Y016445D01*
X023863Y016445D01*
X023770Y016352D01*
X023770Y016003D01*
X023770Y016298D02*
X023720Y016298D01*
X023720Y016456D02*
X025265Y016456D01*
X025265Y016615D02*
X023600Y016615D01*
X023120Y016615D02*
X021050Y016615D01*
X021050Y016773D02*
X023120Y016773D01*
X023120Y016932D02*
X021050Y016932D01*
X021248Y017090D02*
X022261Y017090D01*
X022235Y017249D02*
X021275Y017249D01*
X021275Y017407D02*
X022235Y017407D01*
X022235Y017566D02*
X021275Y017566D01*
X021275Y017724D02*
X022235Y017724D01*
X022248Y017883D02*
X021261Y017883D01*
X019858Y017883D02*
X017570Y017883D01*
X017570Y018041D02*
X019170Y018041D01*
X019171Y018041D02*
X019243Y018010D01*
X019320Y017995D01*
X019360Y017995D01*
X019360Y018393D01*
X019360Y018393D01*
X018961Y018393D01*
X018961Y018354D01*
X018977Y018277D01*
X019007Y018205D01*
X019050Y018140D01*
X019106Y018084D01*
X019171Y018041D01*
X019360Y018041D02*
X019360Y018041D01*
X019360Y018200D02*
X019360Y018200D01*
X019360Y018358D02*
X019360Y018358D01*
X019360Y018393D02*
X019360Y018393D01*
X019360Y018791D01*
X019320Y018791D01*
X019243Y018776D01*
X019171Y018746D01*
X019106Y018703D01*
X019050Y018647D01*
X019007Y018582D01*
X018977Y018509D01*
X018961Y018433D01*
X018961Y018393D01*
X019360Y018393D01*
X019360Y018517D02*
X019360Y018517D01*
X019360Y018675D02*
X019360Y018675D01*
X019079Y018675D02*
X017612Y018675D01*
X017718Y018517D02*
X018980Y018517D01*
X018961Y018358D02*
X017738Y018358D01*
X017689Y018200D02*
X019010Y018200D01*
X018548Y017724D02*
X019845Y017724D01*
X019845Y017566D02*
X018697Y017566D01*
X018738Y017407D02*
X019845Y017407D01*
X019845Y017249D02*
X018709Y017249D01*
X018591Y017090D02*
X019871Y017090D01*
X020070Y016932D02*
X018447Y016932D01*
X018426Y016953D02*
X017893Y016953D01*
X017800Y016860D01*
X017800Y016429D01*
X017645Y016013D01*
X015906Y016013D01*
X015826Y016093D01*
X015293Y016093D01*
X015200Y016000D01*
X015200Y015467D01*
X015293Y015373D01*
X015826Y015373D01*
X015906Y015453D01*
X017789Y015453D01*
X017794Y015451D01*
X017845Y015453D01*
X017895Y015453D01*
X017900Y015455D01*
X017905Y015456D01*
X017951Y015477D01*
X017998Y015496D01*
X018002Y015500D01*
X018007Y015502D01*
X018041Y015539D01*
X018077Y015575D01*
X018079Y015580D01*
X018083Y015583D01*
X018100Y015631D01*
X018120Y015678D01*
X018120Y015683D01*
X018324Y016233D01*
X018426Y016233D01*
X018520Y016327D01*
X018520Y016860D01*
X018426Y016953D01*
X018520Y016773D02*
X020070Y016773D01*
X020070Y016615D02*
X018520Y016615D01*
X018520Y016456D02*
X020070Y016456D01*
X020070Y016298D02*
X018490Y016298D01*
X018289Y016139D02*
X019994Y016139D01*
X019836Y015981D02*
X018230Y015981D01*
X018171Y015822D02*
X019677Y015822D01*
X019519Y015664D02*
X018114Y015664D01*
X018010Y015505D02*
X019360Y015505D01*
X019202Y015347D02*
X013540Y015347D01*
X013665Y015505D02*
X015200Y015505D01*
X015200Y015664D02*
X013789Y015664D01*
X013500Y015981D02*
X011220Y015981D01*
X011220Y015822D02*
X013380Y015822D01*
X013255Y015664D02*
X011220Y015664D01*
X011198Y015505D02*
X013130Y015505D01*
X013006Y015347D02*
X006603Y015347D01*
X006444Y015505D02*
X008321Y015505D01*
X008300Y015664D02*
X008227Y015664D01*
X007492Y015664D02*
X006286Y015664D01*
X006127Y015822D02*
X007334Y015822D01*
X007250Y015981D02*
X005983Y015981D01*
X005983Y016139D02*
X007250Y016139D01*
X007250Y016298D02*
X005983Y016298D01*
X005983Y016456D02*
X007250Y016456D01*
X007250Y016615D02*
X005983Y016615D01*
X005983Y016773D02*
X007343Y016773D01*
X007501Y016932D02*
X005983Y016932D01*
X005983Y017090D02*
X007836Y017090D01*
X007800Y017249D02*
X005983Y017249D01*
X005983Y017407D02*
X007800Y017407D01*
X007800Y017566D02*
X005983Y017566D01*
X005983Y017724D02*
X007432Y017724D01*
X007273Y017883D02*
X005983Y017883D01*
X005983Y018041D02*
X007150Y018041D01*
X007150Y018200D02*
X005983Y018200D01*
X005983Y018358D02*
X007150Y018358D01*
X007150Y018517D02*
X005983Y018517D01*
X005983Y018675D02*
X007150Y018675D01*
X007303Y018834D02*
X005983Y018834D01*
X005983Y018992D02*
X007462Y018992D01*
X008320Y019151D02*
X006169Y019151D01*
X006169Y019309D02*
X008647Y019309D01*
X008488Y019468D02*
X006169Y019468D01*
X006169Y019626D02*
X007530Y019626D01*
X007304Y019785D02*
X006080Y019785D01*
X005466Y019785D02*
X005253Y019785D01*
X005342Y019626D02*
X005377Y019626D01*
X005377Y019468D02*
X005342Y019468D01*
X005342Y019309D02*
X005377Y019309D01*
X005377Y019151D02*
X005342Y019151D01*
X005320Y018992D02*
X005563Y018992D01*
X005563Y018834D02*
X005320Y018834D01*
X005320Y018675D02*
X005563Y018675D01*
X005563Y018517D02*
X005309Y018517D01*
X005563Y018358D02*
X004640Y018358D01*
X004640Y018200D02*
X005563Y018200D01*
X005563Y018041D02*
X004640Y018041D01*
X004640Y017883D02*
X005563Y017883D01*
X005563Y017724D02*
X004640Y017724D01*
X004640Y017566D02*
X005563Y017566D01*
X005563Y017407D02*
X004640Y017407D01*
X004640Y017249D02*
X005563Y017249D01*
X005563Y017090D02*
X004640Y017090D01*
X004640Y016932D02*
X005563Y016932D01*
X005563Y016773D02*
X004640Y016773D01*
X004640Y016615D02*
X005563Y016615D01*
X005563Y016456D02*
X004640Y016456D01*
X004640Y016298D02*
X005563Y016298D01*
X005563Y016139D02*
X004640Y016139D01*
X004640Y015981D02*
X005563Y015981D01*
X005563Y015822D02*
X004640Y015822D01*
X004640Y015664D02*
X005692Y015664D01*
X005851Y015505D02*
X004640Y015505D01*
X004640Y015347D02*
X006009Y015347D01*
X006168Y015188D02*
X004640Y015188D01*
X004640Y015030D02*
X006326Y015030D01*
X006485Y014871D02*
X004640Y014871D01*
X004640Y014713D02*
X006643Y014713D01*
X006802Y014554D02*
X004640Y014554D01*
X004640Y014396D02*
X018251Y014396D01*
X018409Y014554D02*
X012918Y014554D01*
X013042Y014713D02*
X018568Y014713D01*
X018726Y014871D02*
X013166Y014871D01*
X013291Y015030D02*
X018885Y015030D01*
X019043Y015188D02*
X013416Y015188D01*
X012881Y015188D02*
X006761Y015188D01*
X006920Y015030D02*
X012757Y015030D01*
X014215Y015822D02*
X015200Y015822D01*
X015200Y015981D02*
X014220Y015981D01*
X014220Y016139D02*
X017692Y016139D01*
X017751Y016298D02*
X016861Y016298D01*
X017046Y016456D02*
X017800Y016456D01*
X017800Y016615D02*
X017240Y016615D01*
X017433Y016773D02*
X017800Y016773D01*
X017872Y016932D02*
X017627Y016932D01*
X017821Y017090D02*
X018128Y017090D01*
X017735Y017566D02*
X017570Y017566D01*
X017570Y017724D02*
X018171Y017724D01*
X017497Y018834D02*
X025265Y018834D01*
X025265Y018992D02*
X017656Y018992D01*
X017814Y019151D02*
X025265Y019151D01*
X026254Y018992D02*
X026854Y018992D01*
X026854Y018834D02*
X026254Y018834D01*
X027334Y017883D02*
X033100Y017883D01*
X033480Y017883D02*
X033488Y017883D01*
X034444Y017883D02*
X034600Y017883D01*
X034787Y018358D02*
X034797Y018358D01*
X034904Y018517D02*
X034680Y018517D01*
X034487Y018517D02*
X034357Y018517D01*
X033939Y018517D02*
X033907Y018517D01*
X033795Y018647D02*
X033795Y018647D01*
X033934Y018992D02*
X031652Y018992D01*
X031913Y019151D02*
X033900Y019151D01*
X033900Y019309D02*
X032174Y019309D01*
X032435Y019468D02*
X033900Y019468D01*
X033966Y019626D02*
X032697Y019626D01*
X031390Y018834D02*
X036880Y018834D01*
X036880Y018992D02*
X034585Y018992D01*
X036058Y018358D02*
X036125Y018358D01*
X036058Y018200D02*
X036196Y018200D01*
X036394Y018200D02*
X036880Y018200D01*
X036880Y018358D02*
X036465Y018358D01*
X036485Y018517D02*
X036880Y018517D01*
X036880Y018675D02*
X036345Y018675D01*
X036214Y019151D02*
X036880Y019151D01*
X036880Y019309D02*
X036373Y019309D01*
X036531Y019468D02*
X036880Y019468D01*
X036880Y018041D02*
X036485Y018041D01*
X036416Y017883D02*
X036880Y017883D01*
X029992Y017249D02*
X028811Y017249D01*
X028653Y017090D02*
X029949Y017090D01*
X029949Y016932D02*
X029888Y016932D01*
X029915Y016773D02*
X029949Y016773D01*
X029949Y016615D02*
X029915Y016615D01*
X029517Y016773D02*
X029402Y016773D01*
X029402Y016932D02*
X029517Y016932D01*
X029032Y016932D02*
X028640Y016932D01*
X028640Y016773D02*
X029004Y016773D01*
X029004Y016615D02*
X028640Y016615D01*
X028080Y016615D02*
X027334Y016615D01*
X027334Y016773D02*
X028080Y016773D01*
X028080Y016932D02*
X027334Y016932D01*
X027334Y017090D02*
X028080Y017090D01*
X028080Y017249D02*
X027334Y017249D01*
X027334Y017407D02*
X028178Y017407D01*
X028336Y017566D02*
X027334Y017566D01*
X027334Y017724D02*
X028495Y017724D01*
X026854Y017407D02*
X026219Y017407D01*
X026254Y017249D02*
X026854Y017249D01*
X026854Y017090D02*
X026254Y017090D01*
X026254Y016932D02*
X026854Y016932D01*
X026854Y016773D02*
X026254Y016773D01*
X026254Y016615D02*
X026854Y016615D01*
X026854Y016456D02*
X026254Y016456D01*
X025760Y016912D02*
X023360Y016912D01*
X023000Y016456D02*
X021050Y016456D01*
X021050Y016298D02*
X023000Y016298D01*
X023000Y016139D02*
X021050Y016139D01*
X021080Y015505D02*
X023000Y015505D01*
X023000Y015347D02*
X021080Y015347D01*
X020966Y015188D02*
X023000Y015188D01*
X023360Y015393D02*
X024007Y015393D01*
X024260Y015393D02*
X024260Y014528D01*
X024260Y014793D02*
X025260Y014793D01*
X025860Y014946D02*
X025860Y015393D01*
X025212Y015393D01*
X025365Y015633D02*
X025369Y015651D01*
X025369Y015793D01*
X025012Y015793D01*
X024655Y015793D01*
X025012Y015793D01*
X025012Y015793D01*
X025012Y015793D01*
X025369Y015793D01*
X025369Y015935D01*
X025357Y015981D01*
X025356Y015983D01*
X025750Y015983D01*
X025750Y015906D01*
X025873Y015783D01*
X026009Y015783D01*
X026009Y015632D01*
X026103Y015538D01*
X026215Y015538D01*
X026215Y015306D01*
X026291Y015230D01*
X026100Y015230D01*
X026100Y015441D01*
X026063Y015529D01*
X025995Y015597D01*
X025907Y015633D01*
X025365Y015633D01*
X025369Y015664D02*
X026009Y015664D01*
X026073Y015505D02*
X026215Y015505D01*
X026215Y015347D02*
X026100Y015347D01*
X026160Y014946D02*
X025860Y014946D01*
X025800Y014396D02*
X025777Y014396D01*
X025800Y014237D02*
X024715Y014237D01*
X024715Y014079D02*
X025836Y014079D01*
X025836Y013920D02*
X024715Y013920D01*
X025192Y013762D02*
X025327Y013762D01*
X025327Y013891D02*
X025327Y013483D01*
X025192Y013483D01*
X025192Y013348D01*
X024686Y013348D01*
X024686Y013096D01*
X024698Y013051D01*
X024722Y013010D01*
X024755Y012976D01*
X024796Y012952D01*
X024842Y012940D01*
X025192Y012940D01*
X025192Y013348D01*
X025327Y013348D01*
X025327Y013483D01*
X025833Y013483D01*
X025833Y013734D01*
X025821Y013780D01*
X025797Y013821D01*
X025764Y013855D01*
X025723Y013878D01*
X025677Y013891D01*
X025327Y013891D01*
X025826Y013762D02*
X025862Y013762D01*
X025833Y013603D02*
X025836Y013603D01*
X025836Y013445D02*
X025327Y013445D01*
X025327Y013348D02*
X025833Y013348D01*
X025833Y013096D01*
X025821Y013051D01*
X025797Y013010D01*
X025764Y012976D01*
X025723Y012952D01*
X025677Y012940D01*
X025327Y012940D01*
X025327Y013348D01*
X025327Y013286D02*
X025192Y013286D01*
X025192Y013128D02*
X025327Y013128D01*
X025327Y012969D02*
X025192Y012969D01*
X024767Y012969D02*
X024620Y012969D01*
X024620Y013128D02*
X024686Y013128D01*
X024686Y013286D02*
X024620Y013286D01*
X024623Y013445D02*
X025192Y013445D01*
X025192Y013603D02*
X025327Y013603D01*
X025833Y013286D02*
X025906Y013286D01*
X025833Y013128D02*
X027520Y013128D01*
X027520Y013286D02*
X026413Y013286D01*
X026483Y013445D02*
X027520Y013445D01*
X027520Y013603D02*
X026483Y013603D01*
X026457Y013762D02*
X026751Y013762D01*
X026754Y013759D02*
X026795Y013735D01*
X026841Y013723D01*
X027112Y013723D01*
X027112Y014111D01*
X026684Y014111D01*
X026684Y013879D01*
X026697Y013833D01*
X026720Y013792D01*
X026754Y013759D01*
X026684Y013920D02*
X026483Y013920D01*
X026483Y014079D02*
X026684Y014079D01*
X026684Y014237D02*
X026520Y014237D01*
X026520Y014396D02*
X026684Y014396D01*
X026704Y014554D02*
X026520Y014554D01*
X027112Y014079D02*
X027207Y014079D01*
X027207Y013920D02*
X027112Y013920D01*
X027112Y013762D02*
X027207Y013762D01*
X028000Y013762D02*
X028080Y013762D01*
X028080Y013920D02*
X028000Y013920D01*
X028000Y014079D02*
X028080Y014079D01*
X028080Y014237D02*
X028000Y014237D01*
X028000Y014396D02*
X028080Y014396D01*
X028080Y014554D02*
X028000Y014554D01*
X028000Y014713D02*
X028080Y014713D01*
X028080Y014871D02*
X028000Y014871D01*
X028000Y015030D02*
X028080Y015030D01*
X028080Y015188D02*
X028000Y015188D01*
X028000Y015347D02*
X028080Y015347D01*
X028080Y015505D02*
X028000Y015505D01*
X028000Y015664D02*
X028080Y015664D01*
X028080Y015822D02*
X028000Y015822D01*
X028000Y015981D02*
X028080Y015981D01*
X028080Y016139D02*
X027953Y016139D01*
X028080Y016298D02*
X027510Y016298D01*
X027334Y016456D02*
X028080Y016456D01*
X025834Y015822D02*
X025369Y015822D01*
X025357Y015981D02*
X025750Y015981D01*
X024667Y015981D02*
X024442Y015981D01*
X024444Y016139D02*
X024675Y016139D01*
X024675Y016298D02*
X024444Y016298D01*
X024444Y015822D02*
X024655Y015822D01*
X024655Y015664D02*
X024444Y015664D01*
X024473Y015505D02*
X024675Y015505D01*
X024675Y015347D02*
X024500Y015347D01*
X024500Y015188D02*
X024722Y015188D01*
X024020Y015030D02*
X020107Y015030D01*
X019949Y014871D02*
X023825Y014871D01*
X023804Y014713D02*
X019790Y014713D01*
X019632Y014554D02*
X023804Y014554D01*
X023804Y014396D02*
X023559Y014396D01*
X023672Y014237D02*
X023804Y014237D01*
X023804Y014079D02*
X023669Y014079D01*
X023667Y013920D02*
X023804Y013920D01*
X023804Y013762D02*
X023666Y013762D01*
X023665Y013603D02*
X023804Y013603D01*
X023896Y013445D02*
X023665Y013445D01*
X023665Y013286D02*
X023900Y013286D01*
X023900Y013128D02*
X023661Y013128D01*
X023660Y012969D02*
X023900Y012969D01*
X023916Y012811D02*
X023564Y012811D01*
X024603Y012811D02*
X025836Y012811D01*
X025752Y012969D02*
X027520Y012969D01*
X028000Y012969D02*
X028080Y012969D01*
X028080Y012811D02*
X028000Y012811D01*
X028000Y012652D02*
X028080Y012652D01*
X028080Y012494D02*
X027899Y012494D01*
X027893Y012335D02*
X028080Y012335D01*
X028080Y012177D02*
X027965Y012177D01*
X028041Y012018D02*
X028080Y012018D01*
X028691Y012018D02*
X029402Y012018D01*
X028080Y013128D02*
X028000Y013128D01*
X028000Y013286D02*
X028080Y013286D01*
X028080Y013445D02*
X028000Y013445D01*
X028000Y013603D02*
X028080Y013603D01*
X024742Y014396D02*
X024715Y014396D01*
X019724Y014396D02*
X019473Y014396D01*
X019629Y014237D02*
X019315Y014237D01*
X019280Y014079D02*
X019631Y014079D01*
X019630Y014126D02*
X019630Y014126D01*
X019632Y013920D02*
X019280Y013920D01*
X019280Y013762D02*
X019633Y013762D01*
X019635Y013603D02*
X019280Y013603D01*
X019280Y013445D02*
X019636Y013445D01*
X019637Y013286D02*
X019280Y013286D01*
X019280Y013128D02*
X019638Y013128D01*
X019640Y012969D02*
X019147Y012969D01*
X018988Y012811D02*
X019735Y012811D01*
X019764Y012783D02*
X019764Y012783D01*
X019640Y012906D02*
X019640Y012906D01*
X017934Y014079D02*
X004640Y014079D01*
X004640Y014237D02*
X018092Y014237D01*
X013500Y016139D02*
X011140Y016139D01*
X010579Y016139D02*
X008940Y016139D01*
X008761Y016298D02*
X012958Y016298D01*
X012759Y016456D02*
X008920Y016456D01*
X009078Y016615D02*
X012547Y016615D01*
X012336Y016773D02*
X009237Y016773D01*
X009395Y016932D02*
X012125Y016932D01*
X011913Y017090D02*
X009554Y017090D01*
X009712Y017249D02*
X009878Y017249D01*
X009800Y017407D02*
X009770Y017407D01*
X009770Y017566D02*
X009800Y017566D01*
X009800Y017724D02*
X009770Y017724D01*
X009770Y017883D02*
X009823Y017883D01*
X009770Y018041D02*
X010260Y018041D01*
X010520Y017566D02*
X010543Y017566D01*
X010520Y017407D02*
X010521Y017407D01*
X010579Y017249D02*
X010441Y017249D01*
X011006Y017249D02*
X011006Y017249D01*
X011006Y017407D02*
X011006Y017407D01*
X011434Y017249D02*
X011702Y017249D01*
X011979Y017566D02*
X012750Y017566D01*
X012746Y017724D02*
X011768Y017724D01*
X011567Y017883D02*
X012746Y017883D01*
X012189Y018041D02*
X012029Y018041D01*
X012029Y018200D02*
X012189Y018200D01*
X012189Y018358D02*
X012029Y018358D01*
X012029Y018517D02*
X012189Y018517D01*
X012189Y018675D02*
X012029Y018675D01*
X012029Y018834D02*
X012189Y018834D01*
X012189Y018992D02*
X012029Y018992D01*
X012029Y019151D02*
X011471Y019151D01*
X012029Y019309D02*
X012189Y019309D01*
X012189Y019151D02*
X012746Y019151D01*
X012189Y019468D02*
X012029Y019468D01*
X012029Y019626D02*
X012189Y019626D01*
X012189Y019785D02*
X012029Y019785D01*
X012029Y019943D02*
X012189Y019943D01*
X012189Y020102D02*
X012029Y020102D01*
X012029Y020260D02*
X012189Y020260D01*
X012170Y020577D02*
X012746Y020577D01*
X012746Y020419D02*
X011682Y020419D01*
X011670Y020406D02*
X011670Y020406D01*
X012254Y020736D02*
X012726Y020736D01*
X012749Y020894D02*
X012254Y020894D01*
X012254Y021053D02*
X013863Y021053D01*
X013868Y021211D02*
X012237Y021211D01*
X011585Y021370D02*
X013873Y021370D01*
X013878Y021528D02*
X011498Y021528D01*
X010952Y021528D02*
X010820Y021528D01*
X010820Y021687D02*
X013883Y021687D01*
X013888Y021845D02*
X010820Y021845D01*
X010820Y022004D02*
X013900Y022004D01*
X015545Y022162D02*
X009487Y022162D01*
X009570Y022004D02*
X010100Y022004D01*
X010100Y021845D02*
X009570Y021845D01*
X009570Y021687D02*
X010100Y021687D01*
X010100Y021528D02*
X009570Y021528D01*
X010109Y021370D02*
X010150Y021370D01*
X010570Y021370D02*
X010865Y021370D01*
X010865Y021211D02*
X010570Y021211D01*
X010570Y021053D02*
X010865Y021053D01*
X009329Y022321D02*
X016753Y022321D01*
X016879Y022479D02*
X009170Y022479D01*
X009012Y022638D02*
X017006Y022638D01*
X017133Y022796D02*
X008853Y022796D01*
X007266Y022796D02*
X004640Y022796D01*
X004640Y022638D02*
X007150Y022638D01*
X007150Y022479D02*
X004640Y022479D01*
X004640Y022321D02*
X007150Y022321D01*
X007150Y022162D02*
X004640Y022162D01*
X004640Y022004D02*
X007152Y022004D01*
X007311Y021845D02*
X004640Y021845D01*
X004640Y021687D02*
X007469Y021687D01*
X007700Y021528D02*
X004640Y021528D01*
X004640Y021370D02*
X007700Y021370D01*
X007700Y021211D02*
X004640Y021211D01*
X004640Y021053D02*
X007633Y021053D01*
X007250Y020894D02*
X004640Y020894D01*
X004640Y020736D02*
X007105Y020736D01*
X007080Y020577D02*
X004640Y020577D01*
X004640Y020419D02*
X007093Y020419D01*
X007103Y020260D02*
X004640Y020260D01*
X004640Y020102D02*
X007114Y020102D01*
X007124Y019943D02*
X004640Y019943D01*
X008438Y021211D02*
X008550Y021211D01*
X008550Y021370D02*
X008420Y021370D01*
X008420Y021528D02*
X008550Y021528D01*
X011261Y023430D02*
X004640Y023430D01*
X004640Y023272D02*
X011411Y023272D01*
X011637Y023113D02*
X004640Y023113D01*
X004640Y022955D02*
X017260Y022955D01*
X017350Y023113D02*
X012682Y023113D01*
X012908Y023272D02*
X017350Y023272D01*
X017350Y023430D02*
X013058Y023430D01*
X013150Y023589D02*
X015392Y023589D01*
X015156Y023747D02*
X013216Y023747D01*
X013258Y023906D02*
X015063Y023906D01*
X015030Y024064D02*
X013269Y024064D01*
X013269Y024223D02*
X015040Y024223D01*
X015105Y024381D02*
X013231Y024381D01*
X013183Y024540D02*
X015257Y024540D01*
X015963Y023747D02*
X016131Y023747D01*
X016338Y023589D02*
X015727Y023589D01*
X016540Y023589D02*
X016580Y023589D01*
X016580Y023747D02*
X016540Y023747D01*
X016540Y023906D02*
X016580Y023906D01*
X016580Y024064D02*
X016540Y024064D01*
X016988Y023747D02*
X017156Y023747D01*
X017350Y023589D02*
X016781Y023589D01*
X013724Y020894D02*
X013673Y020894D01*
X013696Y020736D02*
X013700Y020736D01*
X013700Y020577D02*
X013676Y020577D01*
X013211Y020894D02*
X013211Y020894D01*
X011169Y023589D02*
X004640Y023589D01*
X004640Y023747D02*
X011103Y023747D01*
X011061Y023906D02*
X004640Y023906D01*
X004640Y024064D02*
X011050Y024064D01*
X011050Y024223D02*
X004640Y024223D01*
X004640Y024381D02*
X011088Y024381D01*
X011136Y024540D02*
X004640Y024540D01*
X012191Y017407D02*
X012746Y017407D01*
X012812Y017249D02*
X012402Y017249D01*
X012613Y017090D02*
X012840Y017090D01*
X012825Y016932D02*
X012840Y016932D01*
X010521Y015505D02*
X008998Y015505D01*
X007339Y012969D02*
X004640Y012969D01*
X004640Y012811D02*
X007250Y012811D01*
X007250Y012652D02*
X004640Y012652D01*
X004640Y012494D02*
X007250Y012494D01*
X007250Y012335D02*
X004640Y012335D01*
X004640Y012177D02*
X007279Y012177D01*
X007438Y012018D02*
X004640Y012018D01*
X004640Y011860D02*
X007996Y011860D01*
X008148Y011701D02*
X008155Y011701D01*
X008307Y011543D02*
X008313Y011543D01*
X008465Y011384D02*
X008472Y011384D01*
X008624Y011226D02*
X008630Y011226D01*
X008782Y011067D02*
X008789Y011067D01*
X008941Y010909D02*
X008947Y010909D01*
X009970Y011543D02*
X010000Y011543D01*
X010000Y011701D02*
X009970Y011701D01*
X009970Y011860D02*
X010000Y011860D01*
X009970Y012018D02*
X010058Y012018D01*
X010661Y012018D02*
X010918Y012018D01*
X010850Y011860D02*
X010720Y011860D01*
X010720Y011701D02*
X010850Y011701D01*
X010850Y011543D02*
X010720Y011543D01*
X009000Y012494D02*
X008856Y012494D01*
X009000Y012652D02*
X008697Y012652D01*
X007300Y011701D02*
X004640Y011701D01*
X004640Y011543D02*
X007300Y011543D01*
X007300Y011384D02*
X004640Y011384D01*
X004640Y011226D02*
X007301Y011226D01*
X007417Y011067D02*
X004640Y011067D01*
X004640Y010909D02*
X007258Y010909D01*
X007190Y010750D02*
X004640Y010750D01*
X004640Y010592D02*
X007190Y010592D01*
X007190Y010433D02*
X004640Y010433D01*
X004640Y010275D02*
X007190Y010275D01*
X007220Y010116D02*
X004640Y010116D01*
X005342Y009958D02*
X005377Y009958D01*
X005377Y009799D02*
X005342Y009799D01*
X005342Y009641D02*
X005377Y009641D01*
X005377Y009482D02*
X005342Y009482D01*
X005275Y009324D02*
X005444Y009324D01*
X005563Y009165D02*
X005220Y009165D01*
X005220Y009007D02*
X005563Y009007D01*
X005563Y008848D02*
X005220Y008848D01*
X005563Y008690D02*
X004640Y008690D01*
X004640Y008531D02*
X005563Y008531D01*
X005563Y008373D02*
X004640Y008373D01*
X004640Y008214D02*
X005563Y008214D01*
X005563Y008056D02*
X004640Y008056D01*
X004640Y007897D02*
X005563Y007897D01*
X005563Y007739D02*
X004640Y007739D01*
X004640Y007580D02*
X005563Y007580D01*
X005563Y007422D02*
X004640Y007422D01*
X004640Y007263D02*
X005563Y007263D01*
X005563Y007105D02*
X004640Y007105D01*
X004640Y006946D02*
X005563Y006946D01*
X005563Y006788D02*
X004640Y006788D01*
X004640Y006629D02*
X005563Y006629D01*
X005563Y006471D02*
X004640Y006471D01*
X004640Y006312D02*
X005563Y006312D01*
X005563Y006154D02*
X004640Y006154D01*
X004640Y005995D02*
X005563Y005995D01*
X005719Y005837D02*
X004640Y005837D01*
X004640Y005678D02*
X005878Y005678D01*
X006036Y005520D02*
X004640Y005520D01*
X004640Y005361D02*
X006195Y005361D01*
X006353Y005203D02*
X004640Y005203D01*
X004640Y005044D02*
X006512Y005044D01*
X006670Y004886D02*
X004640Y004886D01*
X004640Y004727D02*
X006829Y004727D01*
X007105Y005044D02*
X009786Y005044D01*
X009923Y005203D02*
X006947Y005203D01*
X006788Y005361D02*
X010061Y005361D01*
X010198Y005520D02*
X006630Y005520D01*
X006471Y005678D02*
X010335Y005678D01*
X010473Y005837D02*
X008200Y005837D01*
X008359Y005995D02*
X010610Y005995D01*
X010747Y006154D02*
X008517Y006154D01*
X008570Y006312D02*
X010882Y006312D01*
X011912Y007263D02*
X012263Y007263D01*
X012200Y007422D02*
X011786Y007422D01*
X011670Y007580D02*
X012200Y007580D01*
X012122Y007739D02*
X011611Y007739D01*
X011452Y007897D02*
X012046Y007897D01*
X012056Y008056D02*
X011294Y008056D01*
X010306Y007930D02*
X010306Y007930D01*
X010306Y007897D02*
X010306Y007897D01*
X010306Y007739D02*
X010306Y007739D01*
X009889Y007739D02*
X009767Y007739D01*
X009000Y007422D02*
X008885Y007422D01*
X009000Y007263D02*
X008727Y007263D01*
X008570Y007105D02*
X009022Y007105D01*
X008570Y006629D02*
X013834Y006629D01*
X013834Y006471D02*
X008570Y006471D01*
X007519Y005837D02*
X006313Y005837D01*
X006154Y005995D02*
X007361Y005995D01*
X007202Y006154D02*
X005996Y006154D01*
X005983Y006312D02*
X007150Y006312D01*
X007150Y006471D02*
X005983Y006471D01*
X005983Y006629D02*
X007150Y006629D01*
X007157Y006788D02*
X005983Y006788D01*
X005983Y006946D02*
X007316Y006946D01*
X007474Y007105D02*
X005983Y007105D01*
X005983Y007263D02*
X007300Y007263D01*
X007300Y007422D02*
X005983Y007422D01*
X005983Y007580D02*
X007300Y007580D01*
X007300Y007739D02*
X005983Y007739D01*
X005983Y007897D02*
X007459Y007897D01*
X007300Y008056D02*
X005983Y008056D01*
X005983Y008214D02*
X007150Y008214D01*
X007150Y008373D02*
X005983Y008373D01*
X005983Y008531D02*
X007150Y008531D01*
X007150Y008690D02*
X005983Y008690D01*
X005983Y008848D02*
X007218Y008848D01*
X007376Y009007D02*
X005983Y009007D01*
X005983Y009165D02*
X007535Y009165D01*
X007450Y009080D02*
X007450Y009080D01*
X008493Y009324D02*
X006102Y009324D01*
X006169Y009482D02*
X008652Y009482D01*
X008810Y009641D02*
X006169Y009641D01*
X006169Y009799D02*
X008897Y009799D01*
X007378Y009958D02*
X006169Y009958D01*
X013212Y005361D02*
X016101Y005361D01*
X015550Y005837D02*
X015041Y005837D01*
X015044Y005840D02*
X015068Y005881D01*
X015080Y005927D01*
X015080Y006326D01*
X014525Y006326D01*
X014525Y005770D01*
X014924Y005770D01*
X014970Y005783D01*
X015011Y005806D01*
X015044Y005840D01*
X015080Y005995D02*
X015550Y005995D01*
X015550Y006154D02*
X015080Y006154D01*
X015080Y006312D02*
X015550Y006312D01*
X015550Y006471D02*
X015080Y006471D01*
X015080Y006629D02*
X015550Y006629D01*
X015550Y006788D02*
X015080Y006788D01*
X015044Y006946D02*
X015550Y006946D01*
X015674Y007105D02*
X014383Y007105D01*
X014390Y006946D02*
X014525Y006946D01*
X014525Y006788D02*
X014390Y006788D01*
X014390Y006629D02*
X014525Y006629D01*
X014525Y006471D02*
X014390Y006471D01*
X014390Y006312D02*
X014525Y006312D01*
X014525Y006154D02*
X014390Y006154D01*
X014390Y005995D02*
X014525Y005995D01*
X014525Y005837D02*
X014390Y005837D01*
X014551Y007263D02*
X015833Y007263D01*
X015750Y007180D02*
X015750Y007180D01*
D36*
X013560Y007593D03*
X013560Y008293D03*
X013860Y008793D03*
X014860Y009293D03*
X014790Y009953D03*
X014910Y010533D03*
X014860Y011093D03*
X014860Y011793D03*
X014860Y012493D03*
X013370Y012133D03*
X012060Y011833D03*
X011390Y011843D03*
X010360Y011693D03*
X009360Y012593D03*
X007660Y011493D03*
X004970Y011533D03*
X006670Y013433D03*
X004970Y013733D03*
X004970Y015533D03*
X008160Y017393D03*
X010160Y017593D03*
X011740Y018343D03*
X012440Y018343D03*
X012440Y018843D03*
X011740Y018843D03*
X011740Y019343D03*
X012440Y019343D03*
X012440Y019843D03*
X011740Y019843D03*
X011894Y020928D03*
X011225Y021175D03*
X010460Y021759D03*
X009825Y021028D03*
X008060Y021293D03*
X006670Y020233D03*
X004870Y021433D03*
X004870Y023233D03*
X007870Y024333D03*
X013870Y024233D03*
X019560Y021393D03*
X021570Y022233D03*
X024670Y022333D03*
X028670Y022933D03*
X029360Y021493D03*
X032060Y023193D03*
X033870Y022133D03*
X037160Y022293D03*
X038160Y022293D03*
X038970Y022033D03*
X040060Y022093D03*
X041160Y022593D03*
X041460Y019993D03*
X040960Y019793D03*
X035360Y019843D03*
X034260Y019293D03*
X030260Y018393D03*
X029360Y018593D03*
X028270Y018533D03*
X030760Y016193D03*
X033260Y014693D03*
X035460Y015293D03*
X035360Y013093D03*
X033160Y012993D03*
X031660Y012193D03*
X029860Y012993D03*
X027320Y012233D03*
X028110Y011393D03*
X028460Y010393D03*
X029160Y009793D03*
X030260Y010893D03*
X030760Y010993D03*
X026360Y010593D03*
X025060Y011093D03*
X024460Y011293D03*
X023670Y011493D03*
X022460Y011993D03*
X024260Y013093D03*
X026160Y014493D03*
X025600Y015803D03*
X023360Y016193D03*
X023360Y015393D03*
X020560Y015793D03*
X018160Y016593D03*
X016460Y018093D03*
X018370Y018333D03*
X019560Y019993D03*
X016260Y019993D03*
X014060Y020603D03*
X014060Y019293D03*
X014160Y017793D03*
X013960Y017193D03*
X013200Y017043D03*
X012140Y017743D03*
X013860Y016093D03*
X015560Y015733D03*
X013270Y013833D03*
X013270Y013033D03*
X011790Y010353D03*
X011770Y009883D03*
X011040Y009883D03*
X011030Y010363D03*
X011030Y009303D03*
X011000Y008803D03*
X011760Y008813D03*
X011740Y009333D03*
X012560Y007593D03*
X009360Y007393D03*
X007660Y007493D03*
X004860Y009093D03*
X007960Y005393D03*
X016460Y005093D03*
X022460Y008393D03*
X023960Y009393D03*
X025360Y008793D03*
X020060Y009993D03*
X018860Y008793D03*
X010860Y015793D03*
X008660Y015793D03*
X006670Y018633D03*
X004960Y018793D03*
X034160Y006593D03*
D37*
X043160Y007093D02*
X044160Y007093D01*
X025600Y015793D02*
X025600Y015803D01*
X025600Y015793D02*
X025012Y015793D01*
X025225Y013415D02*
X025225Y011993D01*
X025260Y013415D02*
X025225Y013415D01*
X020860Y015393D02*
X020160Y015393D01*
X019060Y014293D01*
X019060Y013193D01*
X018860Y012993D01*
X017260Y012993D01*
X017160Y013093D01*
X017160Y013793D01*
X017960Y013793D01*
X020160Y015993D01*
X020860Y015993D01*
X020860Y015393D01*
X020860Y015469D02*
X019636Y015469D01*
X019754Y015588D02*
X020860Y015588D01*
X020860Y015706D02*
X019873Y015706D01*
X019991Y015825D02*
X020860Y015825D01*
X020860Y015943D02*
X020110Y015943D01*
X020117Y015351D02*
X019517Y015351D01*
X019399Y015232D02*
X019999Y015232D01*
X019880Y015114D02*
X019280Y015114D01*
X019162Y014995D02*
X019762Y014995D01*
X019643Y014877D02*
X019043Y014877D01*
X018925Y014758D02*
X019525Y014758D01*
X019406Y014640D02*
X018806Y014640D01*
X018688Y014521D02*
X019288Y014521D01*
X019169Y014403D02*
X018569Y014403D01*
X018451Y014284D02*
X019060Y014284D01*
X019060Y014166D02*
X018332Y014166D01*
X018214Y014047D02*
X019060Y014047D01*
X019060Y013929D02*
X018095Y013929D01*
X017977Y013810D02*
X019060Y013810D01*
X019060Y013692D02*
X017160Y013692D01*
X017160Y013573D02*
X019060Y013573D01*
X019060Y013455D02*
X017160Y013455D01*
X017160Y013336D02*
X019060Y013336D01*
X019060Y013218D02*
X017160Y013218D01*
X017160Y013099D02*
X018966Y013099D01*
D38*
X022460Y011993D02*
X022460Y008393D01*
X022460Y007593D01*
X021160Y006493D01*
X020160Y005493D01*
X020160Y005093D01*
X029160Y009793D02*
X029260Y009893D01*
X030085Y009893D01*
X029860Y009893D01*
X028660Y010993D01*
X028660Y011593D01*
X028360Y011993D01*
X028360Y017193D01*
X028760Y017593D01*
X030460Y017593D01*
X030760Y017293D01*
X030760Y016876D01*
X030759Y016875D01*
X030759Y016193D01*
X030760Y016193D01*
X018160Y016593D02*
X017840Y015733D01*
X015560Y015733D01*
D39*
X020560Y015793D02*
X020560Y017493D01*
M02*
