G75*
%MOIN*%
%OFA0B0*%
%FSLAX24Y24*%
%IPPOS*%
%LPD*%
%AMOC8*
5,1,8,0,0,1.08239X$1,22.5*
%
%ADD10C,0.0000*%
%ADD11C,0.0051*%
%ADD12C,0.0060*%
%ADD13C,0.0040*%
D10*
X004160Y004093D02*
X004160Y025093D01*
X044160Y025093D01*
X045160Y024093D01*
X045160Y020093D01*
X046160Y019093D01*
X046160Y005593D01*
X045160Y004593D01*
X045160Y004093D01*
X004160Y004093D01*
X011030Y005093D02*
X011032Y005143D01*
X011038Y005193D01*
X011048Y005242D01*
X011062Y005290D01*
X011079Y005337D01*
X011100Y005382D01*
X011125Y005426D01*
X011153Y005467D01*
X011185Y005506D01*
X011219Y005543D01*
X011256Y005577D01*
X011296Y005607D01*
X011338Y005634D01*
X011382Y005658D01*
X011428Y005679D01*
X011475Y005695D01*
X011523Y005708D01*
X011573Y005717D01*
X011622Y005722D01*
X011673Y005723D01*
X011723Y005720D01*
X011772Y005713D01*
X011821Y005702D01*
X011869Y005687D01*
X011915Y005669D01*
X011960Y005647D01*
X012003Y005621D01*
X012044Y005592D01*
X012083Y005560D01*
X012119Y005525D01*
X012151Y005487D01*
X012181Y005447D01*
X012208Y005404D01*
X012231Y005360D01*
X012250Y005314D01*
X012266Y005266D01*
X012278Y005217D01*
X012286Y005168D01*
X012290Y005118D01*
X012290Y005068D01*
X012286Y005018D01*
X012278Y004969D01*
X012266Y004920D01*
X012250Y004872D01*
X012231Y004826D01*
X012208Y004782D01*
X012181Y004739D01*
X012151Y004699D01*
X012119Y004661D01*
X012083Y004626D01*
X012044Y004594D01*
X012003Y004565D01*
X011960Y004539D01*
X011915Y004517D01*
X011869Y004499D01*
X011821Y004484D01*
X011772Y004473D01*
X011723Y004466D01*
X011673Y004463D01*
X011622Y004464D01*
X011573Y004469D01*
X011523Y004478D01*
X011475Y004491D01*
X011428Y004507D01*
X011382Y004528D01*
X011338Y004552D01*
X011296Y004579D01*
X011256Y004609D01*
X011219Y004643D01*
X011185Y004680D01*
X011153Y004719D01*
X011125Y004760D01*
X011100Y004804D01*
X011079Y004849D01*
X011062Y004896D01*
X011048Y004944D01*
X011038Y004993D01*
X011032Y005043D01*
X011030Y005093D01*
X043530Y005093D02*
X043532Y005143D01*
X043538Y005193D01*
X043548Y005242D01*
X043562Y005290D01*
X043579Y005337D01*
X043600Y005382D01*
X043625Y005426D01*
X043653Y005467D01*
X043685Y005506D01*
X043719Y005543D01*
X043756Y005577D01*
X043796Y005607D01*
X043838Y005634D01*
X043882Y005658D01*
X043928Y005679D01*
X043975Y005695D01*
X044023Y005708D01*
X044073Y005717D01*
X044122Y005722D01*
X044173Y005723D01*
X044223Y005720D01*
X044272Y005713D01*
X044321Y005702D01*
X044369Y005687D01*
X044415Y005669D01*
X044460Y005647D01*
X044503Y005621D01*
X044544Y005592D01*
X044583Y005560D01*
X044619Y005525D01*
X044651Y005487D01*
X044681Y005447D01*
X044708Y005404D01*
X044731Y005360D01*
X044750Y005314D01*
X044766Y005266D01*
X044778Y005217D01*
X044786Y005168D01*
X044790Y005118D01*
X044790Y005068D01*
X044786Y005018D01*
X044778Y004969D01*
X044766Y004920D01*
X044750Y004872D01*
X044731Y004826D01*
X044708Y004782D01*
X044681Y004739D01*
X044651Y004699D01*
X044619Y004661D01*
X044583Y004626D01*
X044544Y004594D01*
X044503Y004565D01*
X044460Y004539D01*
X044415Y004517D01*
X044369Y004499D01*
X044321Y004484D01*
X044272Y004473D01*
X044223Y004466D01*
X044173Y004463D01*
X044122Y004464D01*
X044073Y004469D01*
X044023Y004478D01*
X043975Y004491D01*
X043928Y004507D01*
X043882Y004528D01*
X043838Y004552D01*
X043796Y004579D01*
X043756Y004609D01*
X043719Y004643D01*
X043685Y004680D01*
X043653Y004719D01*
X043625Y004760D01*
X043600Y004804D01*
X043579Y004849D01*
X043562Y004896D01*
X043548Y004944D01*
X043538Y004993D01*
X043532Y005043D01*
X043530Y005093D01*
X041030Y024093D02*
X041032Y024143D01*
X041038Y024193D01*
X041048Y024242D01*
X041062Y024290D01*
X041079Y024337D01*
X041100Y024382D01*
X041125Y024426D01*
X041153Y024467D01*
X041185Y024506D01*
X041219Y024543D01*
X041256Y024577D01*
X041296Y024607D01*
X041338Y024634D01*
X041382Y024658D01*
X041428Y024679D01*
X041475Y024695D01*
X041523Y024708D01*
X041573Y024717D01*
X041622Y024722D01*
X041673Y024723D01*
X041723Y024720D01*
X041772Y024713D01*
X041821Y024702D01*
X041869Y024687D01*
X041915Y024669D01*
X041960Y024647D01*
X042003Y024621D01*
X042044Y024592D01*
X042083Y024560D01*
X042119Y024525D01*
X042151Y024487D01*
X042181Y024447D01*
X042208Y024404D01*
X042231Y024360D01*
X042250Y024314D01*
X042266Y024266D01*
X042278Y024217D01*
X042286Y024168D01*
X042290Y024118D01*
X042290Y024068D01*
X042286Y024018D01*
X042278Y023969D01*
X042266Y023920D01*
X042250Y023872D01*
X042231Y023826D01*
X042208Y023782D01*
X042181Y023739D01*
X042151Y023699D01*
X042119Y023661D01*
X042083Y023626D01*
X042044Y023594D01*
X042003Y023565D01*
X041960Y023539D01*
X041915Y023517D01*
X041869Y023499D01*
X041821Y023484D01*
X041772Y023473D01*
X041723Y023466D01*
X041673Y023463D01*
X041622Y023464D01*
X041573Y023469D01*
X041523Y023478D01*
X041475Y023491D01*
X041428Y023507D01*
X041382Y023528D01*
X041338Y023552D01*
X041296Y023579D01*
X041256Y023609D01*
X041219Y023643D01*
X041185Y023680D01*
X041153Y023719D01*
X041125Y023760D01*
X041100Y023804D01*
X041079Y023849D01*
X041062Y023896D01*
X041048Y023944D01*
X041038Y023993D01*
X041032Y024043D01*
X041030Y024093D01*
X011530Y024093D02*
X011532Y024143D01*
X011538Y024193D01*
X011548Y024242D01*
X011562Y024290D01*
X011579Y024337D01*
X011600Y024382D01*
X011625Y024426D01*
X011653Y024467D01*
X011685Y024506D01*
X011719Y024543D01*
X011756Y024577D01*
X011796Y024607D01*
X011838Y024634D01*
X011882Y024658D01*
X011928Y024679D01*
X011975Y024695D01*
X012023Y024708D01*
X012073Y024717D01*
X012122Y024722D01*
X012173Y024723D01*
X012223Y024720D01*
X012272Y024713D01*
X012321Y024702D01*
X012369Y024687D01*
X012415Y024669D01*
X012460Y024647D01*
X012503Y024621D01*
X012544Y024592D01*
X012583Y024560D01*
X012619Y024525D01*
X012651Y024487D01*
X012681Y024447D01*
X012708Y024404D01*
X012731Y024360D01*
X012750Y024314D01*
X012766Y024266D01*
X012778Y024217D01*
X012786Y024168D01*
X012790Y024118D01*
X012790Y024068D01*
X012786Y024018D01*
X012778Y023969D01*
X012766Y023920D01*
X012750Y023872D01*
X012731Y023826D01*
X012708Y023782D01*
X012681Y023739D01*
X012651Y023699D01*
X012619Y023661D01*
X012583Y023626D01*
X012544Y023594D01*
X012503Y023565D01*
X012460Y023539D01*
X012415Y023517D01*
X012369Y023499D01*
X012321Y023484D01*
X012272Y023473D01*
X012223Y023466D01*
X012173Y023463D01*
X012122Y023464D01*
X012073Y023469D01*
X012023Y023478D01*
X011975Y023491D01*
X011928Y023507D01*
X011882Y023528D01*
X011838Y023552D01*
X011796Y023579D01*
X011756Y023609D01*
X011719Y023643D01*
X011685Y023680D01*
X011653Y023719D01*
X011625Y023760D01*
X011600Y023804D01*
X011579Y023849D01*
X011562Y023896D01*
X011548Y023944D01*
X011538Y023993D01*
X011532Y024043D01*
X011530Y024093D01*
D11*
X004160Y004093D02*
X004160Y000126D01*
X004185Y000893D02*
X005183Y000791D01*
X005183Y000768D02*
X004185Y000893D01*
X005183Y000996D01*
X005183Y001019D02*
X005183Y000768D01*
X005183Y000842D02*
X004185Y000893D01*
X005183Y000944D01*
X005183Y001019D02*
X004185Y000893D01*
X046134Y000893D01*
X045136Y000791D01*
X045136Y000768D02*
X046134Y000893D01*
X045136Y000996D01*
X045136Y001019D02*
X045136Y000768D01*
X045136Y000842D02*
X046134Y000893D01*
X045136Y000944D01*
X045136Y001019D02*
X046134Y000893D01*
X046160Y000126D02*
X046160Y004893D01*
X004160Y004093D02*
X000492Y004093D01*
X001260Y004119D02*
X001362Y005117D01*
X001385Y005117D02*
X001260Y004119D01*
X001157Y005117D01*
X001134Y005117D02*
X001385Y005117D01*
X001311Y005117D02*
X001260Y004119D01*
X001208Y005117D01*
X001134Y005117D02*
X001260Y004119D01*
X001260Y025068D01*
X001362Y024070D01*
X001385Y024070D02*
X001260Y025068D01*
X001157Y024070D01*
X001134Y024070D02*
X001385Y024070D01*
X001311Y024070D02*
X001260Y025068D01*
X001208Y024070D01*
X001134Y024070D02*
X001260Y025068D01*
X000492Y025093D02*
X002560Y025093D01*
D12*
X000683Y016050D02*
X000683Y015623D01*
X000363Y015943D01*
X001003Y015943D01*
X000897Y015405D02*
X001003Y015299D01*
X001003Y015085D01*
X000897Y014978D01*
X000897Y014763D02*
X001003Y014763D01*
X001003Y014656D01*
X000897Y014656D01*
X000897Y014763D01*
X000897Y014439D02*
X001003Y014332D01*
X001003Y014118D01*
X000897Y014012D01*
X000897Y013794D02*
X001003Y013687D01*
X001003Y013474D01*
X000897Y013367D01*
X000683Y013367D02*
X000576Y013581D01*
X000576Y013687D01*
X000683Y013794D01*
X000897Y013794D01*
X000470Y014012D02*
X000363Y014118D01*
X000363Y014332D01*
X000470Y014439D01*
X000576Y014439D01*
X000683Y014332D01*
X000790Y014439D01*
X000897Y014439D01*
X000683Y014332D02*
X000683Y014225D01*
X000363Y013794D02*
X000363Y013367D01*
X000683Y013367D01*
X000470Y014978D02*
X000363Y015085D01*
X000363Y015299D01*
X000470Y015405D01*
X000576Y015405D01*
X000683Y015299D01*
X000790Y015405D01*
X000897Y015405D01*
X000683Y015299D02*
X000683Y015192D01*
X023654Y001577D02*
X023867Y001790D01*
X023867Y001149D01*
X023654Y001149D02*
X024081Y001149D01*
X024298Y001256D02*
X024725Y001683D01*
X024725Y001256D01*
X024619Y001149D01*
X024405Y001149D01*
X024298Y001256D01*
X024298Y001683D01*
X024405Y001790D01*
X024619Y001790D01*
X024725Y001683D01*
X024943Y001470D02*
X025263Y001470D01*
X025370Y001363D01*
X025370Y001256D01*
X025263Y001149D01*
X025050Y001149D01*
X024943Y001256D01*
X024943Y001470D01*
X025156Y001683D01*
X025370Y001790D01*
X025910Y001470D02*
X026230Y001470D01*
X026337Y001363D01*
X026337Y001256D01*
X026230Y001149D01*
X026017Y001149D01*
X025910Y001256D01*
X025910Y001470D01*
X026123Y001683D01*
X026337Y001790D01*
X026554Y001683D02*
X026554Y001577D01*
X026661Y001470D01*
X026875Y001470D01*
X026981Y001363D01*
X026981Y001256D01*
X026875Y001149D01*
X026661Y001149D01*
X026554Y001256D01*
X026554Y001363D01*
X026661Y001470D01*
X026875Y001470D02*
X026981Y001577D01*
X026981Y001683D01*
X026875Y001790D01*
X026661Y001790D01*
X026554Y001683D01*
X025694Y001256D02*
X025694Y001149D01*
X025587Y001149D01*
X025587Y001256D01*
X025694Y001256D01*
X030760Y013096D02*
X030602Y013333D01*
X030917Y013333D01*
X030760Y013096D01*
X031502Y015154D02*
X031817Y015154D01*
X031660Y015390D01*
X031502Y015154D01*
X032402Y015154D02*
X032717Y015154D01*
X032560Y015390D01*
X032402Y015154D01*
D13*
X032146Y015339D02*
X031686Y015339D01*
X031686Y015186D02*
X031686Y015493D01*
X031993Y015186D02*
X032146Y015339D01*
X032069Y015033D02*
X031763Y015033D01*
X031686Y014956D01*
X031686Y014726D01*
X032146Y014726D01*
X032146Y014956D01*
X032069Y015033D01*
X031246Y014956D02*
X031246Y014726D01*
X030786Y014726D01*
X030786Y014956D01*
X030863Y015033D01*
X031169Y015033D01*
X031246Y014956D01*
X031169Y015186D02*
X031246Y015263D01*
X031246Y015416D01*
X031169Y015493D01*
X031093Y015493D01*
X030786Y015186D01*
X030786Y015493D01*
X032180Y014064D02*
X032256Y014141D01*
X032410Y014141D01*
X032486Y014064D01*
X032486Y013988D01*
X032410Y013834D01*
X032640Y013834D01*
X032640Y014141D01*
X032180Y014064D02*
X032180Y013911D01*
X032256Y013834D01*
X032180Y013681D02*
X032180Y013374D01*
X032140Y013383D02*
X031910Y013153D01*
X031910Y013460D01*
X031680Y013383D02*
X032140Y013383D01*
X032180Y013527D02*
X032640Y013527D01*
X032486Y013374D01*
X032410Y013220D02*
X032333Y013144D01*
X032333Y012913D01*
X032180Y012913D02*
X032640Y012913D01*
X032640Y013144D01*
X032563Y013220D01*
X032410Y013220D01*
X032333Y013067D02*
X032180Y013220D01*
X031680Y012999D02*
X031680Y012693D01*
X031680Y012846D02*
X032140Y012846D01*
X031986Y012693D01*
X031910Y012539D02*
X031833Y012462D01*
X031833Y012232D01*
X031680Y012232D02*
X032140Y012232D01*
X032140Y012462D01*
X032063Y012539D01*
X031910Y012539D01*
X031833Y012386D02*
X031680Y012539D01*
X031634Y012880D02*
X031173Y012880D01*
X031173Y013110D01*
X031250Y013187D01*
X031557Y013187D01*
X031634Y013110D01*
X031634Y012880D01*
X031557Y013341D02*
X031634Y013417D01*
X031634Y013571D01*
X031557Y013648D01*
X031480Y013648D01*
X031403Y013571D01*
X031327Y013648D01*
X031250Y013648D01*
X031173Y013571D01*
X031173Y013417D01*
X031250Y013341D01*
X031403Y013494D02*
X031403Y013571D01*
X020740Y008074D02*
X020740Y007613D01*
X020740Y007767D02*
X020509Y007767D01*
X020433Y007844D01*
X020433Y007997D01*
X020509Y008074D01*
X020740Y008074D01*
X020586Y007767D02*
X020433Y007613D01*
X020279Y007613D02*
X019972Y007613D01*
X020126Y007613D02*
X020126Y008074D01*
X020279Y007920D01*
X019819Y007844D02*
X019819Y007690D01*
X019742Y007613D01*
X019589Y007613D01*
X019512Y007690D01*
X019512Y007767D01*
X019589Y007844D01*
X019819Y007844D01*
X019665Y007997D01*
X019512Y008074D01*
X019589Y007274D02*
X019742Y007274D01*
X019819Y007197D01*
X019589Y007274D02*
X019512Y007197D01*
X019512Y007120D01*
X019819Y006813D01*
X019512Y006813D01*
X019972Y006813D02*
X020279Y006813D01*
X020126Y006813D02*
X020126Y007274D01*
X020279Y007120D01*
X020433Y007044D02*
X020509Y006967D01*
X020740Y006967D01*
X020740Y006813D02*
X020740Y007274D01*
X020509Y007274D01*
X020433Y007197D01*
X020433Y007044D01*
X020586Y006967D02*
X020433Y006813D01*
X020540Y006374D02*
X020309Y006374D01*
X020233Y006297D01*
X020233Y006144D01*
X020309Y006067D01*
X020540Y006067D01*
X020540Y005913D02*
X020540Y006374D01*
X020386Y006067D02*
X020233Y005913D01*
X020079Y005913D02*
X019772Y005913D01*
X019926Y005913D02*
X019926Y006374D01*
X020079Y006220D01*
X019619Y006297D02*
X019542Y006374D01*
X019389Y006374D01*
X019312Y006297D01*
X019312Y006220D01*
X019389Y006144D01*
X019312Y006067D01*
X019312Y005990D01*
X019389Y005913D01*
X019542Y005913D01*
X019619Y005990D01*
X019465Y006144D02*
X019389Y006144D01*
X019360Y005174D02*
X019130Y005174D01*
X019053Y005097D01*
X019053Y004944D01*
X019130Y004867D01*
X019360Y004867D01*
X019207Y004867D02*
X019053Y004713D01*
X018900Y004713D02*
X018593Y004713D01*
X018746Y004713D02*
X018746Y005174D01*
X018900Y005020D01*
X019360Y005174D02*
X019360Y004713D01*
X011180Y006770D02*
X011103Y006693D01*
X010949Y006693D01*
X010873Y006770D01*
X010719Y006693D02*
X010412Y006693D01*
X010259Y006693D02*
X010259Y006770D01*
X009952Y007077D01*
X009952Y007154D01*
X010259Y007154D01*
X010566Y007154D02*
X010566Y006693D01*
X010719Y007000D02*
X010566Y007154D01*
X010873Y007077D02*
X010949Y007154D01*
X011103Y007154D01*
X011180Y007077D01*
X011180Y006770D01*
X008940Y006333D02*
X008710Y006103D01*
X008710Y006410D01*
X008480Y006333D02*
X008940Y006333D01*
X008863Y005949D02*
X008940Y005873D01*
X008940Y005719D01*
X008863Y005643D01*
X008556Y005643D01*
X008480Y005719D01*
X008480Y005873D01*
X008556Y005949D01*
X005960Y007213D02*
X005960Y007674D01*
X005730Y007674D01*
X005653Y007597D01*
X005653Y007444D01*
X005730Y007367D01*
X005960Y007367D01*
X005807Y007367D02*
X005653Y007213D01*
X005500Y007290D02*
X005500Y007444D01*
X005270Y007444D01*
X005193Y007367D01*
X005193Y007290D01*
X005270Y007213D01*
X005423Y007213D01*
X005500Y007290D01*
X005500Y007444D02*
X005346Y007597D01*
X005193Y007674D01*
X005170Y011213D02*
X005323Y011213D01*
X005400Y011290D01*
X005400Y011444D02*
X005246Y011520D01*
X005170Y011520D01*
X005093Y011444D01*
X005093Y011290D01*
X005170Y011213D01*
X005400Y011444D02*
X005400Y011674D01*
X005093Y011674D01*
X005553Y011597D02*
X005553Y011444D01*
X005630Y011367D01*
X005860Y011367D01*
X005707Y011367D02*
X005553Y011213D01*
X005860Y011213D02*
X005860Y011674D01*
X005630Y011674D01*
X005553Y011597D01*
X009243Y012213D02*
X009550Y012213D01*
X009243Y012520D01*
X009243Y012597D01*
X009320Y012674D01*
X009473Y012674D01*
X009550Y012597D01*
X009703Y012597D02*
X009780Y012674D01*
X009934Y012674D01*
X010010Y012597D01*
X010010Y012290D01*
X009934Y012213D01*
X009780Y012213D01*
X009703Y012290D01*
X009552Y013213D02*
X009629Y013290D01*
X009552Y013213D02*
X009399Y013213D01*
X009322Y013290D01*
X009322Y013444D01*
X009399Y013520D01*
X009476Y013520D01*
X009629Y013444D01*
X009629Y013674D01*
X009322Y013674D01*
X009353Y014113D02*
X009660Y014113D01*
X009507Y014113D02*
X009507Y014574D01*
X009660Y014420D01*
X009814Y014344D02*
X009890Y014267D01*
X010121Y014267D01*
X010121Y014113D02*
X010121Y014574D01*
X009890Y014574D01*
X009814Y014497D01*
X009814Y014344D01*
X009967Y014267D02*
X009814Y014113D01*
X009859Y013674D02*
X010013Y013674D01*
X010090Y013597D01*
X010090Y013290D01*
X010013Y013213D01*
X009859Y013213D01*
X009783Y013290D01*
X009783Y013597D02*
X009859Y013674D01*
X009200Y014190D02*
X009123Y014113D01*
X008970Y014113D01*
X008893Y014190D01*
X008893Y014497D01*
X008970Y014574D01*
X009123Y014574D01*
X009200Y014497D01*
X009200Y014420D01*
X009123Y014344D01*
X008893Y014344D01*
X011712Y015410D02*
X011789Y015333D01*
X011942Y015333D01*
X012019Y015410D01*
X012019Y015564D01*
X011789Y015564D01*
X011712Y015487D01*
X011712Y015410D01*
X011865Y015717D02*
X012019Y015564D01*
X011865Y015717D02*
X011712Y015794D01*
X012326Y015794D02*
X012479Y015640D01*
X012633Y015717D02*
X012709Y015794D01*
X012863Y015794D01*
X012940Y015717D01*
X012940Y015410D01*
X012863Y015333D01*
X012709Y015333D01*
X012633Y015410D01*
X012479Y015333D02*
X012172Y015333D01*
X012326Y015333D02*
X012326Y015794D01*
X008840Y016719D02*
X008763Y016643D01*
X008456Y016643D01*
X008380Y016719D01*
X008380Y016873D01*
X008456Y016949D01*
X008456Y017103D02*
X008380Y017180D01*
X008380Y017333D01*
X008456Y017410D01*
X008533Y017410D01*
X008610Y017333D01*
X008610Y017103D01*
X008456Y017103D01*
X008610Y017103D02*
X008763Y017256D01*
X008840Y017410D01*
X008763Y016949D02*
X008840Y016873D01*
X008840Y016719D01*
X007060Y016567D02*
X006830Y016567D01*
X006753Y016644D01*
X006753Y016797D01*
X006830Y016874D01*
X007060Y016874D01*
X007060Y016413D01*
X006907Y016567D02*
X006753Y016413D01*
X006600Y016644D02*
X006293Y016644D01*
X006370Y016874D02*
X006370Y016413D01*
X006600Y016644D02*
X006370Y016874D01*
X006570Y020413D02*
X006723Y020413D01*
X006800Y020490D01*
X006953Y020413D02*
X007107Y020567D01*
X007030Y020567D02*
X007260Y020567D01*
X007260Y020413D02*
X007260Y020874D01*
X007030Y020874D01*
X006953Y020797D01*
X006953Y020644D01*
X007030Y020567D01*
X006800Y020797D02*
X006723Y020874D01*
X006570Y020874D01*
X006493Y020797D01*
X006493Y020720D01*
X006570Y020644D01*
X006493Y020567D01*
X006493Y020490D01*
X006570Y020413D01*
X006570Y020644D02*
X006646Y020644D01*
X008199Y022413D02*
X008352Y022413D01*
X008429Y022490D01*
X008583Y022490D02*
X008659Y022413D01*
X008813Y022413D01*
X008890Y022490D01*
X008890Y022797D01*
X008813Y022874D01*
X008659Y022874D01*
X008583Y022797D01*
X008429Y022797D02*
X008352Y022874D01*
X008199Y022874D01*
X008122Y022797D01*
X008122Y022720D01*
X008199Y022644D01*
X008122Y022567D01*
X008122Y022490D01*
X008199Y022413D01*
X008199Y022644D02*
X008276Y022644D01*
X016372Y018197D02*
X016449Y018274D01*
X016602Y018274D01*
X016679Y018197D01*
X016679Y018120D01*
X016602Y018044D01*
X016372Y018044D01*
X016372Y018197D02*
X016372Y017890D01*
X016449Y017813D01*
X016602Y017813D01*
X016679Y017890D01*
X016833Y017813D02*
X016986Y017967D01*
X016909Y017967D02*
X017140Y017967D01*
X017140Y017813D02*
X017140Y018274D01*
X016909Y018274D01*
X016833Y018197D01*
X016833Y018044D01*
X016909Y017967D01*
X016907Y017574D02*
X016907Y017113D01*
X017060Y017113D02*
X016753Y017113D01*
X016600Y017113D02*
X016293Y017113D01*
X016446Y017113D02*
X016446Y017574D01*
X016600Y017420D01*
X016907Y017574D02*
X017060Y017420D01*
X017214Y017344D02*
X017290Y017267D01*
X017521Y017267D01*
X017521Y017113D02*
X017521Y017574D01*
X017290Y017574D01*
X017214Y017497D01*
X017214Y017344D01*
X017367Y017267D02*
X017214Y017113D01*
X017260Y016674D02*
X017030Y016674D01*
X016953Y016597D01*
X016953Y016444D01*
X017030Y016367D01*
X017260Y016367D01*
X017107Y016367D02*
X016953Y016213D01*
X016800Y016213D02*
X016493Y016520D01*
X016493Y016597D01*
X016570Y016674D01*
X016723Y016674D01*
X016800Y016597D01*
X016800Y016213D02*
X016493Y016213D01*
X017260Y016213D02*
X017260Y016674D01*
X017500Y019013D02*
X017500Y019090D01*
X017193Y019397D01*
X017193Y019474D01*
X017500Y019474D01*
X017807Y019474D02*
X017960Y019320D01*
X018114Y019244D02*
X018190Y019167D01*
X018421Y019167D01*
X018421Y019013D02*
X018421Y019474D01*
X018190Y019474D01*
X018114Y019397D01*
X018114Y019244D01*
X018267Y019167D02*
X018114Y019013D01*
X017960Y019013D02*
X017653Y019013D01*
X017807Y019013D02*
X017807Y019474D01*
M02*
