%
M48
M72
T01C0.0236
T02C0.0240
T03C0.0276
T04C0.0400
T05C0.0551
T06C0.0591
T07C0.1260
%
T01
X17560Y8693
X18560Y9693
X16560Y9693
X18360Y17393
X19360Y18393
X17360Y18393
T02
X7960Y5393
X7660Y7493
X9360Y7393
X11000Y8803
X11030Y9303
X11740Y9333
X11760Y8813
X12560Y7593
X13560Y7593
X13560Y8293
X13860Y8793
X14860Y9293
X14790Y9953
X14910Y10533
X14860Y11093
X14860Y11793
X14860Y12493
X13370Y12133
X12060Y11833
X11390Y11843
X10360Y11693
X9360Y12593
X7660Y11493
X4970Y11533
X6670Y13433
X4970Y13733
X4970Y15533
X8160Y17393
X10160Y17593
X11740Y18343
X12440Y18343
X12440Y18843
X11740Y18843
X11740Y19343
X12440Y19343
X12440Y19843
X11740Y19843
X11894Y20928
X11225Y21175
X10460Y21759
X9825Y21028
X8060Y21293
X6670Y20233
X4870Y21433
X4870Y23233
X7870Y24333
X13870Y24233
X19560Y21393
X21570Y22233
X24670Y22333
X28670Y22933
X29360Y21493
X32060Y23193
X33870Y22133
X37160Y22293
X38160Y22293
X38970Y22033
X40060Y22093
X41160Y22593
X41460Y19993
X40960Y19793
X35360Y19843
X34260Y19293
X30260Y18393
X29360Y18593
X28270Y18533
X30760Y16193
X33260Y14693
X35460Y15293
X35360Y13093
X33160Y12993
X31660Y12193
X29860Y12993
X27320Y12233
X28110Y11393
X28460Y10393
X29160Y9793
X30260Y10893
X30760Y10993
X26360Y10593
X25060Y11093
X24460Y11293
X23670Y11493
X22460Y11993
X24260Y13093
X26160Y14493
X25600Y15803
X23360Y16193
X23360Y15393
X20560Y15793
X18160Y16593
X16460Y18093
X18370Y18333
X19560Y19993
X16260Y19993
X14060Y20603
X14060Y19293
X14160Y17793
X13960Y17193
X13200Y17043
X12140Y17743
X13860Y16093
X15560Y15733
X13270Y13833
X13270Y13033
X11790Y10353
X11770Y9883
X11040Y9883
X11030Y10363
X4860Y9093
X16460Y5093
X22460Y8393
X23960Y9393
X25360Y8793
X20060Y9993
X18860Y8793
X10860Y15793
X8660Y15793
X6670Y18633
X4960Y18793
X34160Y6593
T03
X31934Y21693
X31147Y21693
X30360Y21693
X28347Y21693
X27560Y21693
T04
X27160Y24093
X28160Y24093
X29160Y24093
X30160Y24093
X31160Y24093
X33160Y24093
X34160Y24093
X35160Y24093
X36160Y24093
X37160Y24093
X38160Y24093
X39160Y24093
X40160Y24093
X43160Y24093
X44160Y24093
X44160Y23093
X43160Y23093
X43160Y22093
X44160Y22093
X44160Y21093
X43160Y21093
X43160Y20093
X44160Y20093
X44160Y19093
X43160Y19093
X43160Y18093
X44160Y18093
X44160Y17093
X43160Y17093
X43160Y16093
X44160Y16093
X44160Y15093
X43160Y15093
X43160Y14093
X44160Y14093
X44160Y13093
X43160Y13093
X43160Y12093
X44160Y12093
X44160Y11093
X43160Y11093
X43160Y10093
X44160Y10093
X44160Y9093
X43160Y9093
X43160Y8093
X44160Y8093
X44160Y7093
X43160Y7093
X42160Y5093
X41160Y5093
X40160Y5093
X39160Y5093
X38160Y5093
X37160Y5093
X36160Y5093
X35160Y5093
X33160Y5093
X32160Y5093
X31160Y5093
X30160Y5093
X29160Y5093
X28160Y5093
X27160Y5093
X26160Y5093
X24160Y5093
X23160Y5093
X22160Y5093
X21160Y5093
X20160Y5093
X19160Y5093
X19560Y24093
X20560Y24093
X21560Y24093
X22560Y24093
X24160Y24093
X25160Y24093
X26160Y24093
X18560Y24093
X17560Y24093
X16560Y24093
X15560Y24093
T05
X7860Y22293
X7860Y20293
X7860Y18293
X7860Y16293
X7860Y12493
X7860Y10493
X7860Y8493
X7860Y6493
T06
X14457Y6393
X16457Y6393
T07
X11660Y5093
X44160Y5093
X41660Y24093
X12160Y24093
M30
